<svg width="50" height="285" viewBox="0 0 50 285" fill="none" xmlns="http://www.w3.org/2000/svg">
<path d="M21.7754 25.8965L20.8706 25.4707L20.7754 25.6729V25.8965H21.7754ZM21.7754 44V45H22.7754V44H21.7754ZM8.21289 44H7.21289V45H8.21289V44ZM8.21289 1.19336V0.193359H7.21289V1.19336H8.21289ZM21.7754 1.19336H22.7754V0.193359H21.7754V1.19336ZM21.7754 20.0537H20.7754L22.6649 20.5106L21.7754 20.0537ZM31.4629 1.19336V0.193359H30.8523L30.5734 0.736464L31.4629 1.19336ZM47.2959 1.19336L48.1544 1.70618L49.0581 0.193359H47.2959V1.19336ZM35.0352 21.7188L34.1767 21.2059L33.8825 21.6983L34.159 22.2009L35.0352 21.7188ZM47.2959 44V45H48.9876L48.172 43.5179L47.2959 44ZM31.4629 44L30.545 44.3969L30.8058 45H31.4629V44ZM22.7441 23.8379L23.662 23.441L22.7827 21.4075L21.8393 23.4121L22.7441 23.8379ZM20.7754 25.8965V44H22.7754V25.8965H20.7754ZM21.7754 43H8.21289V45H21.7754V43ZM9.21289 44V1.19336H7.21289V44H9.21289ZM8.21289 2.19336H21.7754V0.193359H8.21289V2.19336ZM20.7754 1.19336V20.0537H22.7754V1.19336H20.7754ZM22.6649 20.5106L32.3524 1.65026L30.5734 0.736464L20.8859 19.5968L22.6649 20.5106ZM31.4629 2.19336H47.2959V0.193359H31.4629V2.19336ZM46.4374 0.68054L34.1767 21.2059L35.8937 22.2316L48.1544 1.70618L46.4374 0.68054ZM34.159 22.2009L46.4198 44.4821L48.172 43.5179L35.9113 21.2366L34.159 22.2009ZM47.2959 43H31.4629V45H47.2959V43ZM32.3807 43.6031L23.662 23.441L21.8263 24.2348L30.545 44.3969L32.3807 43.6031ZM21.8393 23.4121L20.8706 25.4707L22.6802 26.3223L23.649 24.2637L21.8393 23.4121ZM6.18457 61.1934V60.1934H5.18457V61.1934H6.18457ZM24.7119 61.3447L24.6445 62.3425L24.6516 62.3429L24.6587 62.3433L24.7119 61.3447ZM29.2529 61.8896L29.0694 62.8727L29.0821 62.875L29.2529 61.8896ZM33.6426 63.04L33.3062 63.9819L33.3183 63.986L33.6426 63.04ZM37.3965 64.9775L36.8013 65.7811L36.8096 65.7873L36.8181 65.7933L37.3965 64.9775ZM40.0303 67.9141L39.1547 68.3971L39.1597 68.4062L39.1648 68.4151L40.0303 67.9141ZM40.6963 74.877L41.6689 75.1095L41.67 75.1048L40.6963 74.877ZM39.4854 77.4502L38.6829 76.8535L38.6779 76.8602L38.673 76.867L39.4854 77.4502ZM37.124 79.5088L36.6223 78.6437L36.6147 78.6482L37.124 79.5088ZM33.3096 80.75L33.1556 79.7619L33.2502 81.7482L33.3096 80.75ZM37.8203 81.9307L37.3568 82.8168L37.3649 82.821L37.3731 82.8251L37.8203 81.9307ZM43.2393 87.8037L42.3036 88.1565L42.3071 88.1658L42.3108 88.1751L43.2393 87.8037ZM42.9971 96.0684L43.9149 96.4653L43.9168 96.4608L42.9971 96.0684ZM39.7275 100.095L40.3393 100.886L40.3408 100.885L39.7275 100.095ZM33.7031 102.94L33.9748 103.903L33.9819 103.901L33.7031 102.94ZM6.18457 104H5.18457V105H6.18457V104ZM19.7471 96.25H18.7471V97.25H19.7471V96.25ZM29.1016 94.918L28.3786 94.2271L28.3782 94.2275L29.1016 94.918ZM29.9492 89.2266L29.043 89.6494L29.0487 89.6617L29.0548 89.6738L29.9492 89.2266ZM28.3447 87.7432L27.8884 88.633L27.8975 88.6377L27.9068 88.6422L28.3447 87.7432ZM25.0752 86.8652L24.9297 87.8546L24.9378 87.8558L24.9459 87.8568L25.0752 86.8652ZM19.7471 86.5625V85.5625H18.7471V86.5625H19.7471ZM26.5889 78.4189L26.9051 79.3676L26.916 79.364L26.9267 79.3601L26.5889 78.4189ZM29.9189 75.7852L29.0434 75.3021L29.0369 75.3138L29.0307 75.3257L29.9189 75.7852ZM29.8281 71.5771L28.9755 72.0997L29.8281 71.5771ZM19.7471 69.125V68.125H18.7471V69.125H19.7471ZM19.7471 78.8125H18.7471V79.8125H19.7471V78.8125ZM6.18457 62.1934H20.5947V60.1934H6.18457V62.1934ZM20.5947 62.1934C21.8197 62.1934 23.1693 62.2428 24.6445 62.3425L24.7793 60.347C23.2676 60.2449 21.8724 60.1934 20.5947 60.1934V62.1934ZM24.6587 62.3433C26.1279 62.4217 27.5981 62.598 29.0694 62.8727L29.4364 60.9066C27.8804 60.6162 26.3232 60.4292 24.7652 60.3461L24.6587 62.3433ZM29.0821 62.875C30.5408 63.1278 31.9486 63.4969 33.3062 63.9818L33.9789 62.0983C32.511 61.5741 30.9924 61.1762 29.4237 60.9043L29.0821 62.875ZM33.3183 63.986C34.6437 64.4404 35.8018 65.0407 36.8013 65.7811L37.9917 64.174C36.8115 63.2998 35.467 62.6084 33.9669 62.0941L33.3183 63.986ZM36.8181 65.7933C37.8075 66.4949 38.5829 67.3608 39.1547 68.3971L40.9058 67.431C40.1859 66.1262 39.2055 65.0344 37.9749 64.1618L36.8181 65.7933ZM39.1648 68.4151C39.7266 69.3855 40.0293 70.5777 40.0293 72.0312H42.0293C42.0293 70.296 41.6659 68.7435 40.8957 67.413L39.1648 68.4151ZM40.0293 72.0312C40.0293 72.901 39.9276 73.7732 39.7226 74.6491L41.67 75.1048C41.909 74.0836 42.0293 73.0586 42.0293 72.0312H40.0293ZM39.7237 74.6444C39.5341 75.4375 39.1897 76.1719 38.6829 76.8535L40.2878 78.0469C40.9516 77.1542 41.4145 76.1732 41.6689 75.1095L39.7237 74.6444ZM38.673 76.867C38.2054 77.5183 37.5336 78.1152 36.6223 78.6438L37.6257 80.3738C38.7327 79.7318 39.6351 78.9563 40.2977 78.0334L38.673 76.867ZM36.6147 78.6482C35.7673 79.1498 34.6274 79.5326 33.1556 79.7619L33.4636 81.7381C35.0998 81.4831 36.5029 81.0384 37.6333 80.3694L36.6147 78.6482ZM33.2502 81.7482C34.825 81.842 36.1874 82.205 37.3568 82.8168L38.2838 81.0446C36.8296 80.2839 35.1847 79.8598 33.369 79.7518L33.2502 81.7482ZM37.3731 82.8251C38.6041 83.4406 39.6206 84.2049 40.4374 85.1123L41.924 83.7744C40.9243 82.6636 39.7006 81.7528 38.2675 81.0362L37.3731 82.8251ZM40.4374 85.1123C41.265 86.0319 41.8847 87.0456 42.3036 88.1565L44.175 87.4509C43.6655 86.0996 42.9127 84.873 41.924 83.7744L40.4374 85.1123ZM42.3108 88.1751C42.7524 89.2792 42.9658 90.3543 42.9658 91.4062H44.9658C44.9658 90.0767 44.6948 88.7501 44.1677 87.4323L42.3108 88.1751ZM42.9658 91.4062C42.9658 92.8614 42.6719 94.2822 42.0773 95.6759L43.9168 96.4608C44.6139 94.8271 44.9658 93.1399 44.9658 91.4062H42.9658ZM42.0792 95.6714C41.512 96.9831 40.5408 98.1974 39.1143 99.3048L40.3408 100.885C41.9819 99.6106 43.1904 98.1406 43.9149 96.4653L42.0792 95.6714ZM39.1158 99.3037C37.7303 100.375 35.8471 101.277 33.4243 101.98L33.9819 103.901C36.5643 103.151 38.6974 102.156 40.3393 100.886L39.1158 99.3037ZM33.4315 101.978C31.0461 102.651 28.0363 103 24.3789 103V105C28.1486 105 31.355 104.642 33.9748 103.903L33.4315 101.978ZM24.3789 103H6.18457V105H24.3789V103ZM7.18457 104V61.1934H5.18457V104H7.18457ZM19.7471 97.25H25.2266V95.25H19.7471V97.25ZM25.2266 97.25C27.1203 97.25 28.7216 96.7643 29.8249 95.6084L28.3782 94.2275C27.7862 94.8476 26.8041 95.25 25.2266 95.25V97.25ZM29.8246 95.6088C30.8955 94.4881 31.4033 93.0574 31.4033 91.4062H29.4033C29.4033 92.6209 29.0433 93.5314 28.3786 94.2271L29.8246 95.6088ZM31.4033 91.4062C31.4033 90.4416 31.2311 89.5542 30.8436 88.7794L29.0548 89.6738C29.2728 90.1098 29.4033 90.6756 29.4033 91.4062H31.4033ZM30.8554 88.8037C30.4494 87.9337 29.7113 87.2966 28.7827 86.8442L27.9068 88.6422C28.5524 88.9567 28.8839 89.3085 29.043 89.6494L30.8554 88.8037ZM28.801 86.8533C27.8695 86.3756 26.6522 86.0625 25.2045 85.8736L24.9459 87.8568C26.2833 88.0313 27.2457 88.3034 27.8884 88.633L28.801 86.8533ZM25.2207 85.8759C23.781 85.6642 21.9513 85.5625 19.7471 85.5625V87.5625C21.9022 87.5625 23.6246 87.6627 24.9297 87.8546L25.2207 85.8759ZM18.7471 86.5625V96.25H20.7471V86.5625H18.7471ZM23.9854 79.8125C25.0263 79.8125 26.0026 79.6685 26.9051 79.3676L26.2726 77.4703C25.6009 77.6942 24.8416 77.8125 23.9854 77.8125V79.8125ZM26.9267 79.3601C27.7987 79.0471 28.573 78.6356 29.235 78.1154L27.9994 76.5428C27.5312 76.9106 26.9533 77.2257 26.251 77.4778L26.9267 79.3601ZM29.235 78.1154C29.9023 77.5911 30.4329 76.9681 30.8072 76.2446L29.0307 75.3257C28.7995 75.7728 28.4623 76.179 27.9994 76.5428L29.235 78.1154ZM30.7945 76.2682C31.1933 75.5455 31.4033 74.7749 31.4033 73.9688H29.4033C29.4033 74.4139 29.2904 74.8543 29.0434 75.3021L30.7945 76.2682ZM31.4033 73.9688C31.4033 72.8731 31.1868 71.8803 30.6807 71.0546L28.9755 72.0997C29.2364 72.5253 29.4033 73.1269 29.4033 73.9688H31.4033ZM30.6807 71.0546C30.1642 70.2118 29.3641 69.5984 28.3754 69.1746L27.5875 71.0129C28.2941 71.3157 28.7252 71.6912 28.9755 72.0997L30.6807 71.0546ZM28.3754 69.1746C27.4028 68.7578 26.195 68.4896 24.7856 68.3423L24.5777 70.3315C25.8727 70.4668 26.8647 70.7031 27.5875 71.0129L28.3754 69.1746ZM24.7856 68.3423C23.3878 68.1963 21.706 68.125 19.7471 68.125V70.125C21.6631 70.125 23.2711 70.195 24.5777 70.3315L24.7856 68.3423ZM18.7471 69.125V78.8125H20.7471V69.125H18.7471ZM19.7471 79.8125H23.9854V77.8125H19.7471V79.8125ZM1.06836 121.193V120.193H0.0683594V121.193H1.06836ZM13.6621 121.193L14.5044 120.654L14.2094 120.193H13.6621V121.193ZM24.3184 137.844L23.4761 138.383L24.3184 139.699L25.1606 138.383L24.3184 137.844ZM34.9746 121.193V120.193H34.4273L34.1323 120.654L34.9746 121.193ZM47.8711 121.193H48.8711V120.193H47.8711V121.193ZM47.8711 164V165H48.8711V164H47.8711ZM34.0059 164H33.0059V165H34.0059V164ZM34.0059 140.75H35.0059V137.089L33.1447 140.242L34.0059 140.75ZM24.0156 157.673V158.673H24.5865L24.8768 158.181L24.0156 157.673ZM21.0791 157.673L20.2254 158.194L20.5177 158.673H21.0791V157.673ZM10.7559 140.75L11.6096 140.229L9.75586 137.19V140.75H10.7559ZM10.7559 164V165H11.7559V164H10.7559ZM1.06836 164H0.0683594V165H1.06836V164ZM1.06836 122.193H13.6621V120.193H1.06836V122.193ZM12.8198 121.732L23.4761 138.383L25.1606 137.305L14.5044 120.654L12.8198 121.732ZM25.1606 138.383L35.8169 121.732L34.1323 120.654L23.4761 137.305L25.1606 138.383ZM34.9746 122.193H47.8711V120.193H34.9746V122.193ZM46.8711 121.193V164H48.8711V121.193H46.8711ZM47.8711 163H34.0059V165H47.8711V163ZM35.0059 164V140.75H33.0059V164H35.0059ZM33.1447 140.242L23.1545 157.164L24.8768 158.181L34.867 141.258L33.1447 140.242ZM24.0156 156.673H21.0791V158.673H24.0156V156.673ZM21.9328 157.152L11.6096 140.229L9.90216 141.271L20.2254 158.194L21.9328 157.152ZM9.75586 140.75V164H11.7559V140.75H9.75586ZM10.7559 163H1.06836V165H10.7559V163ZM2.06836 164V121.193H0.0683594V164H2.06836ZM39.0918 192.304L38.6898 193.219L40.0204 193.804L40.0906 192.352L39.0918 192.304ZM36.1855 191.214L35.8536 192.157L35.864 192.161L35.8745 192.164L36.1855 191.214ZM32.7344 190.185L32.488 191.154L32.4918 191.155L32.7344 190.185ZM29.1016 189.458L28.9398 190.445L28.9477 190.446L28.9556 190.447L29.1016 189.458ZM20.1104 193.787L19.3511 194.438L19.3677 194.457L19.3854 194.476L20.1104 193.787ZM21.7148 194.938L21.247 195.821L21.2572 195.827L21.2676 195.832L21.7148 194.938ZM24.167 195.967L23.8269 196.907L23.8388 196.911L23.8508 196.915L24.167 195.967ZM27.376 196.996L27.6765 196.042L27.6724 196.041L27.376 196.996ZM29.5859 197.692L29.2854 198.646L29.2948 198.649L29.5859 197.692ZM34.5811 199.751L34.1005 200.628L34.1098 200.633L34.5811 199.751ZM38.3047 202.566L37.5709 203.246L37.5775 203.253L37.5841 203.26L38.3047 202.566ZM40.4844 216.704L39.5521 216.342L39.5499 216.348L40.4844 216.704ZM32.0684 223.879L31.7761 222.923L31.7736 222.923L32.0684 223.879ZM16.1748 224.212L16.0104 225.198L16.0116 225.199L16.1748 224.212ZM8.0918 221.881H7.0918V222.553L7.7145 222.807L8.0918 221.881ZM8.0918 211.891L8.54727 211L7.0918 210.256V211.891H8.0918ZM15.6602 214.827L15.412 215.796L15.4214 215.798L15.6602 214.827ZM27.1943 214.797L26.627 213.973L26.6184 213.979L27.1943 214.797ZM28.042 210.498L27.2099 211.053L27.2234 211.073L27.2378 211.092L28.042 210.498ZM26.4375 209.166L25.9518 210.04L25.962 210.046L26.4375 209.166ZM23.5615 207.955L23.2262 208.897L23.2333 208.9L23.2405 208.902L23.5615 207.955ZM19.2324 206.532L19.5281 205.577L19.5177 205.574L19.2324 206.532ZM14.5098 204.625L14.0379 205.507L14.043 205.509L14.5098 204.625ZM10.7861 201.87L10.0658 202.564L10.0723 202.57L10.7861 201.87ZM8.30371 198.086L7.37789 198.464L7.38256 198.475L8.30371 198.086ZM11.4824 183.948L12.1113 184.726L12.1181 184.72L11.4824 183.948ZM16.6895 181.314L16.4063 180.355L16.4038 180.356L16.6895 181.314ZM31.8262 180.981L31.6764 181.97L31.6786 181.97L31.8262 180.981ZM39.5459 182.919L40.5447 182.967L40.5798 182.242L39.9006 181.984L39.5459 182.919ZM39.4938 191.388C38.6295 191.009 37.6291 190.634 36.4966 190.263L35.8745 192.164C36.9621 192.52 37.8992 192.872 38.6898 193.219L39.4938 191.388ZM36.5175 190.271C35.396 189.876 34.2157 189.524 32.9769 189.214L32.4918 191.155C33.675 191.451 34.7954 191.785 35.8536 192.157L36.5175 190.271ZM32.9808 189.215C31.7565 188.904 30.512 188.655 29.2475 188.469L28.9556 190.447C30.1534 190.624 31.3308 190.86 32.488 191.154L32.9808 189.215ZM29.2633 188.471C27.9862 188.262 26.7713 188.155 25.6201 188.155V190.155C26.6487 190.155 27.7547 190.251 28.9398 190.445L29.2633 188.471ZM25.6201 188.155C23.6581 188.155 22.0123 188.403 20.7574 188.971L21.5824 190.793C22.4669 190.392 23.7879 190.155 25.6201 190.155V188.155ZM20.7574 188.971C20.0848 189.275 19.5206 189.713 19.1298 190.311C18.7381 190.909 18.5654 191.6 18.5654 192.334H20.5654C20.5654 191.918 20.6602 191.624 20.8033 191.406C20.9474 191.186 21.1854 190.973 21.5824 190.793L20.7574 188.971ZM18.5654 192.334C18.5654 193.124 18.8366 193.838 19.3511 194.438L20.8696 193.136C20.6575 192.889 20.5654 192.634 20.5654 192.334H18.5654ZM19.3854 194.476C19.8664 194.982 20.4999 195.426 21.247 195.821L22.1827 194.054C21.5574 193.723 21.1212 193.399 20.8354 193.098L19.3854 194.476ZM21.2676 195.832C21.9974 196.197 22.8524 196.555 23.8269 196.907L24.5071 195.026C23.5845 194.693 22.8046 194.364 22.1621 194.043L21.2676 195.832ZM23.8508 196.915C24.8272 197.241 25.9036 197.586 27.0796 197.951L27.6724 196.041C26.5072 195.679 25.4442 195.338 24.4832 195.018L23.8508 196.915ZM27.0755 197.95L29.2854 198.646L29.8864 196.739L27.6765 196.042L27.0755 197.95ZM29.2948 198.649C31.0957 199.197 32.6959 199.858 34.1005 200.628L35.0616 198.874C33.5196 198.029 31.7897 197.318 29.8771 196.736L29.2948 198.649ZM34.1098 200.633C35.4971 201.374 36.6462 202.247 37.5709 203.246L39.0384 201.887C37.9449 200.706 36.6117 199.702 35.0523 198.869L34.1098 200.633ZM37.5841 203.26C38.5216 204.234 39.2374 205.353 39.7348 206.624L41.5973 205.895C41.0048 204.381 40.1464 203.038 39.0253 201.873L37.5841 203.26ZM39.7348 206.624C40.2266 207.881 40.4834 209.338 40.4834 211.013H42.4834C42.4834 209.135 42.1953 207.424 41.5973 205.895L39.7348 206.624ZM40.4834 211.013C40.4834 212.984 40.1679 214.756 39.5522 216.342L41.4166 217.066C42.1328 215.221 42.4834 213.199 42.4834 211.013H40.4834ZM39.5499 216.348C38.9637 217.887 38.0412 219.204 36.7706 220.309L38.0829 221.818C39.5974 220.501 40.7134 218.912 41.4189 217.06L39.5499 216.348ZM36.7706 220.309C35.5056 221.409 33.8524 222.288 31.7761 222.923L32.3606 224.835C34.6437 224.138 36.5627 223.14 38.0829 221.818L36.7706 220.309ZM31.7736 222.923C29.7363 223.552 27.2378 223.878 24.2578 223.878V225.878C27.3729 225.878 30.0814 225.538 32.3631 224.834L31.7736 222.923ZM24.2578 223.878C21.6084 223.878 18.9686 223.66 16.338 223.225L16.0116 225.199C18.7495 225.651 21.4984 225.878 24.2578 225.878V223.878ZM16.3392 223.226C13.7543 222.795 11.1312 222.039 8.46909 220.955L7.7145 222.807C10.5016 223.942 13.2672 224.741 16.0104 225.198L16.3392 223.226ZM9.0918 221.881V211.891H7.0918V221.881H9.0918ZM7.63632 212.781C10.2956 214.141 12.8878 215.149 15.412 215.796L15.9083 213.858C13.5484 213.254 11.095 212.304 8.54727 211L7.63632 212.781ZM15.4214 215.798C17.9567 216.422 20.4588 216.735 22.9258 216.735V214.735C20.6298 214.735 18.2881 214.444 15.8989 213.856L15.4214 215.798ZM22.9258 216.735C24.9453 216.735 26.6251 216.421 27.7703 215.614L26.6184 213.979C25.9875 214.424 24.8217 214.735 22.9258 214.735V216.735ZM27.7616 215.62C28.9429 214.807 29.5566 213.63 29.5566 212.193H27.5566C27.5566 212.977 27.2622 213.536 26.627 213.973L27.7616 215.62ZM29.5566 212.193C29.5566 211.348 29.3354 210.566 28.8462 209.904L27.2378 211.092C27.4348 211.359 27.5566 211.707 27.5566 212.193H29.5566ZM28.874 209.943C28.4286 209.275 27.7422 208.735 26.913 208.286L25.962 210.046C26.6263 210.405 27.0095 210.752 27.2099 211.053L28.874 209.943ZM26.9231 208.292C26.1246 207.848 25.1045 207.422 23.8826 207.008L23.2405 208.902C24.4001 209.295 25.2972 209.676 25.9519 210.04L26.9231 208.292ZM23.8968 207.013C22.6889 206.583 21.2319 206.104 19.5281 205.577L18.9367 207.488C20.6236 208.01 22.0526 208.479 23.2262 208.897L23.8968 207.013ZM19.5177 205.574C17.8804 205.086 16.3675 204.475 14.9765 203.741L14.043 205.509C15.5583 206.309 17.1938 206.969 18.9472 207.491L19.5177 205.574ZM14.9816 203.743C13.6305 203.02 12.4727 202.161 11.4999 201.17L10.0723 202.57C11.1985 203.718 12.5231 204.696 14.0379 205.507L14.9816 203.743ZM11.5065 201.176C10.5444 200.177 9.78398 199.02 9.22486 197.697L7.38256 198.475C8.03438 200.018 8.92889 201.383 10.0658 202.564L11.5065 201.176ZM9.22947 197.708C8.70145 196.415 8.42578 194.912 8.42578 193.182H6.42578C6.42578 195.124 6.7354 196.891 7.37796 198.464L9.22947 197.708ZM8.42578 193.182C8.42578 191.404 8.73737 189.802 9.34577 188.364L7.50384 187.585C6.78021 189.295 6.42578 191.165 6.42578 193.182H8.42578ZM9.34577 188.364C9.94563 186.946 10.8623 185.736 12.1113 184.726L10.8536 183.171C9.35773 184.381 8.23601 185.854 7.50384 187.585L9.34577 188.364ZM12.1181 184.72C13.3665 183.692 14.9753 182.869 16.9751 182.273L16.4038 180.356C14.2057 181.011 12.3431 181.944 10.8467 183.176L12.1181 184.72ZM16.9726 182.274C18.9761 181.682 21.3888 181.376 24.2275 181.376V179.376C21.2537 179.376 18.6411 179.696 16.4063 180.355L16.9726 182.274ZM24.2275 181.376C25.3489 181.376 26.5438 181.425 27.8127 181.524L27.9685 179.53C26.6541 179.428 25.4069 179.376 24.2275 179.376V181.376ZM27.8127 181.524C29.0794 181.623 30.3673 181.772 31.6764 181.97L31.976 179.993C30.621 179.787 29.2852 179.633 27.9685 179.53L27.8127 181.524ZM31.6786 181.97C33.0004 182.168 34.3019 182.424 35.5832 182.74L36.0613 180.798C34.7189 180.467 33.3564 180.199 31.9738 179.992L31.6786 181.97ZM35.5832 182.74C36.8589 183.054 38.0613 183.425 39.1912 183.854L39.9006 181.984C38.6894 181.525 37.4093 181.129 36.0613 180.798L35.5832 182.74ZM38.5471 182.871L38.093 192.255L40.0906 192.352L40.5447 182.967L38.5471 182.871ZM17.7188 241.193V240.193H16.7188V241.193H17.7188ZM31.2812 241.193H32.2812V240.193H31.2812V241.193ZM31.2812 284V285H32.2812V284H31.2812ZM17.7188 284H16.7188V285H17.7188V284ZM17.7188 242.193H31.2812V240.193H17.7188V242.193ZM30.2812 241.193V284H32.2812V241.193H30.2812ZM31.2812 283H17.7188V285H31.2812V283ZM18.7188 284V241.193H16.7188V284H18.7188Z" fill="white" fill-opacity="0.5"/>
</svg>
