<svg width="77" height="154" viewBox="0 0 77 154" fill="none" xmlns="http://www.w3.org/2000/svg">
<path opacity="0.5" d="M80.4427 10.374L77 7.10537L73.5573 10.374L69.1159 14.5909L63.7653 11.611L59.6179 9.30124L57.0963 13.3233L53.8431 18.5123L47.9195 16.9567L43.328 15.7509L41.8858 20.2737L40.0253 26.1087L33.901 26.0751L29.1538 26.049L28.8818 30.7884L28.5307 36.9027L22.5905 38.3932L17.986 39.5486L18.9011 44.2067L20.0817 50.2163L14.6987 53.1372L10.5263 55.4014L12.5711 59.6856L15.2091 65.2127L10.7216 69.3806L7.24329 72.6113L10.2893 76.2524L14.219 80.9498L10.909 86.1028L8.3434 90.0969L12.1992 92.8662L17.1736 96.4388L15.2492 102.253L13.7574 106.76L18.1808 108.483L23.8874 110.706L23.4693 116.816L23.1453 121.553L27.8582 122.122L33.9385 122.856L35.053 128.878L35.917 133.546L40.6234 132.925L46.6952 132.124L49.2724 137.68L51.2701 141.986L55.6743 140.215L61.3561 137.929L65.234 142.669L68.2399 146.343L72.0651 143.532L77 139.905L81.9349 143.532L85.7601 146.343L88.766 142.669L92.6439 137.929L98.3257 140.215L102.73 141.986L104.728 137.68L107.305 132.124L113.377 132.925L118.083 133.546L118.947 128.878L120.062 122.856L126.142 122.122L130.855 121.553L130.531 116.816L130.113 110.706L135.819 108.483L140.243 106.76L138.751 102.253L136.826 96.4388L141.801 92.8662L145.657 90.0969L143.091 86.1028L139.781 80.9498L143.711 76.2524L146.757 72.6113L143.278 69.3806L138.791 65.2128L141.429 59.6856L143.474 55.4014L139.301 53.1372L133.918 50.2163L135.099 44.2067L136.014 39.5486L131.41 38.3932L125.469 36.9027L125.118 30.7884L124.846 26.049L120.099 26.0751L113.975 26.1087L112.114 20.2737L110.672 15.7509L106.08 16.9567L100.157 18.5123L96.9037 13.3233L94.3821 9.30124L90.2347 11.611L84.8841 14.5909L80.4427 10.374Z" fill="#ED5A41" stroke="#FFC12B" stroke-width="10"/>
</svg>
