<svg width="34" height="35" viewBox="0 0 34 35" fill="none" xmlns="http://www.w3.org/2000/svg">
<circle cx="17" cy="17.7625" r="17" fill="#1DA1F2"/>
<g clip-path="url(#clip0)">
<path d="M27.0853 11.7494C26.9841 11.6482 26.8154 11.6145 26.6804 11.6482L26.0056 11.8844C26.4105 11.4121 26.6804 10.906 26.8491 10.4337C26.9166 10.265 26.8828 10.1301 26.7816 10.0288C26.6804 9.92765 26.5117 9.8939 26.3767 9.96136C25.4321 10.3662 24.6224 10.7036 23.9476 10.906C23.9476 10.9397 23.9139 10.906 23.8801 10.906C23.3403 10.6024 22.0246 9.92761 21.0799 9.92761C18.6845 9.96136 16.7615 11.9856 16.7615 14.4485V14.5834C13.2528 13.9087 11.3297 12.8965 9.23796 10.7036L8.90065 10.3662L8.69822 10.7711C7.55114 12.964 8.36084 14.9545 9.67661 16.3041C9.06934 16.2029 8.66447 16.0004 8.29335 15.6968C8.15841 15.5956 7.98972 15.5618 7.82103 15.663C7.68608 15.7305 7.61859 15.9329 7.65234 16.1016C8.12466 17.6873 9.30549 18.9693 10.5875 19.7453C9.98024 19.7453 9.47417 19.6778 8.96811 19.3404C8.83316 19.2729 8.63073 19.2729 8.49578 19.3742C8.36084 19.4754 8.29335 19.6441 8.36084 19.8128C8.96811 21.5334 10.1489 22.4443 12.0383 22.6805C11.0599 23.254 9.77785 23.7264 7.78732 23.7601C7.58489 23.7601 7.4162 23.895 7.34874 24.0637C7.28125 24.2662 7.34874 24.4349 7.48369 24.5698C8.69826 25.5482 11.3972 26.1217 14.7373 26.1217C20.6751 26.1217 25.5334 20.8249 25.5334 14.3135V14.2123C26.2756 13.8412 26.8829 13.1327 27.1865 12.1543C27.2202 12.0193 27.1865 11.8506 27.0853 11.7494ZM25.061 13.6725L24.8586 13.74V14.3135C24.8586 20.4538 20.304 25.447 14.7372 25.447C11.6671 25.447 9.60912 24.9409 8.49578 24.4011C10.8237 24.2324 12.1732 23.4902 13.2191 22.6805L14.0625 22.0732H13.0504C11.1274 22.0732 9.94654 21.5334 9.27178 20.2514C9.87904 20.4538 10.5201 20.4538 11.2286 20.4201C11.4984 20.3863 11.7684 20.3863 12.0383 20.3863L12.1395 19.7116C10.8574 19.3404 9.33923 18.1933 8.59698 16.6414C9.27174 16.9451 10.0139 17.0126 10.6887 17.0126H11.7346L10.8912 16.4053C10.1827 15.8992 8.09095 14.1111 9.10309 11.547C11.2623 13.6725 13.3203 14.6509 17.0314 15.3256L17.4363 15.3931V14.4485C17.4363 12.3568 19.0557 10.6361 21.08 10.6024C21.8559 10.5686 23.138 11.2771 23.5091 11.4796C23.7115 11.5808 23.914 11.6145 24.1164 11.5471C24.6224 11.3784 25.2297 11.1422 25.9045 10.8723C25.6008 11.3784 25.1959 11.8507 24.6562 12.2893C24.5212 12.3905 24.4875 12.5929 24.555 12.7616C24.6225 12.9303 24.8249 12.9978 24.9936 12.9303L26.3093 12.4917C26.0731 12.9303 25.702 13.4363 25.061 13.6725Z" fill="white"/>
</g>
<defs>
<clipPath id="clip0">
<rect width="19.8769" height="19.8769" fill="white" transform="translate(7.32227 8.08545)"/>
</clipPath>
</defs>
</svg>
