<svg width="34" height="34" viewBox="0 0 34 34" fill="none" xmlns="http://www.w3.org/2000/svg">
<circle cx="17" cy="17" r="17" fill="#FF0000"/>
<path d="M21.0101 15.6658L15.9391 12.8912C15.6475 12.7317 15.3029 12.7376 15.0171 12.907C14.7311 13.0765 14.5605 13.376 14.5605 13.7083V19.21C14.5605 19.5408 14.7301 19.8397 15.0141 20.0094C15.1624 20.098 15.3269 20.1425 15.4917 20.1425C15.6426 20.1425 15.7939 20.1052 15.9332 20.0302L21.0043 17.3034C21.3054 17.1414 21.4933 16.8285 21.4947 16.4865C21.4959 16.1445 21.3103 15.8301 21.0101 15.6658ZM15.9057 18.5179V14.406L19.6956 16.4798L15.9057 18.5179Z" fill="white"/>
<path d="M28.7847 12.1033L28.7836 12.0928C28.7642 11.908 28.5707 10.2647 27.7718 9.42881C26.8483 8.44568 25.8015 8.32625 25.298 8.26899C25.2563 8.26426 25.2181 8.25988 25.184 8.25533L25.1439 8.25112C22.1094 8.03047 17.5266 8.00035 17.4808 8.00018L17.4767 8L17.4727 8.00018C17.4268 8.00035 12.8441 8.03047 9.78227 8.25112L9.74181 8.25533C9.70924 8.2597 9.67334 8.26373 9.63429 8.26829C9.13659 8.32573 8.10093 8.44533 7.17489 9.46401C6.41399 10.2909 6.19403 11.8991 6.17144 12.0798L6.16882 12.1033C6.16199 12.1801 6 14.0103 6 15.8477V17.5653C6 19.4027 6.16199 21.2329 6.16882 21.3099L6.17004 21.3215C6.18948 21.5032 6.38281 23.1165 7.17804 23.9527C8.04629 24.9029 9.14412 25.0286 9.73463 25.0962C9.82797 25.1069 9.90835 25.116 9.96317 25.1256L10.0162 25.133C11.7683 25.2997 17.2617 25.3818 17.4946 25.3851L17.5016 25.3853L17.5086 25.3851C17.5545 25.385 22.1371 25.3549 25.1716 25.1342L25.2117 25.13C25.25 25.1249 25.2931 25.1204 25.3404 25.1155C25.8353 25.0629 26.8653 24.9538 27.7786 23.949C28.5395 23.1219 28.7596 21.5137 28.782 21.3332L28.7847 21.3097C28.7915 21.2327 28.9536 19.4027 28.9536 17.5653V15.8477C28.9535 14.0103 28.7915 12.1803 28.7847 12.1033ZM27.6084 17.5653C27.6084 19.2659 27.4599 21.0173 27.4459 21.178C27.3888 21.6209 27.1567 22.6384 26.786 23.0413C26.2144 23.6702 25.6272 23.7325 25.1985 23.7779C25.1467 23.7833 25.0987 23.7886 25.0553 23.794C22.1202 24.0062 17.7105 24.0388 17.5074 24.04C17.2795 24.0367 11.8666 23.9539 10.1679 23.7961C10.0808 23.7819 9.98681 23.7711 9.88769 23.7598C9.38492 23.7022 8.69669 23.6234 8.16747 23.0413L8.15504 23.028C7.79079 22.6485 7.56541 21.6971 7.50814 21.1833C7.49746 21.0618 7.34511 19.2897 7.34511 17.5653V15.8477C7.34511 14.149 7.49326 12.3996 7.50762 12.2355C7.57574 11.7138 7.81215 10.758 8.16747 10.3717C8.75658 9.72372 9.37774 9.65192 9.78857 9.60446C9.8278 9.59991 9.8644 9.5957 9.8982 9.59133C12.876 9.37803 17.3174 9.34633 17.4767 9.34511C17.6361 9.34616 22.0759 9.37803 25.0273 9.59133C25.0635 9.59588 25.1031 9.60043 25.1456 9.60534C25.5682 9.65349 26.2069 9.72634 26.793 10.3515L26.7984 10.3573C27.1627 10.7368 27.3881 11.7049 27.4453 12.229C27.4555 12.3437 27.6084 14.1196 27.6084 15.8477V17.5653Z" fill="white"/>
</svg>
