<svg width="34" height="35" viewBox="0 0 34 35" fill="none" xmlns="http://www.w3.org/2000/svg">
<circle cx="17" cy="17.7625" r="17" fill="#E4405F"/>
<g clip-path="url(#clip0)">
<path d="M21.6787 7.5625H12.3229C9.27794 7.5625 6.80078 10.0397 6.80078 13.0846V22.4406C6.80078 25.4853 9.27794 27.9625 12.3229 27.9625H21.6788C24.7236 27.9625 27.2008 25.4853 27.2008 22.4406V13.0846C27.2008 10.0397 24.7236 7.5625 21.6787 7.5625V7.5625ZM26.0048 22.4406C26.0048 24.8259 24.0642 26.7666 21.6787 26.7666H12.3229C9.93739 26.7666 7.99672 24.8259 7.99672 22.4406V13.0846C7.99672 10.6991 9.93739 8.75844 12.3229 8.75844H21.6788C24.0642 8.75844 26.0048 10.6991 26.0048 13.0846V22.4406Z" fill="white"/>
<path d="M17.0018 12.1846C13.926 12.1846 11.4238 14.6868 11.4238 17.7625C11.4238 20.8383 13.926 23.3405 17.0018 23.3405C20.0775 23.3405 22.5798 20.8383 22.5798 17.7625C22.5798 14.6868 20.0775 12.1846 17.0018 12.1846ZM17.0018 22.1446C14.5856 22.1446 12.6198 20.1788 12.6198 17.7625C12.6198 15.3464 14.5856 13.3805 17.0018 13.3805C19.4181 13.3805 21.3838 15.3464 21.3838 17.7625C21.3838 20.1788 19.4181 22.1446 17.0018 22.1446Z" fill="white"/>
<path d="M22.7127 10.2036C21.8037 10.2036 21.0645 10.9431 21.0645 11.8518C21.0645 12.7608 21.8037 13.5002 22.7127 13.5002C23.6216 13.5002 24.3611 12.7608 24.3611 11.8518C24.3611 10.9429 23.6216 10.2036 22.7127 10.2036ZM22.7127 12.3041C22.4633 12.3041 22.2604 12.1012 22.2604 11.8518C22.2604 11.6023 22.4633 11.3995 22.7127 11.3995C22.9622 11.3995 23.1651 11.6023 23.1651 11.8518C23.1651 12.1012 22.9622 12.3041 22.7127 12.3041Z" fill="white"/>
</g>
<defs>
<clipPath id="clip0">
<rect width="20.4" height="20.4" fill="white" transform="translate(6.80078 7.5625)"/>
</clipPath>
</defs>
</svg>
