<svg id="Layer_1" data-name="Layer 1" xmlns="http://www.w3.org/2000/svg" xmlns:xlink="http://www.w3.org/1999/xlink" viewBox="0 0 1007.8 797.84"><defs><style>.cls-1{fill:none;}.cls-2{fill:#2c5e7a;}.cls-3{fill:url(#linear-gradient);}.cls-4{fill:#60a6cc;}.cls-5{clip-path:url(#clip-path);}.cls-6{fill:url(#linear-gradient-2);}.cls-7{fill:#26506c;}.cls-8{fill:url(#linear-gradient-3);}.cls-9{clip-path:url(#clip-path-2);}.cls-10{fill:url(#linear-gradient-4);}.cls-11{fill:#fcf6e1;stroke:#f6ded6;stroke-miterlimit:10;}.cls-12{clip-path:url(#clip-path-3);}.cls-13{fill:#f8e6e1;}.cls-14{fill:#f6ded6;}.cls-15{fill:#fffcf7;}.cls-16{fill:#a48864;}.cls-17{clip-path:url(#clip-path-4);}.cls-18{fill:url(#linear-gradient-5);}.cls-19{fill:url(#linear-gradient-6);}.cls-20{fill:#705333;}.cls-21{fill:#563d26;}.cls-22{clip-path:url(#clip-path-5);}.cls-23{fill:#dbdbdb;}.cls-24{fill:#c0bfb9;}.cls-25{fill:#363533;}.cls-26{fill:#21201f;}.cls-27{fill:#828687;}.cls-28{fill:#51504f;}.cls-29{fill:#383735;}.cls-30{fill:#1e1e1d;}.cls-31{fill:#666;}.cls-32{fill:#ef8c14;}.cls-33{fill:#c67720;}.cls-34{fill:gray;}.cls-35{fill:#4d4d4d;}.cls-36{fill:#a35f1a;}.cls-37{fill:#d37816;}.cls-38{fill:#fff;}.cls-39{fill:#6c7537;}</style><linearGradient id="linear-gradient" x1="-510.01" y1="315.97" x2="-446.49" y2="393.69" gradientTransform="matrix(-1, 0, 0, 1, -133.13, 0)" gradientUnits="userSpaceOnUse"><stop offset="0" stop-color="#153c51"/><stop offset="0.59" stop-color="#24526c"/><stop offset="1" stop-color="#2c5e7a"/></linearGradient><clipPath id="clip-path"><path class="cls-1" d="M226.93,440.77a211.72,211.72,0,0,0,46.57-9.24c41.33-13.16,67.27-35.37,73-40.45,4.39-3.87,17.91-19.81,44.94-51.69,23.71-27.95,32.18-36.3,46.07-48.32,5.86-5.07,9.47-13.51,15.81-16-10.73-4.63-21,.18-22,.41-8.15,1.88-9.93,7.66-34.86,30.71-17.58,16.25-17.4,15.6-23.87,22.09-13.92,14-22.45,24.77-26.71,29.82-17.22,20.47-40.47,34.86-87,63.64C250.52,426.93,239.74,433.44,226.93,440.77Z"/></clipPath><linearGradient id="linear-gradient-2" x1="-620.24" y1="307.83" x2="-502.54" y2="307.83" gradientTransform="matrix(-1, 0, 0, 1, -133.13, 0)" gradientUnits="userSpaceOnUse"><stop offset="0" stop-color="#60a6cc"/><stop offset="1" stop-color="#3688ad"/></linearGradient><linearGradient id="linear-gradient-3" x1="-629.99" y1="218.13" x2="-560.21" y2="363.54" gradientTransform="matrix(-1, 0, 0, 1, -133.13, 0)" gradientUnits="userSpaceOnUse"><stop offset="0" stop-color="#123649"/><stop offset="0.53" stop-color="#1e465e"/><stop offset="1" stop-color="#26506c"/></linearGradient><clipPath id="clip-path-2"><path class="cls-1" d="M572.56,314.15c4.65-1.28,9.63-1.62,14.37.14,11.2,4.17,11.13,16.38,22.5,19.86,10.34,3.16,22.62-3.14,29.12-9.27,8.37-7.88,10.08-18.91,14.56-18.53,4,.33,2.9,9.2,10.59,15.89,5.26,4.57,8.8,3.05,21.18,7.94,9.65,3.81,11.47,6.3,15.89,7.94,5.73,2.13,14.36,2.27,27.73-5.09-33.39-61.16-50.37-74.36-64.36-70.36-10.53,3-27.38,35.36-53.44,45C590.88,315,582.93,309.73,572.56,314.15Z"/></clipPath><linearGradient id="linear-gradient-4" x1="-722.46" y1="16.34" x2="-652.68" y2="161.75" xlink:href="#linear-gradient-2"/><clipPath id="clip-path-3"><path class="cls-1" d="M491.39,366s15.7,3.74,9.72,17.94-149.5,6-149.5,6-33.64-8.22-12-21.68,38.12.75,38.12.75,4.48-17.19,28.4-12c0,0-11.21-35.13,20.93-53.07S519.05,315.14,491.39,366Z"/></clipPath><clipPath id="clip-path-4"><path class="cls-1" d="M15.44,522.45s2.14-7.23,24.33-10.12S52.32,507.51,88,499.79s126.43-35.71,126.43-35.71,48.26-30.88,71.42-29,492.2,12.55,492.2,12.55,28,1.93,37.64,20.27c16.41,14.48,41.5,22.2,41.5,22.2s21.23,1,26.06,4.83,19.3,6.76,24.13,11.58S945,521,945,521h5.79l4.83,4.83s31.47,7.65,31.17,17.33L799.31,594.37,395.89,640.69Z"/></clipPath><linearGradient id="linear-gradient-5" x1="498.61" y1="406.87" x2="498.61" y2="571.84" gradientUnits="userSpaceOnUse"><stop offset="0" stop-color="#64ad43"/><stop offset="0.43" stop-color="#799b50"/><stop offset="1" stop-color="#9c7d65"/></linearGradient><linearGradient id="linear-gradient-6" x1="493.92" y1="745.29" x2="493.92" y2="514.98" gradientUnits="userSpaceOnUse"><stop offset="0" stop-color="#48371e"/><stop offset="0.52" stop-color="#6d5533"/><stop offset="1" stop-color="#836644"/></linearGradient><clipPath id="clip-path-5"><path class="cls-1" d="M8,524.6s9.07-9.07,38.21-1.94,90.66,7.12,90.66,7.12,10.36-7.12,33-9.71,41.45-7.12,64.11-3.89c0,0-42.74,7.12-45.33,9.71s-27.85,16.84-27.85,16.84,73.18,0,88.07,8.42,38.21,24.61,47.27,24.61,40.8,5.83,56.34,14.89,82.89-6.48,90.66-.65,2.59-7.77,47.27,0,87.43,8.42,92,15.54l11,1.3,9.07-37.56,3.24,32.38s20.08,1.94,27.2-1.94,6.48-16.19,23.31-15.54,47.27-3.24,55,0,31.08,1.94,37.56-2.59S778,576.41,778,576.41s-9.71-6.48,10.36-15.54l20.08-9.07,1.3-21.37s16.19,10.36,27.85,9.71,53.1,1.3,59.58-3.24,84.83,0,82.24,8.42c0,0-2.59,5.18-11,5.83,0,0,0,6.48-16.84,8.42s-49.86,24-49.86,24l-2.59,4.53-14.25,2.59v5.18s-62.82,13-75.12,32.38c0,0-20.72,2.59-27.85,15.54s-17.49-5.18-44,13-28.49-5.83-66.7-4.53l-7.77-5.83-5.18,7.12s-68,1.3-84.83,36.27l-9.71.65,6.48,15.54-4.53,6.48s-8.42,3.24-7.12,9.71l-14.89,20.72a11.34,11.34,0,0,1-15.54-1.3c-7.77-7.77-4.53-24.61-29.14-33l-24.61-8.42s0-5.83-14.25-4.53-60.87-7.77-60.87-7.77l-4.53-12.3-8.42,5.83s-14.89-11-46.63-11l-13,1.3-12.3-13s-85.48-18.13-103.61-38.21c0,0-24-7.77-35-2.59l-3.24-7.77-7.12,6.48L133,600.37l-15.54,1.94s-42.09-22.67-46-29.14l-3.89-6.48s-14.89-1.3-18.13-8.42S23.56,546,23.56,546Z"/></clipPath></defs><title>Object</title><path class="cls-2" d="M646.15,444.52c-29.44-21.73-59.79-45.32-90.73-70.91-35.24-29.14-71.69-38.87-78.42-68.2-1.3-5.66-3-18.06-13-25.65-11.87-9.08-28-5.58-29.22-5.3-8.15,1.89-11,5.5-35.93,28.55-17.58,16.25-17.4,15.6-23.87,22.09-13.93,14-22.46,24.76-26.71,29.82-17.22,20.47-40.47,34.86-87,63.64-12,7.45-28.92,17.57-49.69,28.93Z"/><path class="cls-3" d="M226.72,440.34a211.72,211.72,0,0,0,46.57-9.24c41.33-13.16,67.27-35.37,73-40.45,4.39-3.87,17.91-19.81,44.94-51.69C415,311,422.53,301.53,437.33,290.66a160.9,160.9,0,0,1,18.2-11.56c-10.73-4.63-22.33-2.11-23.33-1.88-8.15,1.88-11,5.5-35.93,28.55-17.58,16.25-17.4,15.6-23.87,22.09-13.92,14-22.45,24.77-26.71,29.82-17.22,20.47-40.47,34.86-87,63.64C250.31,426.51,239.53,433,226.72,440.34Z"/><path class="cls-4" d="M369.2,331c18.09,11.59,27,11.55,31.76,8.59,4.22-2.62,6-8.2,13.88-10.67,5.8-1.82,8.93-.17,12.82-3.21,4.49-3.51,3.37-8.09,7.47-10.67,3.26-2.05,7.55-1.42,11.3-.15-.71-1.33-.69-1.56.44.15l-.44-.15c2,3.74,10,16.23,15.4,18.3,7.72,3,16.43-2.52,19.21-4.27a32,32,0,0,0,5.86-4.75,41.94,41.94,0,0,1-10-18.75c-1.3-5.66-3-18.06-13-25.65-11.87-9.08-28-5.58-29.22-5.3-8.15,1.88-11,5.5-35.93,28.55-17.58,16.25-17.4,15.6-23.86,22.09Q371.9,328.15,369.2,331Z"/><g class="cls-5"><path class="cls-6" d="M369.41,331.42C387.5,343,396.41,343,401.17,340c4.22-2.62,6-8.2,13.88-10.67,5.8-1.82,8.93-.17,12.82-3.21,4.49-3.51,3.37-8.09,7.47-10.67,3.26-2.05,7.55-1.42,11.3-.15-.71-1.33-.69-1.56.44.15l-.44-.15c2,3.74,10,16.23,15.4,18.3,7.72,3,16.43-2.52,19.21-4.27a32,32,0,0,0,5.86-4.75,41.94,41.94,0,0,1-10-18.75c-1.3-5.66-3-18.06-13-25.65-11.87-9.08-28-5.58-29.22-5.3-8.15,1.88-11,5.5-35.93,28.55-17.58,16.25-17.4,15.6-23.86,22.09Q372.11,328.57,369.41,331.42Z"/></g><path class="cls-7" d="M182.62,453.27a273.17,273.17,0,0,0,44.94-10.59c64.57-21.1,74-35.63,112.95-34.42,33.26,1,48,12.55,83.8,15.88,45.81,4.27,83.88-2.65,104.44-51.62,6.59-15.7,22.54-43.46,36.43-54.27,14.4-11.21,21.07-1.76,44.94-10.59,26.05-9.64,42.91-42,53.44-45C684,256.81,710.89,287.78,786.21,452Z"/><path class="cls-8" d="M183.2,453.28l322-.7c32.83-20.7,46.6-42.33,52.58-60.19,5.83-17.4,8.46-43.7,27.8-52.95,8.69-4.14,11.38-.38,25.15-4,3.31-.87,32.3-8.83,46.33-33.1,9.47-16.37,6.5-30.44,11.13-40.36a16.78,16.78,0,0,0-4.08.65c-10.53,3-27.38,35.37-53.44,45-23.87,8.84-30.53-.62-44.93,10.59-13.89,10.81-29.84,38.57-36.43,54.27-20.57,49-58.63,55.89-104.45,51.62-35.75-3.34-50.54-14.84-83.79-15.89-38.92-1.22-48.37,13.31-113,34.42A273.39,273.39,0,0,1,183.2,453.28Z"/><path class="cls-4" d="M572.56,314.15c4.65-1.28,9.63-1.62,14.37.14,11.2,4.17,11.13,16.38,22.5,19.86,10.34,3.16,22.62-3.14,29.12-9.27,8.37-7.88,10.08-18.91,14.56-18.53,4,.33,2.9,9.2,10.59,15.89,5.26,4.57,8.8,3.05,21.18,7.94,9.65,3.81,11.47,6.3,15.89,7.94,5.73,2.13,14.36,2.27,27.73-5.09-33.39-61.16-50.37-74.36-64.36-70.36-10.53,3-27.38,35.36-53.44,45C590.88,315,582.93,309.73,572.56,314.15Z"/><g class="cls-9"><path class="cls-10" d="M183,453.28l322-.7c32.83-20.7,46.6-42.33,52.58-60.19,5.83-17.4,8.46-43.7,27.8-52.95,8.69-4.14,11.38-.38,25.15-4,3.31-.87,19.92-12.68,33.95-37,9.47-16.37,18.88-26.59,23.51-36.51a16.78,16.78,0,0,0-4.08.65c-10.53,3-27.38,35.37-53.44,45-23.87,8.84-30.53-.62-44.93,10.59-13.89,10.81-29.84,38.57-36.43,54.27-20.57,49-58.63,55.89-104.45,51.62-35.75-3.34-50.54-14.84-83.79-15.89-38.92-1.22-48.37,13.31-113,34.42A273.39,273.39,0,0,1,183,453.28Z"/></g><path class="cls-11" d="M491.32,365.41s15.7,3.74,9.72,17.94-149.5,6-149.5,6-33.64-8.22-12-21.68,38.12.75,38.12.75,4.48-17.19,28.4-12c0,0-11.21-35.13,20.93-53.07S519,314.58,491.32,365.41Z"/><g class="cls-12"><path class="cls-13" d="M464.49,291.22s41.11,32.14,1.49,65c-19.43,16.44-38.87,9.72-38.87,9.72s-15.7,25.41-42.61,9c0,0-26.91,20.18-53.07-6L324,386.15,383,407.08l130.06-14.2-3-74Z"/></g><path class="cls-14" d="M426.48,392.36a105,105,0,0,1,9.92-22.78A87.51,87.51,0,0,1,451.72,350a64.63,64.63,0,0,1,9.81-7.74c1.73-1.17,3.6-2.12,5.43-3.12s3.77-1.8,5.75-2.49,4-1.26,6-1.86a60.27,60.27,0,0,1,6.15-1.13,62.65,62.65,0,0,1,12.45-.4v.1l-3.11.07a28.47,28.47,0,0,0-3.09.17l-3.08.27c-1,.11-2,.32-3.06.47-2,.27-4,.84-6,1.28-2,.64-4,1.14-5.84,2s-3.79,1.58-5.66,2.44-3.64,1.91-5.35,3.06a63.73,63.73,0,0,0-9.79,7.49,86.87,86.87,0,0,0-15.43,19.27,104.76,104.76,0,0,0-10.26,22.55Z"/><path class="cls-15" d="M467,315.84s-.72,15.16-18.05,20.22-32.49,8.66-36.82,0S433,292.74,467,315.84Z"/><path class="cls-14" d="M409.15,392.38a76.6,76.6,0,0,1-.22-14.18,90.91,90.91,0,0,1,6.32-27.62,86.17,86.17,0,0,1,6.43-12.69c1.21-2,2.59-4,4-5.93s2.87-3.79,4.48-5.55,3.24-3.48,4.92-5.16c.84-.84,1.76-1.6,2.63-2.41s1.75-1.61,2.7-2.32a101.09,101.09,0,0,1,24.41-14.44l0,.09A117.69,117.69,0,0,0,441,317.29c-.94.71-1.8,1.52-2.67,2.3s-1.78,1.54-2.6,2.38c-1.66,1.67-3.35,3.3-4.87,5.1s-3,3.6-4.5,5.42-2.77,3.8-4,5.82a85.43,85.43,0,0,0-6.51,12.52,92.51,92.51,0,0,0-6.62,27.39,76.43,76.43,0,0,0,0,14.15Z"/><path class="cls-16" d="M12.84,522.67s2.14-7.23,24.33-10.12S49.72,507.72,85.43,500s126.43-35.71,126.43-35.71,48.26-30.88,71.42-29,492.2,12.55,492.2,12.55,28,1.93,37.64,20.27c16.41,14.48,41.5,22.2,41.5,22.2s21.23,1,26.06,4.83,19.3,6.76,24.13,11.58,37.64,14.48,37.64,14.48h5.79l4.83,4.83s31.47,7.65,31.17,17.33L796.71,594.58,393.3,640.91Z"/><g class="cls-17"><path class="cls-18" d="M108.23,443.39,90,465.86s-15.45,40.73,23.88,43.54,67.42-8.43,96.92,2.81,30.9,36.52,61.8,36.52,64.61-50.56,111-44.95S417.23,560,458,567s105.34,5.62,134.84-9.83,47.76,11.24,64.61,14,59-2.81,68.82-35.11,12.64-14,56.18-35.11,56.18,4.21,84.27,9.83S910.24,494,910.24,494l-29.5-87.08Z"/></g><path class="cls-19" d="M8.19,524.52s9.07-9.07,38.21-1.94,90.66,7.12,90.66,7.12,10.36-7.12,33-9.71,41.45-7.12,64.11-3.89c0,0-42.74,7.12-45.33,9.71S161,542.65,161,542.65s73.18,0,88.07,8.42,38.21,24.61,47.27,24.61,40.8,5.83,56.34,14.89,82.89-6.48,90.66-.65,2.59-7.77,47.27,0,87.43,8.42,92,15.54l11,1.3,9.07-37.56,3.24,32.38s20.08,1.94,27.2-1.94,6.48-16.19,23.31-15.54,47.27-3.24,55,0S742.56,586,749,581.51s29.14-5.18,29.14-5.18-9.71-6.48,10.36-15.54l20.08-9.07,1.3-21.37s16.19,10.36,27.85,9.71,53.1,1.3,59.58-3.24,84.83,0,82.24,8.42c0,0-2.59,5.18-11,5.83,0,0,0,6.48-16.84,8.42s-49.86,24-49.86,24L899.28,588,885,590.58v5.18s-62.82,13-75.12,32.38c0,0-20.72,2.59-27.85,15.54s-17.49-5.18-44,13-28.49-5.83-66.7-4.53l-7.77-5.83-5.18,7.12s-68,1.3-84.83,36.27l-9.71.65,6.48,15.54-4.53,6.48s-8.42,3.24-7.12,9.71l-14.89,20.72a11.34,11.34,0,0,1-15.54-1.3c-7.77-7.77-4.53-24.61-29.14-33L474.46,700s0-5.83-14.25-4.53-60.87-7.77-60.87-7.77l-4.53-12.3-8.42,5.83s-14.89-11-46.63-11l-13,1.3-12.3-13S229,640.44,210.89,620.37c0,0-24-7.77-35-2.59L172.68,610l-7.12,6.48-32.38-16.19-15.54,1.94s-42.09-22.67-46-29.14l-3.89-6.48s-14.89-1.3-18.13-8.42-25.9-12.3-25.9-12.3Z"/><path class="cls-20" d="M8.16,524.52a13.31,13.31,0,0,1,3.49-2.12l.94-.4,1-.34a19.81,19.81,0,0,1,2-.59,19.17,19.17,0,0,1,2-.45c.67-.13,1.33-.28,2-.34l2-.25,2-.12a70.07,70.07,0,0,1,16.23,1.25c1.35.2,2.67.52,4,.81l4,.87,4,.86c1.33.27,2.68.47,4,.7,5.35.93,10.76,1.56,16.16,2.15,10.81,1.13,21.67,1.8,32.53,2.28s21.73.75,32.6.8h0a54.69,54.69,0,0,1,11.3-5.07,96.19,96.19,0,0,1,12-3.14c2-.42,4.07-.73,6.11-1s4.1-.54,6.15-.78c4.1-.5,8.19-1.06,12.28-1.64,8.18-1.14,16.37-2.29,24.62-2.81,4.13-.25,8.26-.33,12.4-.22s8.25.51,12.35,1.06l.78.11-.78.13q-9.74,1.65-19.44,3.47c-6.47,1.23-12.93,2.48-19.33,4-1.59.4-3.19.82-4.74,1.35a10.88,10.88,0,0,0-1.13.46,3.8,3.8,0,0,0-1,.68,23.52,23.52,0,0,1-2,1.46c-2.75,1.82-5.57,3.52-8.4,5.21-5.66,3.37-11.37,6.65-17.1,9.9l-.08-.29c18.12.11,36.25.64,54.32,2.09,4.52.37,9,.82,13.52,1.41a116.67,116.67,0,0,1,13.39,2.41,30.69,30.69,0,0,1,6.44,2.25c2,1.07,3.94,2.24,5.9,3.4l11.62,7.05c3.87,2.35,7.75,4.68,11.7,6.89a101.39,101.39,0,0,0,12.16,6,21.09,21.09,0,0,0,6.51,1.51,65.86,65.86,0,0,1,6.79.56c4.5.57,9,1.37,13.41,2.29a171.77,171.77,0,0,1,26.15,7.44l3.15,1.28,3.1,1.42c1,.48,2,1.06,3,1.58a17.5,17.5,0,0,0,3,1.41,32.25,32.25,0,0,0,6.6,1.36c2.24.26,4.5.37,6.76.42a247.16,247.16,0,0,0,27.1-1.46c9-.86,18-1.93,27-2.72a135.86,135.86,0,0,1,13.59-.66c1.14,0,2.27.08,3.41.22a10.24,10.24,0,0,1,3.33.89,10.34,10.34,0,0,0,2.91,1.62,4.79,4.79,0,0,0,3.16-.54,32.91,32.91,0,0,1,6.44-2.24,43.06,43.06,0,0,1,6.75-.93,89.87,89.87,0,0,1,13.6.32c9,.79,17.93,2.7,26.89,4s17.94,2.48,26.94,3.53,18,2,27,3.17c4.49.58,9,1.21,13.44,2.06a65.54,65.54,0,0,1,6.62,1.6c.54.18,1.09.33,1.61.55a13.86,13.86,0,0,1,1.57.67,6.69,6.69,0,0,1,2.73,2.09l-.11-.07,11,1.3-.16.11,9.08-37.56.18-.75.08.76L606,601.57l-.11-.11c3.74.32,7.5.49,11.26.48a61.5,61.5,0,0,0,11.21-.9,14.94,14.94,0,0,0,5.23-1.89,14.56,14.56,0,0,0,3.85-4c1.08-1.53,2.06-3.15,3.24-4.63a17.71,17.71,0,0,1,4.1-3.89A19.3,19.3,0,0,1,655.69,584c3.76.07,7.52.09,11.28,0,7.52-.24,15-.71,22.55-1,3.76-.15,7.52-.28,11.29-.22.94,0,1.88,0,2.82.08s1.88.1,2.82.2a20.72,20.72,0,0,1,5.52,1.18,38,38,0,0,0,11.1,1.6,86.65,86.65,0,0,0,11.26-.45,53.84,53.84,0,0,0,11-2.19,11.48,11.48,0,0,0,1.31-.5A8.76,8.76,0,0,0,748,582l2.45-1.41a29.73,29.73,0,0,1,5.36-1.78,86.82,86.82,0,0,1,11.15-1.8q5.62-.59,11.26-.8l0,.16a6.18,6.18,0,0,1-1.83-2.14,5.55,5.55,0,0,1-.48-1.34,4.88,4.88,0,0,1,0-1.42,8.56,8.56,0,0,1,2.84-4.76,37.79,37.79,0,0,1,9.51-5.88l20.41-9.24-.06.09,1.29-21.37v-.18l.16.1A73.74,73.74,0,0,0,829.83,539a31.76,31.76,0,0,0,5.36.88c.9.07,1.81,0,2.71,0s1.82-.07,2.73-.09c3.64-.07,7.28-.05,10.92,0,7.28,0,14.55.06,21.82-.1,3.64-.08,7.27-.21,10.9-.47,1.81-.13,3.62-.29,5.42-.52a34.76,34.76,0,0,0,5.33-1,9.07,9.07,0,0,0,2.46-1.09,9.35,9.35,0,0,1,2.64-.8,49.45,49.45,0,0,1,5.44-.61c3.64-.24,7.28-.29,10.92-.28,7.28,0,14.56.36,21.82.86S952.8,537,960,538c3.6.54,7.19,1.15,10.74,2a40.18,40.18,0,0,1,5.24,1.6,12.57,12.57,0,0,1,2.46,1.25,4,4,0,0,1,1,1,1.67,1.67,0,0,1,.27,1.43v0h0a9.6,9.6,0,0,1-2.13,2.5,13.52,13.52,0,0,1-2.73,1.79,16.19,16.19,0,0,1-3.07,1.11c-.52.15-1.07.22-1.6.33s-1.08.13-1.62.19l.15-.17a6.24,6.24,0,0,1-2.61,4,16.23,16.23,0,0,1-4.16,2.3,38.26,38.26,0,0,1-9.21,2.19c-.79.1-1.56.23-2.33.37s-1.55.24-2.31.44l-2.27.62-1.13.32-1.11.39c-1.49.51-3,1-4.42,1.63l-2.19.88-2.15,1c-5.74,2.58-11.3,5.53-16.78,8.63s-10.85,6.39-16.11,9.84l.06-.06-2.59,4.53,0,.08-.09,0-14.25,2.59.16-.19v5.34l-.16,0c-6.76,1.45-13.48,3.15-20.15,5s-13.27,3.95-19.78,6.31a151.66,151.66,0,0,0-19,8.24,66.26,66.26,0,0,0-8.79,5.45,29.63,29.63,0,0,0-7.22,7.28l-.06.09-.11,0a56.2,56.2,0,0,0-9.13,2.18,45.39,45.39,0,0,0-8.59,3.76,29.24,29.24,0,0,0-7.3,5.79l-.75.89a6,6,0,0,0-.7.93l-1.26,2a10.71,10.71,0,0,1-3.07,3.66,8.17,8.17,0,0,1-4.55,1.44,31.64,31.64,0,0,1-4.74-.27,52.59,52.59,0,0,0-9.37-.44,36.3,36.3,0,0,0-9.17,1.8,49.27,49.27,0,0,0-8.54,3.87c-2.74,1.52-5.26,3.41-8,5a36.06,36.06,0,0,1-8.64,3.87,20.85,20.85,0,0,1-9.44.5,41.77,41.77,0,0,1-9-3c-2.89-1.24-5.76-2.54-8.69-3.64a67.2,67.2,0,0,0-9-2.74,68.61,68.61,0,0,0-9.29-1.43,87.06,87.06,0,0,0-9.4-.22h-.08l-.06,0-7.77-5.83.33,0-5.18,7.12-.07.09h-.12a183.9,183.9,0,0,0-23.88,2.51,154.89,154.89,0,0,0-23.31,5.73,88.71,88.71,0,0,0-21.56,10.36,45.92,45.92,0,0,0-15.88,17.54l-.06.13h-.14l-9.71.65.2-.33,6.48,15.54.05.12-.08.11L566,712.46l0,.06-.07,0a16.08,16.08,0,0,0-2.82,1.53,12.32,12.32,0,0,0-2.42,2.09,8.09,8.09,0,0,0-1.58,2.72,6.86,6.86,0,0,0-.15,3.11l0,.11-.06.08L543.95,742.9l0,0,0,0a12.91,12.91,0,0,1-5.12,2.35,10.69,10.69,0,0,1-5.61-.34,12.9,12.9,0,0,1-4.76-3,7.75,7.75,0,0,1-1-1,13.41,13.41,0,0,1-.9-1.09,21.59,21.59,0,0,1-1.46-2.41c-1.74-3.32-2.85-6.88-4.43-10.22a33.3,33.3,0,0,0-6.06-9.17,32.38,32.38,0,0,0-8.87-6.49l-2.48-1.23-2.58-1c-1.7-.7-3.48-1.26-5.23-1.87l-21.06-7.2-.15-.05,0-.18a3.38,3.38,0,0,0-1-2,6.11,6.11,0,0,0-1.92-1.3,15.1,15.1,0,0,0-4.62-1.11c-3.2-.3-6.4.15-9.67.19a173.48,173.48,0,0,1-19.37-1.63c-6.42-.83-12.83-1.81-19.21-2.86s-12.76-2.2-19.12-3.42l-.13,0,0-.13-4.53-12.31.35.11-8.42,5.82-.13.09-.14-.09a52,52,0,0,0-10.82-5.27,88,88,0,0,0-11.62-3.31l-3-.59c-1-.19-2-.32-3-.48-2-.35-4-.52-6-.75s-4-.29-6-.44l-6.05-.15h0l-13,1.29h-.1l-.07-.07-12.3-13,.1.06q-13.61-3-27.07-6.56c-9-2.37-17.9-4.94-26.75-7.76s-17.61-5.93-26.16-9.58A130.77,130.77,0,0,1,222,628.74a47.38,47.38,0,0,1-11.18-8.28l.06,0c-2.83-.89-5.71-1.63-8.6-2.28s-5.82-1.18-8.76-1.56a52.55,52.55,0,0,0-8.87-.49,22.92,22.92,0,0,0-8.64,1.72l-.12.05,0-.12L172.57,610l.19,0-7.13,6.47-.06.05-.07,0-32.37-16.2h.06l-15.54,1.94h-.05c-9.1-5-18.13-10.05-27-15.42-4.42-2.7-8.82-5.44-13-8.46-1.05-.76-2.09-1.54-3.09-2.37a15.37,15.37,0,0,1-2.75-2.76c-1.37-2.21-2.67-4.44-4-6.66l0,0a39.54,39.54,0,0,1-12.07-3.12,14.2,14.2,0,0,1-5-3.66A28.73,28.73,0,0,1,49,557.25a11.16,11.16,0,0,0-2.18-2.2,30,30,0,0,0-5.36-3.16c-1.88-.9-3.82-1.67-5.77-2.39a113.23,113.23,0,0,0-12-3.57h0Zm0,0,15.55,21.35h0a113.31,113.31,0,0,1,12,3.56c2,.72,3.9,1.48,5.78,2.38A30.06,30.06,0,0,1,46.89,555a11.27,11.27,0,0,1,2.21,2.22,28.79,28.79,0,0,0,1.66,2.64,14.1,14.1,0,0,0,5,3.63,39.43,39.43,0,0,0,12,3.1h0l0,0c1.34,2.21,2.65,4.45,4,6.65A15.28,15.28,0,0,0,74.56,576c1,.82,2,1.6,3.08,2.36,4.21,3,8.61,5.75,13,8.45,8.87,5.36,17.89,10.45,27,15.39h-.05l15.54-2h.06l32.39,16.17-.13,0,7.12-6.48.12-.11.06.16,3.24,7.77-.17-.06a23.15,23.15,0,0,1,8.73-1.75,52.8,52.8,0,0,1,8.91.48q4.43.56,8.79,1.55c2.9.65,5.78,1.39,8.63,2.28h0l0,0a47.12,47.12,0,0,0,11.12,8.21,130.46,130.46,0,0,0,12.49,6.1c8.54,3.64,17.3,6.71,26.14,9.54s17.77,5.36,26.74,7.73,18,4.56,27.06,6.54h.06l0,0L327,671.39l-.16-.06,13-1.3h0l6.07.14c2,.15,4,.22,6.06.44s4,.4,6,.75c1,.16,2,.29,3,.48l3,.59a88.4,88.4,0,0,1,11.69,3.31c1.9.71,3.79,1.46,5.61,2.34a38.69,38.69,0,0,1,5.32,3h-.27l8.42-5.83.25-.17.1.28,4.54,12.3-.18-.15q9.53,1.82,19.11,3.39c6.38,1.05,12.78,2,19.2,2.86A173.11,173.11,0,0,0,457,695.36c3.2,0,6.46-.5,9.72-.19a15.57,15.57,0,0,1,4.78,1.15,6.59,6.59,0,0,1,2.07,1.4,3.81,3.81,0,0,1,1.14,2.3l-.17-.23L495.6,707c1.75.61,3.52,1.17,5.25,1.88l2.6,1,2.5,1.25a32.86,32.86,0,0,1,9,6.59,33.79,33.79,0,0,1,6.15,9.3c1.59,3.37,2.71,6.94,4.41,10.2a21,21,0,0,0,1.42,2.35,12.93,12.93,0,0,0,.87,1.06,7.35,7.35,0,0,0,.94,1,12.41,12.41,0,0,0,4.59,2.87,10.2,10.2,0,0,0,5.36.33,12.46,12.46,0,0,0,4.91-2.24l0,0,14.9-20.72,0,.19a7.35,7.35,0,0,1,.17-3.35,8.57,8.57,0,0,1,1.68-2.89,12.79,12.79,0,0,1,2.51-2.17,16.51,16.51,0,0,1,2.92-1.58l-.11.09,4.53-6.48,0,.23L563.6,690.4l-.13-.31.33,0,9.71-.65-.2.13a46.39,46.39,0,0,1,16-17.73A89.17,89.17,0,0,1,611,661.42a155.35,155.35,0,0,1,23.38-5.74,184.33,184.33,0,0,1,23.95-2.51l-.18.1,5.18-7.12.14-.19.19.14,7.77,5.83-.15,0a87.52,87.52,0,0,1,9.46.22,69.08,69.08,0,0,1,9.35,1.44,67.65,67.65,0,0,1,9,2.76c3,1.11,5.83,2.41,8.71,3.65a41.35,41.35,0,0,0,8.89,2.95,20.38,20.38,0,0,0,9.24-.49,35.62,35.62,0,0,0,8.53-3.82c2.69-1.59,5.23-3.49,8-5a49.71,49.71,0,0,1,8.62-3.91,36.76,36.76,0,0,1,9.29-1.83,53,53,0,0,1,9.45.44,31.26,31.26,0,0,0,4.67.27,7.71,7.71,0,0,0,4.31-1.35,10.27,10.27,0,0,0,2.94-3.51l1.29-2a6.19,6.19,0,0,1,.72-.95l.77-.91A29.69,29.69,0,0,1,792,633.9a45.84,45.84,0,0,1,8.67-3.79,56.53,56.53,0,0,1,9.21-2.2l-.16.1a30.05,30.05,0,0,1,7.33-7.4,66.68,66.68,0,0,1,8.85-5.48A152.08,152.08,0,0,1,845,606.89c6.52-2.36,13.14-4.43,19.81-6.3s13.4-3.57,20.18-5l-.16.19v-5.35l.16,0,14.25-2.59-.13.09,2.59-4.53,0,0,0,0q7.91-5.18,16.14-9.84c5.48-3.1,11.06-6.05,16.81-8.64l2.16-1,2.19-.88c1.45-.62,2.95-1.13,4.44-1.64l1.12-.39,1.14-.32L948,560c.77-.2,1.56-.29,2.33-.44s1.56-.28,2.34-.37a37.94,37.94,0,0,0,9.13-2.16,15.9,15.9,0,0,0,4.08-2.24,8.48,8.48,0,0,0,1.62-1.64,4.47,4.47,0,0,0,.86-2.06v-.15l.14,0,1.59-.19c.52-.11,1.05-.18,1.57-.32a15.87,15.87,0,0,0,3-1.08,13.19,13.19,0,0,0,2.66-1.75,9.32,9.32,0,0,0,2-2.4v0c.25-.82-.47-1.56-1.17-2a12.27,12.27,0,0,0-2.4-1.21,39.9,39.9,0,0,0-5.19-1.59c-3.53-.86-7.11-1.48-10.71-2-7.19-1.06-14.44-1.76-21.69-2.28s-14.53-.83-21.8-.88c-3.64,0-7.27,0-10.9.27a49.18,49.18,0,0,0-5.4.6,9.15,9.15,0,0,0-2.56.77,9.37,9.37,0,0,1-2.51,1.11,35,35,0,0,1-5.37,1c-1.81.24-3.62.39-5.44.52-3.63.26-7.27.38-10.91.46-7.28.16-14.56.11-21.83.08-3.64,0-7.28,0-10.91,0-.91,0-1.82,0-2.72.09s-1.83,0-2.74,0a32,32,0,0,1-5.4-.89,74,74,0,0,1-19.92-8.82l.17-.09-1.3,21.37v.06l-.06,0L788.24,561a37.63,37.63,0,0,0-9.47,5.84,8.39,8.39,0,0,0-2.79,4.65,4.71,4.71,0,0,0,0,1.37,5.37,5.37,0,0,0,.46,1.29,6,6,0,0,0,1.77,2.07l.21.15h-.25q-5.64.2-11.25.79A86.67,86.67,0,0,0,755.8,579a29.6,29.6,0,0,0-5.33,1.77L748,582.18a8.88,8.88,0,0,1-1.28.6,11.6,11.6,0,0,1-1.32.51,54.23,54.23,0,0,1-11.07,2.2,86.81,86.81,0,0,1-11.28.46,38.18,38.18,0,0,1-11.16-1.6,20.54,20.54,0,0,0-5.48-1.16c-.93-.1-1.87-.17-2.81-.19s-1.88-.09-2.82-.08c-3.76-.06-7.52.07-11.28.23-7.52.31-15,.79-22.55,1-3.76.13-7.53.11-11.29,0a19.1,19.1,0,0,0-10.75,2.6,17.49,17.49,0,0,0-4,3.85c-1.17,1.47-2.14,3.08-3.23,4.62a14.76,14.76,0,0,1-3.91,4.07,15.16,15.16,0,0,1-5.31,1.92,61.7,61.7,0,0,1-11.26.91q-5.65,0-11.29-.48h-.1v-.1l-3.25-32.38.26,0-9.05,37.56,0,.12h-.13l-11-1.29h-.07l0-.06a6.43,6.43,0,0,0-2.61-2,13.61,13.61,0,0,0-1.55-.66c-.52-.21-1.06-.37-1.6-.55a65.23,65.23,0,0,0-6.59-1.58c-4.44-.85-8.93-1.48-13.42-2.05-9-1.14-18-2.09-27-3.15s-18-2.18-27-3.52-17.85-3.18-26.87-4a89.53,89.53,0,0,0-13.54-.32,42.7,42.7,0,0,0-6.69.93,32.54,32.54,0,0,0-6.37,2.23,5.15,5.15,0,0,1-3.4.56,10.48,10.48,0,0,1-3-1.65,9.92,9.92,0,0,0-3.2-.84c-1.11-.14-2.24-.19-3.37-.22a135.57,135.57,0,0,0-13.55.66c-9,.8-18,1.87-27,2.74a247.54,247.54,0,0,1-27.15,1.48c-2.27-.05-4.54-.16-6.8-.42a32.66,32.66,0,0,1-6.69-1.38,18,18,0,0,1-3.11-1.44c-1-.52-2-1.1-3-1.57l-3.08-1.41-3.14-1.28a173.5,173.5,0,0,0-26.08-7.41c-4.43-.92-8.89-1.73-13.37-2.3a65.49,65.49,0,0,0-6.74-.56,21.47,21.47,0,0,1-6.66-1.55,101.75,101.75,0,0,1-12.21-6c-4-2.21-7.84-4.56-11.71-6.91l-11.61-7.06c-1.95-1.15-3.89-2.33-5.87-3.39a30.35,30.35,0,0,0-6.36-2.23,116.31,116.31,0,0,0-13.34-2.42c-4.49-.59-9-1-13.5-1.42-18.05-1.46-36.18-2-54.29-2.13h-.57l.5-.28c5.73-3.24,11.44-6.52,17.1-9.89,2.82-1.69,5.65-3.38,8.39-5.19a23.38,23.38,0,0,0,2-1.43,4.2,4.2,0,0,1,1-.72,11.12,11.12,0,0,1,1.16-.47c1.57-.54,3.16-1,4.76-1.35,6.4-1.56,12.87-2.8,19.34-4s13-2.36,19.45-3.45v.24c-4.09-.55-8.2-.92-12.33-1.07s-8.25,0-12.37.21c-8.24.51-16.43,1.65-24.61,2.79-4.09.57-8.18,1.13-12.29,1.63-2.05.24-4.1.51-6.15.77s-4.08.62-6.1,1a96,96,0,0,0-12,3.13,54.57,54.57,0,0,0-11.26,5h0q-16.31-.08-32.61-.83c-10.86-.49-21.72-1.17-32.53-2.31-5.4-.6-10.81-1.23-16.16-2.16-1.34-.24-2.68-.44-4-.71l-4-.86-4-.87c-1.33-.29-2.65-.61-4-.81A70,70,0,0,0,23.57,520l-2,.12-2,.25c-.68.07-1.34.21-2,.34a19.1,19.1,0,0,0-2,.45,19.76,19.76,0,0,0-1.95.58l-1,.33-.94.4A14.1,14.1,0,0,0,8.21,524.52Z"/><path class="cls-21" d="M391.23,673.7c-.64-11.17-1.57-22.37-2.77-33.53s-2.72-22.29-5-33.3c2.75,10.9,4.74,22,6.47,33.1s3.13,22.28,4.27,33.5Z"/><g class="cls-22"><path class="cls-20" d="M23.4,558.41s-4.14-32.07,21.72-29,91.76.33,91.76.33l39.6-16.88,1,19.65L160.3,543s10.51,30,6.33,44.53c0,0,40.95-52.87,93-24.75s45.83,15.62,59.37,21.87,49,17.71,89.05,10.42,44.79,7.29,44.79,7.29,10.42-15.1,68.22-4.17,72.84,13.6,72.35,8.63-4.13-36.75-4.13-36.75l26-23.44-9.6,55s22.1,8,20.54,17.39c0,0,29.68-38.54,53.12-26.56s59.37-8.85,77.08-9.37,19.27,7.29,19.27,7.29.52-23.44,14.06-26,15.62,1.56,15.62,1.56l25-31.25,66.73,2.22s82.21,7.15,32.74,36.32l31.32,10.72,33.56-33.56-11.19-43.5-984.4-5,5,44.75Z"/></g><path class="cls-21" d="M162.29,540.41c1,4.2,2,8.4,2.61,12.67.37,2.12.59,4.26.87,6.39s.44,4.27.55,6.41q.44,6.42.32,12.84a123.19,123.19,0,0,1-.83,12.79,122.83,122.83,0,0,0,.08-12.78q-.26-6.38-1.06-12.71c-.23-2.11-.6-4.2-.92-6.3s-.73-4.18-1.22-6.24c-.85-4.15-2-8.21-3.28-12.23Z"/><path class="cls-21" d="M632.45,598.32c-1.93,4.72-3.72,9.53-5.34,14.39-.79,2.43-1.54,4.88-2.18,7.36a28.83,28.83,0,0,0-1.1,7.57,29.17,29.17,0,0,1,.37-7.72c.4-2.55.91-5.09,1.47-7.61,1.15-5,2.47-10,4-15Z"/><path class="cls-21" d="M777.57,574.79c-.9,3.34-1.74,6.72-2.53,10.1s-1.52,6.79-2.12,10.22c.1-3.49.34-7,.64-10.46s.65-7,1.07-10.45Z"/><path class="cls-21" d="M808,550.38c-.67,1.62-1.27,3.37-1.8,5.09a53.7,53.7,0,0,0-1.35,5.28,35.37,35.37,0,0,0-.7,5.41,19.7,19.7,0,0,0,.45,5.46,20.08,20.08,0,0,1-1.2-5.44,36.5,36.5,0,0,1,0-5.62A55.51,55.51,0,0,1,804,555c.31-1.86.67-3.68,1.16-5.56Z"/><rect class="cls-23" x="339.25" y="291.69" width="72.14" height="158.39"/><rect class="cls-24" x="327.69" y="291.69" width="11.56" height="158.39"/><polygon class="cls-25" points="327.69 264.43 300.43 291.69 411.39 291.69 411.39 264.43 327.69 264.43"/><rect class="cls-23" x="360.87" y="233.91" width="50.52" height="30.51"/><rect class="cls-24" x="352.78" y="233.91" width="8.1" height="30.51"/><polygon class="cls-25" points="355.04 215.56 336.69 233.91 411.39 233.91 411.39 215.56 355.04 215.56"/><rect class="cls-23" x="375.64" y="195.98" width="35.75" height="19.58"/><rect class="cls-24" x="369.91" y="195.98" width="5.73" height="19.58"/><polygon class="cls-25" points="411.39 195.98 360.87 195.98 393.51 131.95 411.39 131.95 411.39 195.98"/><polygon class="cls-26" points="300.43 291.69 327.69 312.99 327.69 291.69 300.43 291.69"/><polygon class="cls-26" points="336.69 233.91 352.78 245.15 352.78 233.91 336.69 233.91"/><polygon class="cls-26" points="360.87 195.98 369.91 203.8 369.91 195.98 360.87 195.98"/><rect class="cls-23" x="411.39" y="291.69" width="72.14" height="158.39" transform="translate(894.92 741.77) rotate(-180)"/><rect class="cls-24" x="483.53" y="291.69" width="11.56" height="158.39" transform="translate(978.61 741.77) rotate(-180)"/><polygon class="cls-25" points="495.09 264.43 522.35 291.69 411.39 291.69 411.39 264.43 495.09 264.43"/><rect class="cls-23" x="411.39" y="233.91" width="50.52" height="30.51" transform="translate(873.3 498.34) rotate(-180)"/><rect class="cls-24" x="461.91" y="233.91" width="8.1" height="30.51" transform="translate(931.91 498.34) rotate(-180)"/><polygon class="cls-25" points="467.74 215.56 486.09 233.91 411.39 233.91 411.39 215.56 467.74 215.56"/><rect class="cls-23" x="411.39" y="195.98" width="35.75" height="19.58" transform="translate(858.53 411.54) rotate(-180)"/><rect class="cls-24" x="447.14" y="195.98" width="5.73" height="19.58" transform="translate(900.02 411.54) rotate(-180)"/><polygon class="cls-25" points="411.39 195.98 461.91 195.98 429.27 131.95 411.39 131.95 411.39 195.98"/><polygon class="cls-26" points="522.35 291.69 495.09 312.99 495.09 291.69 522.35 291.69"/><polygon class="cls-26" points="486.09 233.91 470 245.15 470 233.91 486.09 233.91"/><polygon class="cls-26" points="461.91 195.98 452.87 203.8 452.87 195.98 461.91 195.98"/><rect class="cls-26" x="380" y="199.89" width="12.26" height="12.26"/><rect class="cls-26" x="394.72" y="199.89" width="12.26" height="12.26"/><rect class="cls-26" x="415.9" y="199.89" width="12.26" height="12.26"/><rect class="cls-26" x="430.38" y="199.89" width="12.26" height="12.26"/><rect class="cls-26" x="384.02" y="296.21" width="12.26" height="23.4"/><rect class="cls-26" x="398.73" y="296.21" width="12.26" height="23.4"/><rect class="cls-26" x="413.45" y="296.21" width="12.26" height="23.4"/><rect class="cls-26" x="428.16" y="296.21" width="12.26" height="23.4"/><rect class="cls-26" x="359.28" y="322.42" width="105.87" height="13.45"/><rect class="cls-26" x="342.81" y="296.21" width="3.06" height="11.7"/><rect class="cls-26" x="342.81" y="309.06" width="3.06" height="11.7"/><rect class="cls-26" x="347.73" y="320.76" width="3.06" height="11.7"/><rect class="cls-26" x="347.73" y="333.6" width="3.06" height="11.7"/><rect class="cls-26" x="347.73" y="346.45" width="3.06" height="11.7"/><rect class="cls-26" x="352.31" y="296.21" width="3.06" height="11.7"/><rect class="cls-26" x="352.31" y="309.06" width="3.06" height="11.7"/><rect class="cls-26" x="384.02" y="338.68" width="12.26" height="23.4"/><rect class="cls-26" x="398.73" y="338.68" width="12.26" height="23.4"/><rect class="cls-26" x="413.45" y="338.68" width="12.26" height="23.4"/><rect class="cls-26" x="428.16" y="338.68" width="12.26" height="23.4"/><rect class="cls-26" x="466.87" y="296.21" width="3.06" height="11.7"/><rect class="cls-26" x="466.87" y="309.06" width="3.06" height="11.7"/><rect class="cls-26" x="471.8" y="320.76" width="3.06" height="11.7"/><rect class="cls-26" x="471.8" y="333.6" width="3.06" height="11.7"/><rect class="cls-26" x="471.8" y="346.45" width="3.06" height="11.7"/><rect class="cls-26" x="476.37" y="296.21" width="3.06" height="11.7"/><rect class="cls-26" x="476.37" y="309.06" width="3.06" height="11.7"/><rect class="cls-26" x="377.64" y="355.05" width="3.06" height="11.7"/><rect class="cls-26" x="377.64" y="367.9" width="3.06" height="11.7"/><rect class="cls-26" x="377.64" y="380.74" width="3.06" height="11.7"/><rect class="cls-26" x="384.02" y="364.89" width="12.26" height="23.4"/><rect class="cls-26" x="398.73" y="364.89" width="12.26" height="23.4"/><rect class="cls-26" x="413.45" y="364.89" width="12.26" height="23.4"/><rect class="cls-26" x="428.16" y="364.89" width="12.26" height="23.4"/><rect class="cls-26" x="443.59" y="355.05" width="3.06" height="11.7"/><rect class="cls-26" x="443.59" y="367.9" width="3.06" height="11.7"/><rect class="cls-26" x="443.59" y="380.74" width="3.06" height="11.7"/><rect class="cls-26" x="397.7" y="410.54" width="13.69" height="39.54"/><rect class="cls-26" x="411.39" y="410.54" width="13.69" height="39.54"/><rect class="cls-26" x="353.73" y="418.61" width="12.26" height="23.4"/><rect class="cls-26" x="368.45" y="418.61" width="12.26" height="23.4"/><rect class="cls-26" x="442.05" y="418.61" width="12.26" height="23.4"/><rect class="cls-26" x="456.76" y="418.61" width="12.26" height="23.4"/><polygon class="cls-27" points="393.51 131.95 410.99 105.68 429.27 131.95 393.51 131.95"/><rect class="cls-28" x="397.7" y="450.08" width="27.37" height="2.38"/><rect class="cls-29" x="386.77" y="452.46" width="49.24" height="2.38"/><rect class="cls-30" x="376.65" y="454.83" width="69.48" height="2.38"/><rect class="cls-31" x="126.62" y="468.89" width="213.48" height="16.37"/><rect class="cls-32" x="196.04" y="206.31" width="74.65" height="140.9"/><rect class="cls-33" x="183.1" y="347.21" width="100.53" height="113.61"/><rect class="cls-34" x="144.28" y="452.64" width="178.54" height="16.37"/><rect class="cls-35" x="113.24" y="485.14" width="240.24" height="16.37"/><rect class="cls-36" x="198.73" y="354.37" width="3.31" height="92.6"/><rect class="cls-36" x="221.21" y="354.37" width="3.31" height="92.6"/><rect class="cls-36" x="243.7" y="354.37" width="3.31" height="92.6"/><rect class="cls-37" x="213.64" y="219.57" width="3.31" height="118.23"/><rect class="cls-37" x="231.54" y="219.57" width="3.31" height="118.23"/><rect class="cls-37" x="249.77" y="219.57" width="3.31" height="118.23"/><rect class="cls-32" x="228.74" y="11.32" width="8.91" height="100.64"/><rect class="cls-32" x="196.09" y="86.64" width="74.54" height="107.7" rx="35.38" ry="35.38"/><rect class="cls-33" x="196.04" y="131.69" width="74.54" height="74.54"/><circle class="cls-32" cx="233.36" cy="168.82" r="23.72"/><circle class="cls-38" cx="233.2" cy="168.82" r="20.89"/><rect x="231.76" y="154.75" width="2.73" height="18.49" rx="1.29" ry="1.29"/><rect x="235.25" y="169.06" width="2.73" height="12.6" rx="1.29" ry="1.29" transform="translate(-54.69 218.67) rotate(-45)"/><path class="cls-39" d="M162.85,490.75h-2.32a8.34,8.34,0,0,0-16.15-1.83,5.51,5.51,0,0,0-4.24-.95A11.44,11.44,0,0,0,118.68,483a7.88,7.88,0,0,0-4.32,0,10.08,10.08,0,0,0-18,7.76H94.61a5.47,5.47,0,1,0,0,10.94h68.24a5.47,5.47,0,0,0,0-10.94Z"/><path class="cls-39" d="M365,504.87h-2a6.31,6.31,0,0,0-12.3-1.66,5.75,5.75,0,0,0-6.08-1.53,9.42,9.42,0,0,0-18.56.2,5.67,5.67,0,0,0-3.49-.3,7.57,7.57,0,0,0-14.42,3.22s0,0,0,.07h-5.37a5,5,0,1,0,0,10H365a5,5,0,0,0,0-10Z"/><rect class="cls-36" x="264.71" y="354.37" width="3.31" height="92.6"/></svg>