<svg width="1500" height="416" viewBox="0 0 1500 416" fill="none" xmlns="http://www.w3.org/2000/svg">
<g filter="url(#filter0_d_1322_411)">
<path fill-rule="evenodd" clip-rule="evenodd" d="M5 330.427L16.8349 313.519C32.6148 293.229 56.2847 256.031 83.8996 262.794C111.514 269.557 139.129 320.282 162.799 306.755C190.414 293.229 218.029 218.833 241.699 185.017C269.314 147.819 296.928 147.819 320.598 171.49C348.213 195.162 375.828 245.886 403.443 252.649C427.113 256.031 454.728 222.215 482.342 239.123C506.012 256.031 533.627 330.427 561.242 354.098C584.912 381.151 612.527 354.098 640.141 350.716C667.756 343.953 691.426 354.098 719.041 306.755C746.656 256.031 770.326 147.819 797.941 147.819C825.556 147.819 853.17 256.031 876.84 293.229C904.455 330.427 932.07 293.229 955.74 256.031C983.355 218.833 1010.97 185.017 1034.64 208.688C1062.25 232.36 1089.87 320.282 1117.48 350.716C1141.15 381.151 1168.77 354.098 1196.38 306.755C1220.05 256.031 1247.67 185.017 1275.28 185.017C1298.95 185.017 1326.57 256.031 1354.18 262.794C1381.8 269.557 1405.47 208.688 1421.25 178.254L1445 147.819V31.5V20V10H5V330.427Z" fill="url(#paint0_linear_1322_411)"/>
<path fill-rule="evenodd" clip-rule="evenodd" d="M5 330.427L16.8349 313.519C32.6148 293.229 56.2847 256.031 83.8996 262.794C111.514 269.557 139.129 320.282 162.799 306.755C190.414 293.229 218.029 218.833 241.699 185.017C269.314 147.819 296.928 147.819 320.598 171.49C348.213 195.162 375.828 245.886 403.443 252.649C427.113 256.031 454.728 222.215 482.342 239.123C506.012 256.031 533.627 330.427 561.242 354.098C584.912 381.151 612.527 354.098 640.141 350.716C667.756 343.953 691.426 354.098 719.041 306.755C746.656 256.031 770.326 147.819 797.941 147.819C825.556 147.819 853.17 256.031 876.84 293.229C904.455 330.427 932.07 293.229 955.74 256.031C983.355 218.833 1010.97 185.017 1034.64 208.688C1062.25 232.36 1089.87 320.282 1117.48 350.716C1141.15 381.151 1168.77 354.098 1196.38 306.755C1220.05 256.031 1247.67 185.017 1275.28 185.017C1298.95 185.017 1326.57 256.031 1354.18 262.794C1381.8 269.557 1405.47 208.688 1421.25 178.254L1445 147.819V31.5V20V10H5V330.427Z" stroke="black"/>
</g>
<defs>
<filter id="filter0_d_1322_411" x="0" y="0" width="1500" height="416" filterUnits="userSpaceOnUse" color-interpolation-filters="sRGB">
<feFlood flood-opacity="0" result="BackgroundImageFix"/>
<feColorMatrix in="SourceAlpha" type="matrix" values="0 0 0 0 0 0 0 0 0 0 0 0 0 0 0 0 0 0 127 0" result="hardAlpha"/>
<feOffset dx="25" dy="20"/>
<feGaussianBlur stdDeviation="15"/>
<feComposite in2="hardAlpha" operator="out"/>
<feColorMatrix type="matrix" values="0 0 0 0 0 0 0 0 0 0 0 0 0 0 0 0 0 0 0.25 0"/>
<feBlend mode="normal" in2="BackgroundImageFix" result="effect1_dropShadow_1322_411"/>
<feBlend mode="normal" in="SourceGraphic" in2="effect1_dropShadow_1322_411" result="shape"/>
</filter>
<linearGradient id="paint0_linear_1322_411" x1="724.194" y1="515.368" x2="724.194" y2="22.6467" gradientUnits="userSpaceOnUse">
<stop stop-color="#405649"/>
<stop offset="1" stop-color="#405649"/>
</linearGradient>
</defs>
</svg>
