<svg width="1452" height="379" viewBox="0 0 1452 379" fill="none" xmlns="http://www.w3.org/2000/svg">
<path d="M112.022 289.93C110.183 290.206 108.306 290.075 106.523 289.547C106.635 289.335 106.693 289.098 106.692 288.858C106.69 288.618 106.628 288.381 106.513 288.171C106.03 287.58 104.642 288.183 101.381 286.466C99.3462 285.326 97.713 283.586 96.7046 281.484C97.5515 281.705 98.3572 282.062 99.0906 282.54C99.5409 282.868 100.062 283.085 100.612 283.175C101.162 283.264 101.725 283.223 102.256 283.055C102.835 282.877 102.117 281.868 102.784 281.863C103.451 281.859 104.955 283.298 106.245 283.202C107.535 283.106 107.782 283.192 108.127 282.711C108.471 282.23 109.355 282.08 109.961 281.655C110.567 281.231 111.05 279.764 109.574 280.296C108.099 280.827 106.521 279.273 104.324 278.23C103.087 277.684 102.011 276.827 101.203 275.744C102.108 275.721 103.011 275.618 103.898 275.436C105.346 275.122 105.959 273.639 104.812 273.473C102.946 272.935 101.201 272.041 99.6738 270.841C97.7782 269.405 95.519 267.812 93.3187 266.363C94.9703 266.129 96.6539 266.411 98.1392 267.171C98.5062 267.465 98.9699 267.611 99.4393 267.581C99.9086 267.551 100.35 267.347 100.676 267.009C102.866 266.994 103.569 265.946 103.565 265.381C103.561 264.816 102.559 264.648 102.109 264.651C101.281 264.432 100.487 264.095 99.7528 263.653C98.9491 262.803 96.907 261.151 96.907 261.151C96.7024 260.011 96.2598 258.928 95.608 257.971C94.5978 256.645 93.3086 256.856 92.2832 255.429C93.2173 256.263 95.5758 255.508 95.5758 255.508C96.5707 256.167 97.6889 256.618 98.8628 256.833C100.314 256.954 101.444 256.816 101.874 256.059C102.303 255.303 101.865 254.871 101.052 254.761C100.918 254.298 100.15 254.289 99.3335 253.714C98.9942 252.905 97.757 252.276 97.5668 252.045C96.9006 251.133 96.0249 250.393 95.0135 249.889C94.1513 249.486 93.3855 248.903 92.7678 248.18C93.6967 248.619 94.672 248.953 95.6754 249.174C95.9823 249.233 96.2983 249.223 96.601 249.146C96.9036 249.069 97.1857 248.926 97.427 248.728C98.2101 248.722 98.3664 248.272 98.29 247.736C98.2137 247.201 97.4902 247.423 97.2409 247.048C96.9917 246.673 96.0631 246.607 94.8971 245.789C94.1311 245.215 93.6077 244.376 93.43 243.436C94.7935 243.46 96.1565 243.363 97.5031 243.148C97.8491 242.87 97.8462 242.465 97.813 241.885C97.7799 241.306 97.5452 240.945 96.6458 240.908C95.7464 240.87 95.9902 240.492 95.3348 240.105C94.6794 239.718 94.4052 239.894 93.8785 239.26C93.3784 238.67 92.7693 238.182 92.0845 237.823C91.2214 237.335 90.5508 236.567 90.1836 235.647C90.359 235.563 90.5018 235.423 90.5897 235.25C90.6776 235.076 90.7057 234.879 90.6697 234.687L92.5115 234.675C92.853 234.742 93.2056 234.724 93.5386 234.623C93.8716 234.522 94.1747 234.342 94.4217 234.097C94.5521 233.956 94.6416 233.782 94.6804 233.593C94.7192 233.405 94.7059 233.21 94.642 233.028C94.5781 232.847 94.4659 232.686 94.3176 232.564C94.1692 232.441 93.9902 232.362 93.7999 232.333C93.3204 232.333 92.8466 232.228 92.4118 232.026C91.9769 231.823 91.5915 231.528 91.2826 231.162C90.5521 230.433 89.7719 229.755 88.9477 229.134C88.3197 228.515 87.7115 228.65 87.1268 228.002C86.6898 227.451 86.3293 226.844 86.0552 226.197C86.9671 226.633 87.9101 226.999 88.8765 227.294C89.7464 227.493 90.5835 227.815 91.3632 228.248C93.0654 229.005 93.7592 228.682 93.9735 228.231C94.1878 227.78 93.749 227.261 93.151 226.787C92.4822 226.1 91.6977 225.537 90.8333 225.122C90.123 224.768 89.5483 224.192 89.1972 223.481C89.5695 223.329 89.9794 223.296 90.3713 223.386C91.1409 223.526 91.8224 223.521 92.1229 222.954C92.4234 222.387 92 221.984 91.0684 221.512C90.1369 221.04 89.1293 220.076 88.1549 219.691C87.1805 219.306 87.3952 218.914 85.7926 217.895C84.2627 216.651 82.8804 215.236 81.6727 213.677L82.9091 214.191C83.5927 214.476 83.7212 214.185 85.069 214.06C86.4168 213.935 86.3724 213.805 86.5841 212.992C86.7959 212.179 85.1213 211.234 83.912 210.459C82.7028 209.685 82.6545 209.019 82.1548 208.095C81.6551 207.171 80.391 206.846 79.3911 204.925C80.5116 205.454 81.772 205.271 82.0844 204.342C82.3968 203.412 80.9807 202.103 78.5854 199.743C79.4007 200.186 80.7481 200.003 80.653 198.874C80.5579 197.744 76.4605 196.67 76.2752 195.092C76.0898 193.514 75.4522 193.576 75.1799 192.013C74.9077 190.449 73.323 189.909 73.305 187.402C73.2871 184.895 72.4549 182.104 71.8169 182.108C71.1788 182.113 70.3866 184.9 70.4047 187.422C70.4228 189.943 68.8458 190.476 68.5961 192.057C68.3464 193.638 67.7509 193.512 67.5306 195.151C67.3103 196.79 63.1994 197.876 63.2074 198.991C63.2154 200.107 64.4785 200.287 65.2728 199.832C62.9116 202.225 61.529 203.568 61.8546 204.478C62.1802 205.389 63.4286 205.569 64.5559 205.025C63.5836 206.959 62.3237 207.214 61.8379 208.232C61.3521 209.25 61.3272 209.815 60.1003 210.62C58.8734 211.426 57.2124 212.379 57.4648 213.189C57.7171 213.998 57.66 214.129 59.0095 214.236C60.359 214.343 60.4626 214.632 61.1566 214.338L62.3855 213.807C61.2068 215.383 59.8496 216.817 58.341 218.081C56.7532 219.121 56.9012 219.54 55.9902 219.908C55.0792 220.277 54.0567 221.284 53.1031 221.768C52.1494 222.253 51.8476 222.646 52.0838 223.224C52.32 223.802 53.074 223.783 53.8415 223.633C54.2272 223.538 54.6329 223.566 55.0023 223.712C54.6634 224.424 54.1029 225.007 53.4044 225.375C52.542 225.801 51.7608 226.376 51.0962 227.071C50.5197 227.582 50.0739 228.107 50.2945 228.526C50.515 228.945 51.2281 229.288 52.9048 228.508C53.6816 228.06 54.5195 227.728 55.3921 227.52C56.3488 227.211 57.2816 226.831 58.1829 226.386C57.9258 227.037 57.5788 227.649 57.1518 228.204C56.562 228.86 55.9664 228.734 55.3328 229.361C54.5225 229.994 53.757 230.682 53.0417 231.42C52.7351 231.791 52.3514 232.091 51.9172 232.299C51.4829 232.508 51.0086 232.619 50.5269 232.625C50.3354 232.654 50.1556 232.735 50.0076 232.86C49.8596 232.984 49.7491 233.148 49.6888 233.332C49.6284 233.516 49.6204 233.713 49.6657 233.901C49.7109 234.089 49.8077 234.261 49.9451 234.397C50.1925 234.639 50.4957 234.815 50.8278 234.912C51.1599 235.008 51.5106 235.021 51.8488 234.95L53.6905 234.937C53.6597 235.129 53.6918 235.325 53.7819 235.497C53.872 235.668 54.0153 235.807 54.1904 235.89C53.8365 236.815 53.1769 237.592 52.3209 238.091C51.6457 238.46 51.0484 238.956 50.562 239.552C50.001 240.194 49.7389 240.036 49.118 240.417C48.4971 240.798 48.7175 241.188 47.8187 241.237C46.9199 241.287 46.676 241.651 46.6512 242.231C46.6263 242.81 46.6582 243.216 46.9792 243.489C48.3335 243.687 49.7026 243.765 51.0705 243.722C50.8984 244.661 50.3887 245.505 49.6373 246.094C48.4686 246.928 47.5555 247.007 47.3117 247.385C47.0679 247.764 46.3267 247.551 46.258 248.088C46.1893 248.625 46.3521 249.073 47.1352 249.067C47.3794 249.262 47.6633 249.401 47.9671 249.474C48.2708 249.547 48.5869 249.553 48.893 249.49C49.8931 249.255 50.8635 248.908 51.786 248.456C51.1366 249.222 50.3232 249.832 49.406 250.24C48.3956 250.755 47.5252 251.507 46.8693 252.431C46.6974 252.737 45.4253 253.311 45.1411 254.124C44.3331 254.709 43.5502 254.729 43.423 255.194C42.6407 255.315 42.1797 255.738 42.6202 256.503C43.0608 257.268 44.1783 257.377 45.642 257.236C46.8169 257.004 47.933 256.538 48.9242 255.866C48.9242 255.866 51.2787 256.59 52.2008 255.743C51.1961 257.199 49.9039 256.99 48.9274 258.33C48.2811 259.293 47.8487 260.383 47.6596 261.527C47.6596 261.527 45.6558 263.207 44.7773 264.068C44.0527 264.517 43.2695 264.863 42.4498 265.098C41.9713 265.101 41.0009 265.282 41.005 265.847C41.009 266.412 41.6839 267.494 43.9168 267.436C44.2504 267.771 44.6968 267.969 45.169 267.993C45.6411 268.016 46.1051 267.863 46.4702 267.563C47.9444 266.784 49.6238 266.479 51.2786 266.69C49.0993 268.154 46.8636 269.85 44.9883 271.254C43.4784 272.474 41.7467 273.391 39.8884 273.955C38.744 274.137 39.3782 275.611 40.816 275.905C41.706 276.076 42.6093 276.167 43.5154 276.177C42.7223 277.271 41.6594 278.142 40.43 278.705C38.2478 279.777 36.6784 281.353 35.21 280.841C33.7415 280.33 34.2451 281.79 34.8427 282.206C35.4402 282.622 36.2974 282.834 36.6919 283.237C37.0863 283.64 37.2894 283.653 38.5805 283.702C39.8716 283.752 41.3551 282.321 42.0221 282.317C42.6892 282.312 42.0294 283.331 42.5672 283.502C43.1005 283.662 43.6641 283.696 44.2126 283.599C44.7611 283.502 45.2791 283.278 45.7247 282.944C46.4511 282.456 47.2516 282.089 48.0953 281.856C47.1202 283.969 45.5176 285.73 43.5052 286.901C40.2548 288.662 38.8584 288.077 38.3986 288.674C38.2777 288.884 38.2149 289.122 38.2167 289.364C38.2184 289.606 38.2846 289.843 38.4084 290.051C36.6329 290.602 34.758 290.759 32.9153 290.508C29.2585 290.2 32.3908 292.193 32.8142 292.581C34.0055 293.349 35.3189 293.909 36.6981 294.236C37.8885 294.402 40.9232 294.903 40.9232 294.903C40.9232 294.903 39.05 296.597 39.3169 297.421C39.5839 298.245 42.3782 297.603 44.1025 297.389C45.8267 297.174 48.4511 297.099 50.2811 295.449C48.6818 296.909 48.339 297.635 49.0236 298.051C49.7081 298.467 53.6945 298.223 56.2702 297.423C55.1785 298.879 55.3414 299.356 56.0117 299.801C56.682 300.246 62.349 299.758 62.349 299.758C62.349 299.758 61.7313 300.588 62.198 300.947C64.5386 301.059 66.8705 300.595 68.9899 299.597L68.7746 305.975C68.7746 305.975 43.2672 306.307 40.5267 306.369C38.5836 306.536 36.7087 307.165 35.058 308.203L110.191 307.695C108.526 306.68 106.642 306.077 104.697 305.935C101.97 305.954 76.4605 305.923 76.4605 305.923L76.1392 299.549C78.2731 300.517 80.6112 300.949 82.9499 300.807C83.4258 300.442 82.7963 299.62 82.7963 299.62C82.7963 299.62 88.4552 300.031 89.1191 299.577C89.7829 299.124 89.9388 298.63 88.8409 297.203C91.4278 297.968 95.4175 298.172 96.0959 297.733C96.7744 297.294 96.421 296.543 94.7868 295.148C96.7127 296.773 99.2654 296.813 101.007 297.004C102.749 297.196 105.523 297.8 105.778 296.972C106.033 296.144 104.15 294.476 104.15 294.476C104.15 294.476 107.178 293.934 108.365 293.752C109.736 293.409 111.037 292.832 112.211 292.045C112.585 291.608 115.688 289.572 112.022 289.93Z" fill="#405649"/>
<path d="M301.36 257.465L293.064 253.275C293.064 253.275 302.76 254.499 309.122 251.804C299.866 249.287 289.073 244.781 284.164 237.785C291.603 241.706 305.517 242.568 305.517 242.568L301.12 236.033C302.927 236.328 304.78 235.972 306.348 235.027C303.723 235.038 301.124 234.513 298.709 233.484C302.431 231.182 305.78 228.325 308.64 225.012C305.333 227.02 285.881 232.412 275.044 229.934C283.59 228.428 288.597 220.829 288.597 220.829C281.744 224.366 274.257 226.51 266.569 227.137C254.972 227.751 256.296 226.308 245.648 219.786C249.239 221.591 253.261 222.366 257.266 222.026C254.155 221.126 251.381 219.324 249.296 216.848C254.336 219.974 264.804 219.642 264.804 219.642L259.264 217.52C259.264 217.52 268.509 218.516 273.23 215.542C268.062 215.69 263.036 213.839 259.198 210.376C269.987 211.049 280.667 207.898 289.357 201.477C286.969 202.117 280.93 201.288 276.713 199.679C281.302 198.659 285.436 196.18 288.496 192.614C286.833 193.294 285.127 193.862 283.389 194.315C284.975 193.087 285.137 191.405 284.148 190.977C285.126 190.368 285.886 189.465 286.319 188.398C286.319 188.398 284.867 188.103 280.849 190.058C276.832 192.012 261.532 190.087 261.532 190.087C261.532 190.087 268.922 189.138 272.928 185.532C254.898 189.117 239.004 185.152 238.348 184.635C237.691 184.118 237.404 182.438 236.436 180.909C235.467 179.379 233.825 178.84 234.225 178.025C234.625 177.211 234.904 175.673 235.382 175.496C235.859 175.319 236.324 175.403 237.509 176.931C237.862 177.478 238.371 177.906 238.97 178.16C239.569 178.415 240.231 178.483 240.869 178.357C241.825 178.163 241.554 178.788 242.876 179.126C243.212 179.243 243.571 179.275 243.921 179.221C244.272 179.167 244.604 179.027 244.889 178.815C245.174 178.603 245.402 178.325 245.554 178.004C245.706 177.684 245.777 177.331 245.761 176.977C248.505 179.393 250.322 177.931 251.859 177.863C254.863 177.542 257.824 176.901 260.691 175.948C264.309 174.794 265.665 173.828 269.527 174.439C266.815 170.357 258.745 169.382 254.753 170.887C256.105 169.503 257.923 168.67 259.855 168.549C261.769 168.42 262.885 168.427 264.08 167.201C265.275 165.976 267.147 166.123 268.285 164.985C269.422 163.847 271.303 163.283 275.099 162.707C273.105 161.706 268.555 162.201 268.555 162.201C268.784 161.901 268.932 161.548 268.985 161.174C269.039 160.801 268.995 160.42 268.858 160.068C271.04 158.144 273.739 156.901 276.621 156.494C270.444 154.667 264.941 157.747 257.784 158.737C255.836 159.103 253.829 158.989 251.935 158.406C250.041 157.823 248.317 156.788 246.912 155.391C246.912 155.391 253.629 155.679 255.467 153.217C248.867 154.957 235.675 149.612 234.004 147.174C232.333 144.736 231.003 145.253 229.622 142.769C228.241 140.286 228.296 139.88 229.59 138.292C230.113 137.626 230.479 136.851 230.661 136.024C230.661 136.024 234.565 138.403 235.55 138.324C236.536 138.245 237.749 137.497 238.712 138.302C239.525 138.81 240.494 139.009 241.442 138.864C242.254 138.858 242.642 140.305 243.384 140.72C244.127 141.135 246.827 141.45 247.401 140.693C247.976 139.935 247.175 135.376 247.175 135.376C252.33 138.37 254.437 137.008 254.434 136.472C254.43 135.935 249.758 133.692 246.529 130.265C249.877 131.996 255.252 133.35 259.913 130C251.933 131.503 244.849 122.479 240.114 121.512C235.679 120.56 231.465 118.779 227.691 116.263C237.925 115.512 240.131 109.643 240.131 109.643C240.131 109.643 233.369 111.138 228.951 109.863C228.596 106.967 226.653 106.98 226.591 106.372C226.528 105.764 227.316 104.367 225.728 103.349C227.207 103.486 228.697 103.268 230.074 102.711C228.246 101.976 226.324 101.501 224.365 101.301C222.301 101.493 220.244 100.867 218.638 99.5567C221.246 99.1334 219.781 97.0855 220.214 96.8362C221.01 95.5018 221.259 93.9109 220.907 92.397C220.404 90.9513 219.104 91.7136 218.733 90.4698C218.653 90.1409 218.501 89.8337 218.289 89.5699C218.077 89.3061 217.809 89.0922 217.505 88.9435C217.2 88.7947 216.867 88.7148 216.528 88.7093C216.19 88.7038 215.854 88.7729 215.545 88.9117C213.999 89.5887 211.825 87.821 211.56 85.2867C211.296 82.7525 212.816 82.4958 212.677 81.2795C212.538 80.0631 210.574 79.1923 210.285 77.2669C210.04 75.5875 209.974 74.3707 208.812 74.1612C208.474 74.1417 208.135 74.144 207.797 74.168V74.168C206.479 74.4088 206.473 75.6262 206.37 77.3659C206.266 79.1056 204.259 80.2784 204.18 81.4962C204.102 82.7141 205.641 82.9356 205.499 85.4291C205.358 87.9227 203.268 89.7917 201.698 89.2516C201.384 89.1253 201.045 89.0706 200.707 89.0917C200.368 89.1128 200.039 89.2092 199.743 89.3736C199.447 89.5381 199.191 89.7666 198.994 90.0424C198.798 90.3183 198.665 90.6345 198.607 90.968C198.282 92.2165 196.957 91.5009 196.519 92.9965C196.261 94.5071 196.588 96.0594 197.434 97.3378C197.886 97.5811 196.523 99.6916 199.15 99.9927C197.606 101.376 195.581 102.102 193.509 102.016C191.564 102.297 189.668 102.851 187.879 103.663C189.304 104.16 190.829 104.299 192.32 104.068C190.79 105.179 191.655 106.492 191.617 107.145C191.578 107.797 189.635 107.839 189.424 110.753C185.084 112.232 178.245 111.061 178.245 111.061C178.245 111.061 180.751 116.84 190.992 117.076C187.354 119.785 183.234 121.78 178.852 122.954C174.176 124.145 167.543 133.508 159.501 132.389C164.367 135.515 169.663 133.9 172.884 132.008C169.82 135.594 165.299 138.045 165.303 138.581C165.307 139.117 167.433 140.392 172.442 137.083C172.442 137.083 171.866 141.754 172.48 142.416C173.094 143.079 175.759 142.597 176.481 142.186C177.203 141.776 177.526 140.281 178.323 140.232C179.281 140.343 180.246 140.093 181.03 139.533C181.953 138.758 183.205 139.431 184.191 139.511C185.178 139.591 188.959 136.986 188.959 136.986C189.19 137.801 189.596 138.555 190.15 139.196C191.538 140.635 191.614 141.113 190.341 143.672C189.069 146.231 187.688 145.777 186.14 148.294C184.591 150.812 171.698 156.783 165.002 155.379C166.948 157.742 173.716 157.131 173.716 157.131C172.383 158.595 170.714 159.713 168.851 160.387C166.989 161.061 164.989 161.272 163.027 161C155.771 160.354 150.139 157.551 144.063 159.679C146.85 160.027 149.482 161.155 151.656 162.932C151.54 163.29 151.517 163.671 151.588 164.041C151.659 164.41 151.823 164.756 152.063 165.045C152.063 165.045 147.493 164.786 145.558 165.886C149.375 166.281 151.365 166.745 152.475 167.825C153.584 168.904 155.541 168.659 156.84 169.824C158.139 170.989 159.211 170.938 161.126 170.984C163.064 171.008 164.924 171.749 166.347 173.064C162.277 171.758 154.268 173.146 151.76 177.336C155.597 176.484 156.995 177.388 160.657 178.363C163.567 179.172 166.556 179.667 169.572 179.839C171.109 179.829 173.005 181.265 175.611 178.653C175.611 179.012 175.699 179.365 175.868 179.681C176.037 179.997 176.282 180.267 176.581 180.465C176.879 180.664 177.222 180.786 177.579 180.821C177.937 180.855 178.297 180.8 178.627 180.662C179.93 180.262 179.621 179.655 180.594 179.808C181.244 179.893 181.905 179.78 182.49 179.484C183.075 179.188 183.557 178.722 183.874 178.148C184.994 176.561 185.442 176.471 185.923 176.685C186.403 176.899 186.79 178.346 187.217 179.169C187.643 179.992 186.038 180.626 185.15 182.168C184.262 183.71 184.057 185.451 183.422 185.991C182.788 186.532 167.116 191.275 148.925 188.572C153.112 191.978 160.556 192.566 160.556 192.566C160.556 192.566 145.333 195.233 141.26 193.479C137.186 191.724 135.71 192.067 135.71 192.067C136.195 193.109 136.998 193.972 138.004 194.529C137.036 195.058 137.28 196.679 138.927 197.827C137.169 197.468 135.436 196.996 133.739 196.413C136.974 199.827 141.229 202.102 145.866 202.896C141.732 204.706 135.736 205.863 133.325 205.314C142.297 211.318 153.102 213.966 163.833 212.788C160.183 216.46 155.248 218.572 150.069 218.678C154.933 221.428 164.132 220.032 164.132 220.032L158.652 222.301C158.652 222.301 169.121 222.1 173.999 218.748C172.036 221.317 169.355 223.247 166.294 224.293C170.306 224.446 174.281 223.481 177.774 221.505C167.47 228.531 168.872 229.913 157.255 229.861C149.541 229.609 141.952 227.833 134.928 224.635C134.928 224.635 140.316 231.844 148.925 233.062C138.229 236.032 118.46 231.644 115.111 229.783C118.14 232.951 121.631 235.644 125.465 237.77C123.101 238.91 120.531 239.564 117.908 239.691C119.523 240.552 121.389 240.816 123.178 240.438L119.05 247.204C119.05 247.204 132.903 245.662 140.138 241.367C135.593 248.643 125.028 253.627 115.912 256.602C122.412 258.978 132.015 257.275 132.015 257.275L123.941 261.866C130.186 261.273 136.259 259.485 141.828 256.601C151.597 251.694 156.713 247.312 162.635 245.939C162.286 247.811 154.127 258.764 146.204 260.078C146.223 260.547 146.352 261.004 146.582 261.413C146.812 261.822 147.135 262.171 147.526 262.431C145.846 263.485 144.04 264.32 142.149 264.917C146.883 265.769 151.725 263.49 154.618 262.47C157.511 261.451 163.555 258.975 163.555 258.975C161.498 261.615 159.167 264.031 156.602 266.181C153.17 268.842 149.26 271.68 149.26 271.68C150.488 271.346 151.783 271.338 153.016 271.654C155.041 272.042 157.094 272.27 159.155 272.337C159.155 272.337 146.633 277.48 140.333 276.667C137.121 276.132 133.838 276.188 130.647 276.834C131.593 277.947 132.934 278.649 134.388 278.794C135.112 278.697 135.848 278.753 136.549 278.958C137.25 279.163 137.9 279.512 138.457 279.984C139.159 280.733 139.062 281.429 140.462 282.477C141.862 283.526 147.384 285.126 153.829 283.981C149.052 285.202 144.932 284.954 141.577 286.252C143.972 286.627 144.808 287.926 148.705 287.32C157.449 286.365 165.92 283.703 173.636 279.485C171.398 282.834 167.745 285.119 162.275 286.808C159.112 287.724 156.102 289.102 153.342 290.897C155.737 290.509 158.167 290.371 160.59 290.486C164.783 290.66 174.338 288.335 183.473 284.158C181.949 285.812 180.237 287.283 178.371 288.54C182.942 287.089 187.387 285.265 191.66 283.088C189.507 285.875 187.192 288.533 184.726 291.047C188.138 288.768 191.699 286.721 195.385 284.918C199.318 283.239 202.617 282.217 202.617 282.217L202.914 295.258C202.914 295.258 175.255 296.894 171.153 297.284C167.052 297.674 166.012 298.231 166.018 299.072C166.024 299.912 200.49 299.027 209.523 298.778L218.035 298.619C227.778 298.379 261.041 297.488 261.021 296.763C261.001 296.039 259.923 295.322 255.804 295.234C251.684 295.146 223.895 294.754 223.895 294.754L223.54 281.713C223.54 281.713 226.94 282.589 230.953 284.069C234.723 285.686 238.38 287.554 241.899 289.661C239.318 287.272 236.878 284.733 234.594 282.059C238.969 284.019 243.496 285.622 248.13 286.851C246.203 285.675 244.421 284.276 242.821 282.685C252.144 286.404 261.801 288.266 265.975 287.876C268.388 287.646 270.818 287.668 273.227 287.943C270.383 286.281 267.31 285.046 264.107 284.28C258.543 282.868 254.786 280.807 252.457 277.547C260.374 281.39 268.969 283.641 277.753 284.173C281.672 284.581 282.445 283.243 284.805 282.676C281.404 281.554 277.303 282.002 272.466 281.021C278.955 281.832 284.394 279.911 285.735 278.859C287.076 277.806 286.969 277.053 287.631 276.266C288.163 275.77 288.793 275.39 289.48 275.151C290.168 274.912 290.898 274.819 291.623 274.877C293.07 274.666 294.376 273.898 295.263 272.737C292.042 272.245 288.759 272.35 285.578 273.049C279.364 274.163 266.598 269.641 266.598 269.641C268.654 269.474 270.693 269.145 272.697 268.658C273.915 268.287 275.207 268.234 276.452 268.502C276.452 268.502 272.401 265.848 268.845 263.365C266.18 261.341 263.734 259.046 261.545 256.517C261.545 256.517 267.694 258.678 270.645 259.556C273.595 260.435 278.525 262.401 283.203 261.399C281.287 260.894 279.445 260.147 277.719 259.175C278.1 258.9 278.408 258.537 278.618 258.116C278.827 257.696 278.931 257.231 278.92 256.761C270.937 255.83 262.262 245.281 261.813 243.443C267.796 244.519 273.119 248.656 283.128 253.081C288.866 255.706 295.057 257.195 301.36 257.465V257.465Z" fill="#405649"/>
<path d="M1389 145.866C1387.46 145.876 1387.33 149.92 1387.49 150.586C1387.66 151.251 1386.66 151.939 1386.61 153.229C1386.58 153.905 1386.59 154.582 1386.63 155.258C1386.63 155.258 1383.71 152.379 1382.72 154.357C1382.45 154.964 1382.33 155.63 1382.39 156.293C1382.44 156.956 1382.66 157.595 1383.02 158.152C1382.81 159.103 1382.78 160.087 1382.93 161.051C1383.23 162.28 1383.56 162.09 1383.86 162.827C1384.15 163.564 1384.2 164.404 1383.36 164.41C1382.52 164.415 1381.08 163.643 1380.3 164.43C1379.52 165.218 1378.72 165.122 1378.59 166.413C1378.6 166.655 1378.55 166.896 1378.47 167.122C1378.38 167.349 1378.25 167.555 1378.08 167.731C1377.92 167.906 1377.71 168.046 1377.49 168.143C1377.27 168.239 1377.03 168.291 1376.79 168.294C1376.6 168.286 1376.42 168.32 1376.25 168.393C1376.08 168.467 1375.92 168.577 1375.8 168.718C1375.68 168.858 1375.59 169.024 1375.54 169.203C1375.5 169.382 1375.49 169.57 1375.52 169.752C1375.53 170.462 1377.26 170.755 1378.62 170.557C1379.98 170.36 1381.87 170.535 1382.16 171.142C1382.45 171.749 1383.07 172.585 1381.58 172.842C1380.58 172.884 1379.6 173.107 1378.68 173.499C1377.8 174.154 1376.83 174.678 1375.79 175.054C1375.37 175.214 1375.01 175.514 1374.77 175.906C1374.54 176.297 1374.44 176.756 1374.5 177.208C1374.51 177.758 1373.91 177.791 1374.18 178.659C1374.45 179.527 1374.19 179.645 1373.28 180.448C1372.37 181.251 1369.95 181.63 1369.48 182.372C1369.01 183.114 1367.53 183.428 1367.65 184.428C1367.77 185.427 1369.02 185.215 1369.86 185.427C1370.71 185.639 1370.04 186.034 1369.69 186.138C1368.57 186.522 1367.48 187.015 1366.46 187.609C1365.25 188.115 1363.95 188.365 1362.65 188.345C1362.65 188.345 1364.75 189.78 1369.15 189.127C1372.55 188.423 1375.87 187.341 1379.03 185.901C1376.54 187.901 1373.94 189.762 1371.24 191.475C1368.76 192.84 1367.46 193.544 1367.33 194.125C1365.46 194.021 1363.95 194.06 1363.74 194.555C1363.52 195.049 1364.91 196.909 1368.64 196.753C1366.73 199.128 1364.38 201.112 1361.72 202.597C1361.72 202.597 1366.72 204.795 1373.43 197.851C1372.1 200.034 1372.55 200.871 1371.35 202.213C1370.14 203.554 1369.14 205.286 1367.95 205.54C1367.26 205.696 1366.61 206.001 1366.05 206.432C1365.49 206.864 1365.03 207.413 1364.7 208.04C1364.43 209.114 1364.28 211.347 1363.38 211.875C1362.49 212.402 1361.93 212.102 1361.16 213.208C1360.38 214.315 1358.67 214.674 1358.27 215.402C1357.87 216.129 1358.95 217.368 1361.18 216.918C1363.41 216.468 1365.97 214.654 1366.71 214.953C1367.45 215.253 1365.62 216.178 1365 216.979C1364.38 217.781 1365.21 218.021 1364.1 218.623C1362.98 219.225 1362.41 220.344 1360.39 220.938C1359.19 221.286 1358.1 221.914 1357.19 222.771C1356.24 223.386 1354.72 223.309 1354.16 223.864C1354 224.04 1353.89 224.258 1353.85 224.492C1353.81 224.727 1353.84 224.967 1353.93 225.186C1354.03 225.405 1354.18 225.592 1354.38 225.727C1354.57 225.861 1354.8 225.937 1355.04 225.944C1356.38 226.138 1358.19 225.706 1360.22 225.909C1361.69 226.03 1363.18 225.827 1364.57 225.315C1366.16 224.777 1367.71 224.087 1369.18 223.255C1370.78 222.476 1371.38 222.501 1372.47 221.305C1373.56 220.11 1375.69 218.066 1375.69 218.066C1375.69 218.066 1373.92 220.977 1372.83 222.564C1371.28 224.573 1369.37 226.276 1367.19 227.587C1365.26 228.672 1364.18 229.781 1362.44 230.285C1361.6 230.499 1360.83 230.924 1360.21 231.52C1359.58 232.115 1359.12 232.861 1358.87 233.686C1358.26 235.458 1352.45 238.57 1350.43 238.424C1348.42 238.278 1347.36 238.807 1347.34 239.3C1347.31 239.793 1347.74 241.254 1350.25 241.309C1351.32 241.208 1352.41 241.391 1353.39 241.839C1353.39 241.839 1351.37 243.142 1351.46 243.996C1351.55 244.851 1354.36 244.397 1355.54 244.36C1356.71 244.323 1358.81 243.425 1359.88 243.418C1360.95 243.411 1362.34 243.271 1362.34 243.271C1362.34 243.271 1361.96 244.201 1362.57 244.718C1363.19 245.236 1360.75 249.078 1359.84 249.49C1359.33 249.626 1358.85 249.864 1358.43 250.188C1358.02 250.511 1357.67 250.916 1357.41 251.376C1356.91 252.51 1351.1 254.998 1350.54 255.35C1349.98 255.701 1347.98 256.193 1348.04 256.917C1348.1 257.641 1348.5 258.725 1352.04 258.339C1351.96 259.224 1352.7 259.624 1354.05 259.398C1355.4 259.172 1355.75 259.821 1355.75 260.546C1355.76 261.27 1356.79 261.553 1358.04 261.27C1359.28 260.986 1361.64 260.752 1361.64 260.752C1360.59 261.721 1359.31 262.424 1357.93 262.806C1355.64 263.43 1352.91 266.478 1351.06 266.737C1354.7 267.61 1363.77 264.578 1363.77 264.578C1363.77 264.578 1355.68 269.067 1353.02 269.448C1348.98 269.995 1344.89 270.13 1340.83 269.849C1338.05 269.404 1336.08 271.229 1334.76 271.238C1333.44 271.247 1333.52 272.246 1335.84 272.882C1338.18 273.555 1340.46 274.432 1342.65 275.503C1344.11 276.261 1353.09 275.085 1353.09 275.085C1353.09 275.085 1348.19 278.016 1346.78 279.17C1345.37 280.325 1345.1 281.428 1346.52 281.317C1347.94 281.206 1347.71 281.86 1349.06 281.85C1350.41 281.841 1352.39 280.611 1353.9 280.992C1355.41 281.373 1357.02 280 1358 279.993C1358.97 279.986 1358.36 280.715 1360.9 280.698C1362.6 280.74 1364.28 280.339 1365.78 279.535C1366.84 279.006 1369.13 279.512 1370.82 278.834C1372.68 277.793 1374.41 276.536 1375.97 275.089C1374.19 277.345 1372.24 279.456 1370.13 281.404C1369.19 281.929 1368.12 282.182 1367.05 282.135C1366.38 282.299 1364.55 284.166 1363.32 284.739C1362.09 285.313 1358.98 285.812 1358.2 286.513C1357.23 287.219 1356.17 287.783 1355.04 288.186C1354.2 288.569 1354.25 289.366 1352.45 289.494C1350.65 289.622 1349.88 289.12 1348.85 290.648C1347.82 292.177 1345.14 291.557 1344.6 292.126C1344.05 292.695 1341.39 291.757 1340.93 292.151C1340.47 292.545 1341.83 294.42 1343.6 294.799C1345.37 295.179 1345.67 296.597 1348.65 295.635C1351.63 294.673 1350.59 296.549 1353.01 295.924C1354.47 295.541 1355.97 295.331 1357.48 295.3C1357.48 295.3 1355.32 298.488 1353.72 298.557C1352.13 298.626 1350.18 298.697 1350 299.712C1349.82 300.728 1351.99 301.844 1353.73 301.267C1355.46 300.69 1356.2 300.134 1357.2 300.722C1359.01 301.711 1361.13 301.977 1363.12 301.464C1365.69 300.751 1365.63 301.143 1367.38 299.87C1372.76 296.751 1377.39 292.484 1380.93 287.374C1377.72 294.467 1375.04 298.355 1370.39 300.908C1371.31 300.871 1372.23 300.753 1373.14 300.556C1373.14 300.556 1371.57 302.552 1372.65 303.458C1373.73 304.363 1375.75 302.248 1377.22 301.05C1378.47 299.879 1379.63 298.606 1380.67 297.244C1380.51 298.553 1380.25 299.849 1379.9 301.119C1379.46 302.383 1380.42 303.072 1381.9 302.642C1383.37 302.211 1387.12 298.491 1387.12 298.491L1386.76 314.912L1373.46 315.002L1370.06 316.474L1414.38 316.175L1410.44 314.274L1396.52 314.687C1396.69 312.461 1396.63 310.223 1396.35 308.007C1395.88 305.011 1395.49 298.391 1395.49 298.391C1395.49 298.391 1399.71 302.594 1402.26 302.084C1404.8 301.574 1402.34 299.692 1402.04 296.868C1404.66 300.227 1406.32 300.52 1407.05 301.501C1407.78 302.481 1409.79 303.192 1410.45 302.637C1411.12 302.082 1409.48 299.745 1409.48 299.745L1412.82 300.52C1410.72 299.158 1408.77 297.593 1406.98 295.849C1404.9 292.885 1403.03 289.784 1401.36 286.569C1403.47 289.637 1406.07 292.333 1409.06 294.546C1413.27 297.343 1415.32 299.344 1418.62 300.118C1420.85 300.692 1423.21 300.523 1425.34 299.638C1425.84 299.4 1426.39 299.28 1426.94 299.289C1427.5 299.298 1428.04 299.435 1428.53 299.689C1430.16 300.2 1432.66 299.661 1432.57 298.213C1432.47 296.764 1430.76 297.051 1429.17 297.033C1427.57 297.015 1425.53 293.971 1425.53 293.971C1426.78 293.981 1428.02 294.143 1429.23 294.453C1430.69 294.936 1430.39 294.112 1432.35 294.098C1434.31 294.085 1435.04 294.66 1436.42 293.984C1437.81 293.308 1441.95 291.99 1441.66 290.732C1441.38 289.473 1440.36 290.74 1438.52 290.753C1436.68 290.765 1435.23 289.326 1434.16 289.579C1433.55 288.207 1431.95 287.058 1430.64 287.705C1429.32 288.351 1428.26 287.721 1426.01 285.968C1423.77 284.215 1422.46 284.847 1421.18 284.16C1419.42 283.152 1417.61 282.24 1415.75 281.429C1413.51 280.502 1413.64 281.545 1412.45 281.002C1410.08 279.306 1408.02 277.229 1406.34 274.855C1410.85 278.535 1415.57 277.938 1417.16 278.767C1417.93 279.303 1418.82 279.643 1419.75 279.757C1420.69 279.872 1421.63 279.759 1422.51 279.427C1424.96 278.584 1424.83 279.049 1426.47 279.4C1428.19 279.744 1429.92 279.998 1431.65 280.162C1433.64 280.395 1436 280.046 1436.43 279.029C1436.86 278.011 1429.14 273.875 1429.14 273.875C1429.14 273.875 1434.27 274.913 1437.41 273.993C1440.55 273.074 1447.54 270.65 1447.53 269.795C1447.53 268.94 1446.48 268.541 1442.84 268.232C1439.2 267.924 1430.12 268.811 1428.34 268.33C1426.55 267.85 1417.06 263.074 1417.06 263.074C1417.06 263.074 1426.93 266.108 1431.58 265.454C1428.03 263.898 1424.05 261.287 1422.85 261.165C1421.9 260.949 1421.05 260.449 1420.4 259.732C1421.87 259.964 1423.35 260.118 1424.84 260.195C1425.96 260.188 1424.94 258.571 1426.28 258.128C1427.61 257.684 1428.6 258.416 1429.33 257.774C1430.07 257.131 1429.04 256.921 1429.5 256.7C1429.96 256.48 1433.35 257.08 1433.31 255.515C1433.27 253.95 1427.15 252.369 1424.35 250.359C1421.55 248.349 1422.48 247.98 1420.74 248.064C1419 248.149 1417.12 243.364 1417.12 243.364C1419.64 243.244 1422.16 243.281 1424.68 243.473C1427.73 243.786 1432.39 243.145 1432.13 241.727C1431.88 240.308 1427.43 241.309 1427.16 239.833C1426.89 238.357 1428.88 239.213 1429.44 238.6C1430 237.988 1428.58 236.128 1426.89 236.067C1425.75 236.156 1424.61 235.965 1423.56 235.51C1422.54 235.024 1422.67 234.342 1421.77 234.232C1420.87 234.122 1420.48 234.241 1420.32 233.894C1420.15 233.548 1420.87 231.615 1420.29 230.822C1419.72 230.029 1418.84 230.615 1418.46 230.4C1416.98 228.459 1414.95 227.009 1412.63 226.237C1408.27 224.643 1403.11 216.258 1402.4 214.553C1405.96 217.891 1405.84 217.529 1406.66 218.741C1407.48 219.953 1409.37 220.81 1410.45 221.614C1411.53 222.418 1413.37 224.333 1414.49 224.355C1415.61 224.376 1416.52 223.906 1417.61 224.203C1418.7 224.5 1419.46 224.046 1420.68 224.182C1421.9 224.319 1422.27 224.693 1423.26 224.266C1424.26 223.839 1425.16 224.123 1425.23 223.427C1425.3 222.731 1424.38 222.114 1423.36 221.599C1422.34 221.084 1422.19 220.375 1421.1 219.832C1420.01 219.289 1419.84 219.841 1418.19 218.721C1417.48 218.265 1416.7 217.91 1415.89 217.664C1415.53 217.392 1414.27 215.473 1413.42 214.783C1412.57 214.093 1413.6 213.593 1414.46 214.167C1415.45 214.862 1416.6 215.289 1417.8 215.405C1418.94 215.398 1421.65 215.524 1421.84 214.48C1422.04 213.435 1420 213.579 1419.09 212.324C1418.18 211.07 1418.43 211.199 1417.32 211.018C1416.22 210.837 1415.56 209.204 1415.41 208.581C1415.26 207.959 1415.17 205.946 1414.19 205.286C1413.22 204.625 1411.1 204.48 1409.63 203.78C1407.87 203.014 1406.22 202.006 1404.74 200.784C1405.94 200.573 1404.91 198.247 1404.45 197.888C1406.98 199.794 1409.89 201.129 1412.98 201.801C1414.23 201.824 1415.47 201.694 1416.69 201.414C1416.69 201.414 1411.26 198.552 1409.55 196.216C1411.11 195.727 1412.62 196.369 1413.49 195.508C1414.35 194.648 1414.93 195.31 1415.1 194.237C1415.27 193.163 1413.38 193.205 1412.19 193.401C1410.02 191.515 1407.56 189.982 1404.91 188.857C1403.13 187.951 1401.54 186.729 1400.2 185.251C1400.6 185.149 1401.02 185.129 1401.44 185.194C1401.85 185.258 1402.24 185.405 1402.6 185.626C1403.5 186.388 1407.83 187.634 1408.59 186.194C1409.35 184.754 1407.13 184.885 1405.65 180.852C1404.17 176.819 1401.24 172.433 1396.69 173.087C1392.14 173.741 1386.08 177.869 1386.08 177.869C1386.08 177.869 1393.28 171.139 1396.73 170.203C1400.17 169.267 1401.61 171.025 1402.89 169.48C1404.17 167.936 1401.8 168.039 1400.43 166.744C1399.06 165.449 1399.46 165.591 1400.41 164.599C1401.37 163.607 1401.58 161.345 1399.83 161.415C1398.07 161.484 1394.37 164.35 1393.37 166.733C1394.41 162.683 1395.33 157.837 1394.43 157.712C1393.78 157.664 1393.13 157.732 1392.51 157.914C1392.63 157.22 1392.5 156.504 1392.13 155.902C1393.77 153.862 1393.86 149.108 1392.77 148.521C1391.68 147.934 1390.17 150.886 1390.17 150.886C1390.17 150.886 1390.06 145.801 1389 145.866Z" fill="#405649"/>
<path d="M773.521 254.01C771.682 254.286 769.805 254.155 768.022 253.627C768.157 253.409 768.227 253.158 768.226 252.901C768.224 252.645 768.149 252.394 768.011 252.178C767.543 251.587 766.155 252.191 762.88 250.474C760.851 249.331 759.223 247.591 758.218 245.491C759.065 245.713 759.871 246.069 760.604 246.547C761.054 246.875 761.576 247.093 762.125 247.182C762.675 247.271 763.238 247.23 763.769 247.062C764.348 246.884 763.63 245.875 764.297 245.87C764.964 245.866 766.468 247.305 767.758 247.209C769.049 247.114 769.295 247.126 769.64 246.718C769.985 246.31 770.868 246.087 771.474 245.663C772.08 245.238 772.549 243.771 771.088 244.303C769.627 244.835 768.035 243.28 765.837 242.237C764.6 241.691 763.525 240.835 762.716 239.751C763.622 239.729 764.524 239.625 765.411 239.443C766.859 239.129 767.458 237.647 766.311 237.481C764.445 236.942 762.7 236.048 761.173 234.849C759.277 233.412 757.032 231.819 754.832 230.37C756.484 230.137 758.167 230.419 759.653 231.178C760.02 231.472 760.483 231.619 760.953 231.589C761.422 231.559 761.863 231.354 762.19 231.016C764.379 231.001 765.082 229.953 765.078 229.388C765.074 228.823 764.087 228.656 763.623 228.659C762.794 228.439 762.001 228.103 761.266 227.66C760.448 226.811 758.42 225.158 758.42 225.158C758.215 224.015 757.772 222.927 757.121 221.964C756.111 220.652 754.822 220.864 753.797 219.436C754.731 220.27 757.089 219.515 757.089 219.515C758.084 220.174 759.202 220.625 760.376 220.841C761.827 220.961 762.958 220.823 763.387 220.067C763.817 219.31 763.379 218.879 762.566 218.768C762.432 218.305 761.649 218.296 760.847 217.722C760.493 216.913 759.27 216.283 759.08 216.053C758.414 215.14 757.538 214.401 756.527 213.896C755.665 213.493 754.899 212.91 754.281 212.187C755.21 212.626 756.186 212.96 757.189 213.182C757.496 213.24 757.812 213.23 758.114 213.153C758.417 213.076 758.699 212.933 758.94 212.735C759.724 212.73 759.88 212.279 759.803 211.744C759.727 211.208 758.989 211.431 758.74 211.055C758.491 210.68 757.577 210.614 756.396 209.796C755.636 209.217 755.114 208.38 754.929 207.444C756.297 207.467 757.665 207.371 759.016 207.155C759.348 206.878 759.345 206.472 759.326 205.892C759.308 205.313 759.044 204.952 758.145 204.915C757.245 204.878 757.504 204.499 756.848 204.112C756.193 203.725 755.919 203.901 755.392 203.267C754.9 202.675 754.295 202.186 753.612 201.83C752.749 201.342 752.079 200.575 751.711 199.654C751.885 199.568 752.027 199.428 752.114 199.255C752.202 199.082 752.231 198.886 752.198 198.695L754.039 198.682C754.381 198.749 754.733 198.731 755.066 198.63C755.399 198.53 755.703 198.349 755.95 198.104C756.08 197.963 756.17 197.789 756.208 197.6C756.247 197.412 756.234 197.217 756.17 197.036C756.106 196.854 755.994 196.694 755.846 196.571C755.697 196.449 755.518 196.369 755.328 196.34C754.848 196.34 754.374 196.235 753.94 196.033C753.505 195.831 753.119 195.536 752.811 195.169C752.077 194.444 751.297 193.766 750.476 193.142C749.848 192.523 749.239 192.657 748.655 192.009C748.212 191.463 747.851 190.855 747.583 190.205C748.491 190.638 749.429 191.005 750.39 191.302C751.265 191.497 752.108 191.818 752.891 192.256C754.579 193.012 755.273 192.689 755.501 192.238C755.73 191.787 755.263 191.269 754.679 190.794C754.007 190.111 753.223 189.548 752.361 189.129C751.651 188.776 751.076 188.199 750.725 187.488C751.097 187.337 751.507 187.304 751.899 187.393C752.654 187.533 753.35 187.528 753.636 186.961C753.922 186.394 753.528 185.991 752.596 185.519C751.665 185.047 750.657 184.083 749.683 183.698C748.708 183.314 748.909 182.921 747.321 181.903C745.791 180.658 744.408 179.243 743.201 177.685C743.201 177.685 743.753 177.898 744.437 178.198C745.121 178.498 745.249 178.192 746.597 178.067C747.945 177.942 747.886 177.812 748.04 177C748.193 176.187 746.577 175.242 745.367 174.467C744.158 173.693 744.095 173.027 743.596 172.103C743.096 171.178 741.846 170.854 740.847 168.933C741.967 169.462 743.227 169.279 743.525 168.35C743.823 167.42 742.436 166.111 740.041 163.75C740.856 164.194 742.204 164.011 742.094 162.881C741.984 161.752 737.901 160.678 737.716 159.1C737.531 157.521 736.894 157.656 736.621 156.02C736.348 154.385 734.764 153.917 734.746 151.41C734.728 148.903 733.896 146.112 733.258 146.116C732.62 146.121 731.828 148.908 731.846 151.43C731.864 153.951 730.301 154.483 730.037 156.065C729.773 157.646 729.207 157.592 728.986 159.159C728.765 160.725 724.655 161.883 724.663 162.999C724.671 164.115 725.919 164.295 726.728 163.84C724.367 166.233 722.984 167.575 723.31 168.486C723.636 169.397 724.884 169.577 726.011 169.033C725.025 170.967 723.779 171.222 723.293 172.24C722.808 173.257 722.783 173.823 721.556 174.628C720.329 175.433 718.668 176.387 718.92 177.196C719.172 178.006 719.115 178.137 720.45 178.244C721.785 178.351 721.904 178.64 722.612 178.345C723.321 178.051 723.841 177.815 723.841 177.815C722.658 179.387 721.301 180.821 719.796 182.089C718.209 183.128 718.357 183.548 717.446 183.916C716.535 184.284 715.498 185.291 714.559 185.776C713.619 186.261 713.303 186.654 713.539 187.232C713.775 187.81 714.529 187.791 715.282 187.641C715.673 187.546 716.083 187.573 716.458 187.72C716.117 188.435 715.55 189.019 714.845 189.382C713.989 189.813 713.214 190.387 712.552 191.079C711.975 191.59 711.529 192.115 711.75 192.534C711.97 192.952 712.684 193.295 714.36 192.516C715.137 192.068 715.975 191.735 716.848 191.528C717.804 191.218 718.737 190.839 719.638 190.393C719.38 191.047 719.028 191.66 718.593 192.212C718.017 192.868 717.407 192.742 716.788 193.369C715.978 194.002 715.212 194.69 714.497 195.428C714.19 195.798 713.806 196.098 713.372 196.306C712.938 196.514 712.464 196.626 711.982 196.633C711.792 196.664 711.615 196.746 711.468 196.871C711.322 196.995 711.212 197.157 711.15 197.34C711.089 197.522 711.079 197.717 711.12 197.905C711.162 198.093 711.254 198.266 711.386 198.405C711.636 198.647 711.942 198.823 712.276 198.919C712.611 199.016 712.964 199.029 713.304 198.957L715.146 198.945C715.115 199.136 715.147 199.333 715.237 199.504C715.328 199.676 715.471 199.814 715.646 199.898C715.292 200.823 714.632 201.6 713.776 202.099C713.099 202.464 712.501 202.961 712.017 203.56C711.456 204.201 711.18 204.044 710.573 204.425C709.967 204.806 710.187 205.195 709.289 205.245C708.39 205.294 708.146 205.658 708.121 206.238C708.096 206.818 708.128 207.224 708.449 207.497C709.803 207.694 711.173 207.772 712.541 207.73C712.368 208.669 711.859 209.513 711.107 210.102C709.939 210.936 709.026 211.014 708.782 211.393C708.538 211.771 707.782 211.559 707.728 212.096C707.674 212.632 707.822 213.08 708.605 213.075C708.849 213.27 709.133 213.409 709.437 213.482C709.741 213.555 710.057 213.56 710.363 213.498C711.363 213.263 712.334 212.916 713.256 212.464C712.649 213.196 711.891 213.789 711.035 214.204C710.031 214.722 709.166 215.473 708.513 216.394C708.327 216.7 707.069 217.274 706.77 218.087C705.977 218.672 705.194 218.692 705.067 219.157C704.27 219.278 703.823 219.701 704.264 220.466C704.704 221.231 705.822 221.34 707.286 221.199C708.456 220.968 709.568 220.502 710.553 219.83C710.553 219.83 712.922 220.553 713.845 219.706C712.84 221.162 711.548 220.953 710.556 222.279C709.919 223.25 709.492 224.344 709.303 225.49C709.303 225.49 707.299 227.17 706.421 228.031C705.693 228.483 704.904 228.83 704.079 229.061C703.615 229.064 702.63 229.245 702.634 229.81C702.638 230.375 703.313 231.457 705.546 231.399C705.877 231.733 706.321 231.931 706.791 231.955C707.26 231.978 707.722 231.826 708.085 231.527C709.559 230.747 711.239 230.442 712.893 230.654C710.714 232.117 708.565 233.813 706.617 235.217C705.107 236.437 703.376 237.355 701.518 237.918C700.373 238.1 701.007 239.574 702.445 239.868C703.335 240.039 704.239 240.13 705.145 240.14C704.351 241.234 703.289 242.105 702.059 242.668C699.877 243.741 698.308 245.316 696.839 244.804C695.371 244.293 695.86 245.753 696.472 246.169C697.084 246.585 697.927 246.797 698.321 247.2C698.716 247.603 698.904 247.616 700.21 247.666C701.515 247.715 702.97 246.285 703.651 246.28C704.333 246.275 703.658 247.294 704.196 247.465C704.73 247.626 705.293 247.659 705.842 247.562C706.39 247.465 706.908 247.241 707.354 246.907C708.08 246.419 708.881 246.052 709.725 245.819C708.749 247.932 707.147 249.693 705.134 250.864C701.884 252.625 700.487 252.04 700.028 252.637C699.893 252.855 699.822 253.107 699.824 253.363C699.826 253.62 699.9 253.87 700.038 254.086C698.263 254.638 696.388 254.794 694.545 254.544C690.874 254.235 694.02 256.228 694.444 256.617C695.628 257.388 696.938 257.947 698.313 258.272C699.504 258.438 702.538 258.939 702.538 258.939C702.538 258.939 700.665 260.633 700.947 261.457C701.228 262.281 703.993 261.639 705.732 261.424C707.471 261.21 710.081 261.134 711.911 259.47C710.297 260.93 709.969 261.671 710.653 262.087C711.338 262.502 715.324 262.258 717.9 261.458C716.808 262.915 716.971 263.392 717.641 263.836C718.312 264.281 723.979 263.794 723.979 263.794C723.979 263.794 723.347 264.624 723.828 264.983C726.168 265.093 728.5 264.63 730.62 263.633L730.39 270.011C730.39 270.011 704.897 270.342 702.156 270.404C700.213 270.572 698.338 271.201 696.688 272.238L771.821 271.731C770.155 270.716 768.272 270.112 766.326 269.971C763.585 269.989 738.09 269.959 738.09 269.959L737.769 263.585C739.903 264.552 742.241 264.984 744.579 264.843C745.055 264.477 744.411 263.656 744.411 263.656C744.411 263.656 750.07 264.067 750.749 263.613C751.427 263.159 751.569 262.665 750.456 261.238C753.043 262.003 757.047 262.194 757.711 261.769C758.375 261.344 758.051 260.578 756.416 259.169C758.342 260.808 760.895 260.849 762.622 261.04C764.349 261.231 767.153 261.836 767.408 261.008C767.663 260.18 765.78 258.512 765.78 258.512C765.78 258.512 768.807 257.97 769.995 257.788C771.366 257.445 772.667 256.867 773.84 256.081C774.07 255.688 777.188 253.652 773.521 254.01Z" fill="#405649"/>
<path d="M1319.35 276.192C1318.67 270.936 1313.99 285.329 1286.38 264.459C1301.33 267.517 1307.76 262.561 1311.57 259.782C1303.34 262.113 1300.67 258.899 1300.67 258.899C1300.67 258.899 1316.79 253.167 1315.43 248.51C1314.08 243.853 1313.56 254.146 1295.81 248.643C1278.07 243.14 1277.27 233.102 1277.27 233.102C1277.27 233.102 1280.16 232.257 1280.35 229.98C1287.99 233.45 1297.55 231.314 1300.88 229.001C1292.56 229.594 1288.28 226.029 1288.28 226.029C1288.28 226.029 1293.05 222.779 1294.93 219.057C1291.31 221.052 1279.12 217.54 1270.17 203.283C1280.21 202.737 1284.1 198.247 1279.77 195.248C1285.2 195.921 1291.23 191.663 1290.65 190.305C1285.4 191.79 1278.38 191.113 1276.61 188.951C1274.84 186.789 1270.56 181.572 1270.56 181.572C1270.56 181.572 1274.1 182.91 1276.19 182.012C1278.29 181.114 1278.41 179.852 1279.82 180.277C1281.23 180.703 1282.17 179.827 1281.26 178.195C1280.9 177.409 1280.38 176.704 1279.74 176.125C1279.09 175.547 1278.34 175.105 1277.52 174.83C1275.86 174.086 1274.41 172.951 1273.29 171.522C1272.16 170.093 1271.41 168.413 1271.08 166.627C1269.88 161.65 1268.14 161.735 1268.14 161.735C1268.14 161.735 1268.3 137.445 1262.98 136.931C1257.65 136.416 1261.1 150.232 1256.47 155.64C1251.84 161.048 1251.2 162.371 1246.64 162.575C1242.09 162.78 1243.63 167.682 1247.89 168.494C1245.65 169.77 1239.74 168.795 1239.74 168.795C1241.01 169.93 1242.5 170.801 1244.11 171.36C1246.17 171.811 1248.29 171.987 1250.39 171.883C1250.39 171.883 1249.64 175.931 1252.71 177.07C1252.36 179.043 1244.05 182.606 1244.05 182.606C1244.05 182.606 1249.56 178.583 1247.6 176.901C1245.65 175.219 1244.28 176.924 1241.64 177.42C1239.01 177.916 1238.4 177.731 1233.36 176.809C1229.1 176.136 1225.05 174.486 1221.53 171.991C1218.26 169.682 1215.31 166.938 1212.77 163.833L1216.94 163.805L1214.01 160.767C1217.94 160.97 1221.87 160.885 1225.77 160.514C1230.12 159.89 1233.01 158.016 1232.27 155.861C1231.53 153.707 1229.79 153.791 1227.39 153.271C1224.99 152.751 1224.21 151.09 1221.68 150.151C1219.15 149.211 1217.54 150.338 1215.65 148.322C1213.77 146.306 1204.71 141.773 1202.17 137.051C1207.31 138.292 1212.6 135.43 1212.3 133.433C1211.99 131.435 1210.22 133.012 1208.14 132.823C1206.07 132.634 1205.37 130.045 1205.37 130.045C1207.73 130.738 1210.24 130.776 1212.62 130.155C1216.15 129.059 1216.94 125.387 1216.64 124.708C1216.35 124.029 1215.19 124.24 1212.7 124.503C1210.2 124.766 1207.22 123.627 1206.8 121.311C1206.45 119.969 1205.8 118.724 1204.89 117.673C1203.99 116.621 1202.85 115.791 1201.58 115.245C1202.22 115.088 1202.79 114.737 1203.22 114.242C1203.66 113.746 1203.93 113.13 1204 112.476C1204.49 113.165 1205.18 113.693 1205.98 113.994C1206.78 114.295 1207.64 114.356 1208.47 114.17C1211.37 113.513 1210.52 109.809 1208.82 108.371C1206.5 106.607 1204.87 104.077 1204.23 101.228C1203 96.8893 1201.07 95.1923 1201.05 92.2362C1201.03 89.28 1198.39 77.5016 1195.76 77.7802C1193.12 78.0589 1194.04 82.8059 1193.97 84.0092C1193.91 85.2124 1192.09 87.8478 1191.95 91.6745C1191.82 95.5012 1185.9 104.758 1184.57 107.506C1183.24 110.254 1175.16 109.25 1174.72 114.818C1174.28 120.386 1181.42 114.932 1181.43 117.251C1181.45 119.569 1177.64 121.624 1173.1 122.568C1168.57 123.511 1170.8 124.337 1167.22 125.39C1165.87 125.803 1164.67 126.586 1163.74 127.651C1162.82 128.715 1162.21 130.017 1161.99 131.41C1160.06 131.176 1158.2 130.521 1156.55 129.491C1156.77 130.24 1157.16 130.93 1157.68 131.512C1154.94 131.82 1154.41 131.056 1154.41 131.056C1154.41 131.056 1155.39 133.947 1160.54 134.217C1165.69 134.487 1167.33 136.316 1171.4 135.854C1168.22 137.324 1166.44 139.988 1164.01 140.251C1161.57 140.514 1155.81 141.263 1152.94 144.311C1150.08 147.359 1149.09 145.525 1149.14 147.8C1149.18 150.075 1150.6 148.95 1151.91 149.419C1154.32 150.55 1156.92 151.22 1159.58 151.396C1163.29 151.53 1164.69 150.405 1164.69 150.405C1164.69 150.405 1164.58 153.797 1166.66 154.536C1166.48 155.459 1165.97 156.285 1165.23 156.863C1164.49 157.44 1163.56 157.73 1162.62 157.679C1160.94 157.691 1159.56 158.729 1159.64 160.207C1159.72 161.684 1161.11 162.559 1163.89 162.54C1166.6 162.367 1169.29 162 1171.95 161.442C1166.98 168.143 1160.06 173.141 1152.14 175.749L1150.28 174.979C1151.21 174.115 1151.8 172.943 1151.94 171.678C1157.85 171.16 1161.66 168.714 1161.05 166.66C1160.44 164.607 1155.97 167.883 1148.86 160.758C1141.74 153.632 1140.65 150.828 1139.85 149.095C1139.33 148.036 1138.43 147.213 1137.33 146.793C1139.46 146.522 1141.57 146.125 1143.66 145.606C1146.41 144.877 1146.93 142.772 1145.9 141.533C1145.58 141.088 1145.13 140.746 1144.61 140.546C1144.1 140.347 1143.54 140.299 1143 140.407C1141.92 140.415 1140.51 138.975 1139.13 138.825C1138.85 138.822 1138.58 138.76 1138.33 138.644C1138.08 138.527 1137.86 138.359 1137.69 138.15C1137.51 137.941 1137.38 137.696 1137.3 137.432C1137.23 137.168 1137.21 136.891 1137.25 136.62C1137.29 136.217 1137.19 135.813 1136.96 135.477C1136.73 135.141 1136.4 134.892 1136.01 134.774C1135.69 134.776 1137.08 132.405 1135.72 131.457C1134.37 130.51 1134.27 130.395 1134.26 129.917C1134.26 129.438 1136.13 128.107 1135.69 126.675C1135.24 125.244 1136.16 125.223 1135.87 123.776C1135.52 122.533 1135.36 121.243 1135.41 119.953C1135.48 118.127 1134.49 117.409 1134.54 115.829C1134.58 114.249 1134.99 107.841 1133.44 107.648C1131.88 107.456 1131.29 109.692 1131.22 112.011C1130.7 115.052 1129.71 117.993 1128.28 120.726C1127.52 122.046 1127.18 123.563 1127.3 125.08C1127.52 125.977 1126.12 127.233 1126.27 128.376C1126.43 129.52 1127.15 129.675 1127.16 130.877C1127.17 132.08 1124.94 133.936 1122.63 134.372C1120.33 134.807 1119.16 133.917 1118.29 134.908C1117.41 135.899 1117.98 137.968 1119.87 138.825C1121.76 139.681 1122.94 140.615 1124.43 140.373C1120.11 143.968 1115.67 145.432 1113.48 144.418C1111.3 143.404 1111.83 144.647 1110.19 144.295C1108.55 143.944 1105.6 143.225 1105.6 143.225C1105.6 143.225 1109.58 147.705 1112.89 148.581C1110.61 150.046 1104.82 150.23 1104.82 150.23C1106.69 150.687 1108.48 151.376 1110.17 152.281C1111.34 153.229 1121.07 152.207 1121.07 152.207C1119.97 153.625 1118.58 154.791 1117 155.625C1114.11 157.196 1111.63 158.56 1109.6 159.429C1107.58 160.297 1104.42 161.058 1101.48 162.034C1098.55 163.01 1097.68 161.263 1096.65 161.11C1095.62 160.958 1095.2 161.671 1094.21 160.996C1093.22 160.322 1089.54 160.55 1087.7 159.49C1089.04 163.741 1096.27 169.286 1101.94 170.277C1104.91 170.943 1107.99 170.922 1110.96 170.216C1112.4 171.626 1114.31 172.454 1116.32 172.542C1109.12 179.01 1105.35 181.239 1098.71 182.008C1100.85 178.342 1101.85 177.016 1101.57 176.482C1101.29 175.947 1090.83 181.279 1086.41 181.366C1081.29 181.624 1076.18 180.846 1071.37 179.077C1065.97 176.969 1056.99 175.29 1054.8 171.769C1065.3 175.35 1071.15 172.557 1075.46 172.528C1079.76 172.499 1084.95 169.174 1084.95 169.174C1081.91 168.756 1078.85 168.598 1075.79 168.7C1072.94 163.705 1066.41 162.604 1059.68 159.36C1073.24 164.949 1079.85 160.673 1079.85 160.673C1079.85 160.673 1073.66 157.367 1072.39 153.318C1079.09 153.447 1087.95 145.069 1087.95 145.069C1087.95 145.069 1064.58 141.749 1052.05 130.66C1062.21 131.07 1074.77 127.043 1074.72 120.464C1074.67 113.885 1074.23 119.511 1063.93 118.146C1053.62 116.781 1049.78 114.662 1049.78 114.662C1049.78 114.662 1059.23 114.352 1055.97 108.824C1067.48 111.499 1074.05 109.904 1080.35 104.109C1067.3 105.646 1060.03 101.855 1060.03 101.855C1060.03 101.855 1067.81 101.686 1071.02 97.2446C1065.74 96.4397 1062.3 95.9848 1054.96 95.4402C1047.62 94.8956 1047.04 92.8562 1047.04 92.8562C1047.04 92.8562 1054.88 90.2092 1054.47 87.1108C1054.05 84.0124 1049.03 86.8142 1041.36 78.7362C1048.01 82.604 1051.42 80.3492 1051.42 80.3492C1049.15 78.1118 1047 75.7561 1044.99 73.2918C1042.82 70.4081 1040.48 68.2211 1039.66 64.6327C1038.84 61.0444 1040.51 59.352 1038.9 57.5369C1037.29 55.7218 1038.85 51.2334 1036.69 51.2479C1034.53 51.2625 1035.91 53.3255 1034.5 56.7696C1033.09 60.2137 1031.9 61.8883 1032.01 65.4814C1032.12 69.0746 1023.18 79.8154 1020.21 88.3566C1023.37 87.1831 1026.14 85.1579 1028.21 82.5058C1028.21 82.5058 1025.36 89.5391 1024.25 92.0681C1023.14 94.5972 1020.93 95.5976 1019.71 97.997C1018.5 100.396 1017.38 100.158 1015.18 101.129C1012.98 102.1 1012.64 103.102 1012.58 104.146C1012.51 105.19 1013.19 106.693 1016.15 106.875C1011.57 109.254 1004.34 112.535 1001.91 113.899C999.488 115.263 1001.18 117.222 1003.39 117.801C1006.5 118.801 1009.82 118.969 1013.01 118.287C1015.16 117.816 1017.23 117.051 1019.17 116.014C1018.29 117.157 1017.59 118.427 1017.08 119.781C1016.34 121.902 996.314 131.761 988.171 132.729C994.819 135.583 1016.18 131.7 1021.78 127.676C1014.17 140.973 1006.64 142.097 1000.67 144.412C994.696 146.728 990.627 145.552 989.319 147.242C988.011 148.932 987.706 156.934 1006.27 156.924C1003.54 161.29 997.793 159.981 996.244 162.383C994.695 164.784 995.94 168.602 1001.21 169.16C1006.48 169.719 1004.13 172.372 1004.13 172.372C1002.45 174.992 1000.75 178.076 999.348 178.679C997.945 179.283 994.636 176.871 992.631 176.348C990.626 175.825 986.316 175.362 984.014 171.928C988.772 172.012 992.959 169.448 992.19 167.453C991.422 165.459 986.245 165.551 983.312 162.977C980.378 160.403 977.482 158.916 975.862 155.477C979.64 156.582 983.938 153.22 982.691 151.287C981.445 149.353 977.554 150.727 972.719 146.007C978.659 147.097 982.301 143.304 981.593 141.744C980.886 140.184 972.887 141.049 968.746 133.846C971.654 134.884 976.26 134.172 976.296 133.128C976.332 132.085 972.427 131.502 969.696 126.768C966.964 122.033 968.35 119.125 966.276 117.009C965.773 115.722 965.473 100.16 964.792 100.194C964.111 100.227 962.686 107.802 962.847 110.134C963.009 112.466 963.604 114.476 962.603 116.468C961.828 118.053 961.505 119.82 961.668 121.576C961.679 123.126 960.075 123.992 959.793 125.153C959.512 126.315 955.993 127.121 956.072 127.946C956.15 128.772 958.532 129.263 959.246 129.678C959.959 130.094 954.386 133.494 950.82 133.808C947.255 134.121 948.307 135.274 947.19 135.165C946.073 135.057 945.735 134.523 945.607 134.814C945.517 135.1 945.501 135.404 945.56 135.698C945.618 135.993 945.749 136.268 945.941 136.498C946.133 136.729 946.38 136.908 946.659 137.019C946.937 137.13 947.24 137.169 947.538 137.134C949.698 137.018 949.782 138.698 951.509 138.875C952.682 138.98 953.862 138.972 955.033 138.851C955.033 138.851 953.599 141.093 952.311 141.464C951.023 141.835 948.715 141.488 948.36 142.635C948.006 143.782 949.714 145.292 951.875 145.35C953.22 145.374 954.559 145.159 955.829 144.715C955.829 144.715 952.112 148.117 949.272 148.382C946.431 148.648 942.225 148.546 941.463 149.449C940.7 150.353 941.304 151.639 944.69 152.587C948.076 153.535 948.2 154.722 948.2 154.722C948.2 154.722 944.679 155.065 944.423 155.748C944.166 156.431 944.99 158.048 948.109 158.1C949.678 158.236 951.253 157.913 952.641 157.17C952.641 157.17 948.845 159.645 946.595 161.341C944.344 163.038 939.615 162.838 938.332 163.846C937.048 164.855 934.523 164.626 933.335 164.749C932.147 164.873 930.36 166.494 932.824 168.347C935.288 170.2 941.076 170.334 941.076 170.334C941.076 170.334 937.94 173.964 941.836 175.257C941.174 178.029 933.31 181.473 932.31 181.654C931.311 181.834 929.134 181.675 927.964 182.335C926.794 182.995 926.334 185.433 929.764 186.497C933.194 187.56 935.508 190.69 940.333 190.193C938.186 192.121 930.466 195.433 930.466 195.433C930.466 195.433 922.732 190.892 919.098 185.67C916.318 181.427 913.21 177.407 909.803 173.647C915.747 175.311 921.965 175.762 928.086 174.973C932.04 174.366 934.485 173.48 934.48 172.828C934.476 172.176 926.113 170.885 924.891 170.313C928.011 168.568 927.488 166.383 927.488 166.383C927.488 166.383 921.452 168.076 915.16 162.293C908.868 156.51 901.279 147.764 898.685 139.913C904.48 146.377 911.646 151.468 919.66 154.814C923.66 156.41 932.211 157.627 937.586 154.852C931.785 152.971 926.342 150.127 921.486 146.44C921.486 146.44 930.797 142.551 929.125 135.881C922.658 135.925 914.968 133.441 910.416 129.588C905.863 125.735 905.198 125.957 905.198 125.957C905.198 125.957 913.152 120.875 910.926 115.774C910.425 114.748 905.618 115.81 902.006 113.588C898.393 111.366 897.64 111.458 896.176 109.526C899.386 110.229 904.987 108.641 904.21 105.559C903.434 102.478 898.921 102.131 896.737 98.8855C897.555 97.5757 897.591 96.6481 897.049 95.8547C898.798 95.0603 899.647 92.0982 899.345 90.3468C898.34 87.1731 896.717 84.229 894.569 81.684C892.317 79.0472 891.542 63.9811 890.455 64.0609C889.368 64.1407 890.481 67.6982 889.378 69.6475C888.356 71.9023 887.806 74.3422 887.762 76.8174C887.68 79.2848 886.875 81.6736 885.447 83.6875C884.008 85.2914 882.481 86.6059 882.272 87.8536C882.063 89.1013 878.643 89.4577 878.624 90.7766C878.67 92.1816 879.226 93.522 880.188 94.5483C880.942 95.0334 881.82 95.2893 882.717 95.2848C881.223 97.3184 879.239 98.9418 876.95 100.005C873.321 101.609 871.796 103.373 871.659 104.489C871.522 105.606 872.606 107.077 874.741 107.497C876.876 107.918 877.058 109.09 878.669 109.224C880.28 109.358 880.31 107.561 881.557 107.553C882.805 107.544 883.618 107.655 883.649 108.046C883.681 108.437 880.11 109.896 879.643 111.594C879.177 113.293 876.279 113.704 874.442 114.296C872.604 114.888 869.991 114.471 869.49 115.445C868.989 116.419 864.974 118.707 864.881 119.925C864.789 121.143 868.849 121.087 869.828 122.051C870.806 123.016 876.72 124.628 877.721 124.664C878.722 124.701 878.738 124.976 878.74 125.165C878.741 125.353 875.676 124.606 874.137 126.37C872.598 128.133 872.826 129.654 869.806 129.167C866.786 128.68 866.155 131.756 861.592 132.396C857.028 133.035 838.526 131.421 833.299 124.544C835.772 129.542 839.245 132.605 840.072 134.643C840.899 136.68 844.288 136.063 846.564 137.946C848.84 139.829 852.928 143.7 854.751 143.18C853.471 144.638 844.623 146.365 840.256 144.133C842.38 147.148 848.014 148.081 849.53 149.143C852.621 150.559 856.078 150.972 859.414 150.322C862.085 149.702 864.816 149.372 867.558 149.34C867.806 149.643 868.139 149.866 868.514 149.98C868.889 150.094 869.29 150.093 869.665 149.978C869.08 151.329 864.353 153.463 861.617 156.177C858.881 158.891 842.105 167.424 836.808 166.865C838.276 169.391 844.096 171.989 848.565 172.336C852.489 172.473 856.418 172.34 860.323 171.938C860.323 171.938 860.507 175.284 854.803 176.67C859.303 179.336 869.317 178.239 869.317 178.239C869.317 178.239 865.973 179.131 861.745 184.087C857.517 189.043 847.429 189.85 845.125 192.227C842.822 194.605 835.707 197.363 833.125 197.381C830.544 197.398 823.2 198.636 821.525 197.618C819.85 196.601 817.182 198.619 821.348 203.242C825.514 207.866 827.491 208.476 831.537 208.448C835.583 208.421 844.976 207.822 844.976 207.822C844.976 207.822 832.124 215.516 831.755 216.606C831.386 217.695 832.698 220.701 837.988 220.288C843.279 219.876 854.482 216.945 858.241 213.297C857.887 216.429 859.894 217.227 861.344 217.276C862.795 217.324 867.062 215.788 871.456 211.642C869.221 215.498 859.762 227.184 850.805 231.998C841.848 236.812 831.908 237.922 831.213 240.115C830.518 242.308 830.889 245.508 837.664 245.868C844.439 246.228 849.271 246.572 849.271 246.572C849.271 246.572 838.12 258.951 830.885 263.174C823.649 267.396 815.302 268.235 812.716 267.644C810.131 267.053 809.124 270.262 812.313 271.994C815.501 273.726 817.722 274.044 818.728 274.762C819.734 275.48 824.413 274.724 827.435 275.558C830.458 276.393 840.66 273.31 840.66 273.31C840.387 273.818 840.284 274.4 840.366 274.97C840.448 275.541 840.712 276.07 841.117 276.48C835.097 280.187 834.405 284.931 831.687 286.109C828.969 287.286 817.22 290.974 814.564 294.76L1300.98 291.474C1300.98 291.474 1319.95 281.463 1319.35 276.192ZM914.994 220.058C913.577 218.683 912.587 216.928 912.145 215.005L919.525 218.839C919.525 218.839 916.962 219.407 914.922 220.058L914.994 220.058ZM925.396 210.394L931.446 210.788L928.769 213.704L925.396 210.394ZM938.661 240.186C935.45 238.814 932.643 236.643 930.509 233.88C936.471 236.1 945.309 234.852 945.309 234.852L938.661 240.186ZM1078.5 200.94L1077.19 197.5L1080.39 193.913L1084.65 198.232L1078.5 200.94ZM1158.2 204.605L1154.29 200.747L1160.73 200.704L1158.2 204.605ZM1163.93 194.001L1158.11 191.142L1167.61 191.078L1163.93 194.001ZM1165.58 183.411L1158.1 180.447C1158.1 180.447 1169.54 180.153 1172.98 178.405C1171.04 180.577 1165.45 183.412 1165.45 183.412L1165.58 183.411ZM1241.44 195.594C1240 196.183 1231.96 197.455 1230.18 201.003C1228.41 204.551 1238.37 207.773 1238.37 207.773C1237.19 209.866 1236.36 212.131 1235.89 214.485L1225.48 206.425L1227.71 206.41L1218 197.404L1223.63 199.308L1216.32 190.662C1216.32 190.662 1225.18 190.457 1227.77 192.309C1230.37 194.161 1228.17 186.843 1226.27 185.349C1230.37 186.083 1234.57 186.055 1238.66 185.265C1238.66 185.265 1234.58 188.669 1231.99 190.701C1229.41 192.733 1230.44 194.451 1236.99 193.566C1239.58 193.314 1242.15 192.866 1244.68 192.224C1244.68 192.224 1242.76 195.02 1241.31 195.594L1241.44 195.594Z" fill="#405649"/>
<path d="M239.35 303.717L752.071 300.254L752.062 298.95L701.712 299.29C701.712 299.29 691.163 294.361 685.887 294.73C686.904 292.955 684.003 292.917 681.226 291.95L678.449 290.984C678.449 290.984 684.051 291.598 687.137 289.099C690.223 286.6 689.471 282.939 688.543 282.945C687.615 282.951 686.685 284.653 685.987 284.527C685.29 284.402 677.64 281.323 675.022 276.167C680.4 279.928 688.827 276.074 688.827 276.074C687.21 275.607 685.532 275.379 683.848 275.397C689.972 273.907 691.067 270.9 691.067 270.9C691.067 270.9 684.383 273.162 681.735 271.876C680.377 271.288 679.126 270.478 678.034 269.481C680.276 269.712 682.541 269.449 684.67 268.711C674.225 268.13 670.392 263.518 669.856 261.565C669.32 259.613 668.028 257.462 668.867 257.123C669.706 256.784 672.157 258.941 676.466 257.072C675.609 256.441 674.61 256.029 673.557 255.874C673.557 255.874 677.447 254.399 677.436 252.79C677.424 251.182 674.129 252.726 672.834 252.169C671.539 251.613 668.65 249.111 668.645 248.415C668.64 247.72 672.29 247.028 672.014 244.943C671.738 242.858 668.618 244.662 667.102 243.527C665.585 242.393 667.689 240.509 666.035 238.39C666.308 238.332 666.566 238.215 666.789 238.047C667.011 237.878 667.194 237.662 667.324 237.415C667.454 237.168 667.527 236.895 667.539 236.616C667.552 236.337 667.502 236.059 667.394 235.801C667.085 235.195 665.353 234.25 665.515 232.597C665.677 230.944 665.721 230.987 666.374 231.026C667.027 231.065 666.785 229.661 666.189 229.448C665.592 229.234 663.598 228.117 663.548 227.292C663.333 225.615 663.262 223.924 663.338 222.236C663.369 219.893 663.124 217.555 662.606 215.27C662.093 217.573 661.862 219.93 661.917 222.289C661.937 225.071 661.047 226.396 660.928 227.962C660.809 229.527 661.388 231.451 661.09 232.308C660.791 233.165 659.664 235.709 660.31 236.893C660.957 238.077 661.523 238.189 660.584 238.673C659.645 239.158 657.535 240.215 658.021 241.256C658.507 242.296 659.101 242.176 659.101 242.176C657.712 242.963 656.209 243.53 654.646 243.858C652.748 244.088 652.935 245.913 654.362 246.599C655.438 247.285 656.578 247.865 657.767 248.329C658.376 248.325 659.487 247.477 659.778 247.62C660.065 248.245 660.133 248.948 659.972 249.617C659.811 250.285 659.43 250.88 658.891 251.307C657.289 252.419 657.283 251.579 655.999 252.5C654.715 253.422 655.143 254.462 653.911 254.601C652.68 254.74 652.12 255.526 652.342 256.22C652.565 256.914 654.482 257.351 655.381 257.345C656.28 257.339 658.121 257.152 658.121 257.152C657.011 259.32 655.316 261.134 653.227 262.388C654.535 262.505 655.85 262.276 657.04 261.723C658.23 261.171 659.253 260.314 660.006 259.241C660.006 259.241 657.155 266.071 652.819 268.187C648.484 270.303 646.522 269.679 646.354 270.637C645.467 270.788 644.557 270.75 643.685 270.524C645.096 271.693 646.794 272.462 648.603 272.752C650.101 273.075 651.647 273.109 653.158 272.851C651.847 273.678 650.36 274.185 648.817 274.33C651.075 275.052 653.525 274.864 655.644 273.806C655.644 273.806 653.261 277.227 650.215 277.117C650.46 277.599 650.827 278.007 651.279 278.302C651.732 278.596 652.255 278.767 652.794 278.795C652.794 278.795 650.788 286.258 640.988 284.759C646.391 283.809 645.658 280.771 646.753 279.662C648.926 277.387 649.217 275.429 648.433 275.303C647.649 275.178 637.121 279.307 631.555 275.736C634.856 276.31 638.252 275.92 641.336 274.612C641.336 274.612 636.008 273.822 634.971 272.829C633.935 271.836 636.845 271.165 638.775 271.354C640.705 271.544 645.853 269.51 647 267.546C648.146 265.581 646.331 263.318 646.331 263.318C646.331 263.318 650.019 261.844 650.379 259.509C644.861 262.633 641.819 263.045 639.099 261.933C636.379 260.821 635.658 261.391 634.146 260.923C632.711 260.195 631.414 259.223 630.312 258.05C631.08 257.472 631.705 256.723 632.138 255.864C636.616 257.486 640.569 256.633 641.8 254.277C643.03 251.921 641.16 250.05 639.02 250.977C636.881 251.905 630.955 246.684 630.955 246.684C630.955 246.684 637.372 247.598 642.032 244.262C639.323 244.585 637.858 244.638 637.858 244.638C637.858 244.638 642.959 242.067 642.97 237.459C643.05 236.574 641.033 238.429 638.081 239.318C635.129 240.207 628.476 236.586 628.476 236.586C628.476 236.586 633.796 234.333 633.772 231.014C633.749 227.696 629.847 229.679 627.443 228.057C625.038 226.436 624.192 225.717 624.277 225.412C626.984 223.874 629.077 221.449 630.202 218.547C628.514 218.983 627.045 220.024 626.076 221.473C626.076 221.473 626.017 213.271 625.871 211.055C625.724 208.838 623.534 208.839 623.527 207.868C623.521 206.897 623.079 197.857 620.977 198.002C618.875 198.146 620.15 202.021 620.837 202.756C621.524 203.49 620.855 205.248 620.01 206.732C619.348 207.951 619.018 209.323 619.052 210.709C619.057 211.448 617.431 213.155 617.434 213.619C617.438 214.082 618.905 216.507 618.467 218.148C618.029 219.788 617.261 217.721 617.618 221.052C617.975 224.382 619.952 222.905 619.712 223.936C619.473 224.966 618.077 224.411 616.994 225.056C615.911 225.701 615.901 226.338 615.249 226.357C614.596 226.376 611.156 225.907 610.394 226.883C609.977 227.315 609.729 227.882 609.695 228.482C608.827 228.075 608.056 227.488 607.435 226.758C608.372 230.085 609.668 230.829 610.847 231.343C612.025 231.857 613.474 231.659 614.087 232.278C613.412 233.152 610.483 233.273 610.483 233.273C612.006 233.819 613.614 234.088 615.231 234.067L620.118 234.034C618.515 235.104 616.829 236.045 615.077 236.85C612.692 237.866 612.886 238.633 611.523 238.729C610.161 238.825 609.364 238.961 609.139 239.963C608.914 240.964 609.969 242.435 612.306 242.753C614.237 242.909 616.178 242.896 618.107 242.714C618.291 242.767 618.455 242.874 618.579 243.02C618.702 243.167 618.78 243.347 618.801 243.537C618.823 243.728 618.788 243.92 618.7 244.091C618.612 244.261 618.476 244.402 618.308 244.495C616.996 245.576 614.748 245.504 613.841 246.525C613.457 246.996 612.961 247.364 612.397 247.593C611.834 247.822 611.221 247.906 610.617 247.836C609.079 247.847 608.811 248.805 607.651 248.885C606.492 248.965 604.751 248.905 604.294 249.879C604 250.601 603.94 251.397 604.122 252.155C602.845 252.042 601.592 251.743 600.403 251.267C602.42 253.471 606.381 255.734 609.512 255.553C611.212 255.462 612.905 255.277 614.584 254.997C614.584 254.997 615.158 256.167 616.042 256.161C613.603 257.786 613.162 258.92 611.031 259.093C608.9 259.267 600.59 259.164 596.78 255.799C600.052 261.008 603.714 262.07 603.714 262.07C603.714 262.07 599.711 261.967 599.042 263.71C598.372 265.454 599.625 268.155 602.76 268.569C605.896 268.983 606.253 270.342 607.461 270.899C609.481 271.373 611.542 271.65 613.616 271.727C613.089 272.702 612.333 273.534 611.413 274.151C610.493 274.768 609.436 275.152 608.333 275.27C604.853 275.293 592.589 271.971 592.589 271.971C592.589 271.971 596.975 276.854 600.683 278.321C592.766 278.375 571.631 271.663 567.726 267.11C574.448 268.05 587.329 266.514 592.461 264.262C575.63 263.071 555.985 255.813 551.122 251.064C558.59 253.374 566.576 253.416 574.066 251.184C574.066 251.184 565.967 246.268 560.482 243.813C567.733 243.764 571.978 247.199 575.523 248.059C579.067 248.919 595.522 250.213 600.173 247.501C604.823 244.789 607.999 240.782 607.022 240.006C606.045 239.23 602.073 241.489 596.458 241.193C590.844 240.898 584.637 236.926 580.236 235.941C578.989 235.692 577.825 235.134 576.851 234.317C575.877 233.501 575.124 232.452 574.663 231.269C574.663 231.269 575.637 231.653 580.902 229.777C586.168 227.901 589.484 229.198 593.142 227.738C596.801 226.279 602.71 223.094 601.215 221.018C599.721 218.941 592.789 222.958 588.173 222.41C583.558 221.861 576.694 221.241 572.491 219.617C568.288 217.994 564.042 218.501 560.417 216.496C556.791 214.492 553.933 212.294 550.23 211.537C546.526 210.779 543.007 203.34 543.007 203.34C543.007 203.34 548.042 203.697 549.83 202.38C551.619 201.064 551.553 199.949 551.553 199.949C551.553 199.949 560.859 203.291 566.285 203.646C571.712 204.001 573.165 202.426 575.293 201.817C577.42 201.209 581.667 200.919 581.916 199.222C582.165 197.525 563.804 191.301 563.804 191.301C570.087 191.351 576.349 190.563 582.423 188.958C573.519 189.019 557.555 187.503 547.452 182.079C537.348 176.655 535.187 172.496 535.187 172.496C535.187 172.496 540.863 173.284 542.201 171.84C543.539 170.396 536.929 164.746 536.929 164.746C540.376 165.906 543.96 166.607 547.589 166.833C551.707 166.805 558.147 166.892 563.841 160.057C560.559 159.223 557.407 157.942 554.474 156.251C554.474 156.251 568.965 154.704 574.561 144.218C572.761 145.437 570.715 146.246 568.567 146.588C566.42 146.931 564.223 146.798 562.132 146.2C559.224 145.176 554.962 143.35 552.122 143.659C549.281 143.968 545.713 139.833 542.943 139.852C540.174 139.871 539.665 141.772 534.643 141.154C529.62 140.536 527.142 138.727 527.137 138.002C527.132 137.278 529.33 134.35 525.303 131.015C521.276 127.68 517.748 120.922 518.266 120.382C518.784 119.843 520.945 121.944 523.265 121.798C525.584 121.652 528.554 123.327 530.962 123.398C533.37 123.468 533.855 122.335 536.251 122.71C538.917 123.191 541.64 123.275 544.33 122.96C548.679 122.626 552.41 117.108 552.41 117.108C549.95 118.12 547.278 118.512 544.63 118.248C542.013 118.044 539.445 117.43 537.018 116.43C537.018 116.43 543.762 116.515 546.448 112.874C542.409 113.901 529.978 111.536 527.576 110.262C525.174 108.989 523.333 101.002 517.431 99.0271C511.529 97.0526 510.781 93.8551 510.781 93.8551C510.781 93.8551 519.176 95.6678 523.529 91.9285C527.882 88.1892 527.43 83.8012 526.269 83.7221C525.108 83.643 524.989 85.1799 522.579 84.8339C520.169 84.4879 518.592 80.9336 518.592 80.9336L521.741 81.1732C521.741 81.1732 520.557 77.8771 514.144 77.4856C507.731 77.0942 510.051 74.9772 509.299 73.3302C508.548 71.6833 510.49 71.4963 511.344 71.2152C512.197 70.9341 517.653 69.3466 520.895 66.3249C524.136 63.3033 523.416 57.9317 522.285 57.9393C521.154 57.9469 520.847 59.6881 519.164 59.569C518.219 59.5572 517.289 59.3309 516.445 58.9073C515.6 58.4837 514.863 57.8738 514.288 57.1238C513.378 55.5214 510.584 56.3228 509.039 57.1593C507.493 57.9958 506.601 58.9582 505.783 58.1812C504.623 56.7457 503.95 54.979 503.861 53.1366C503.76 51.094 506.381 50.598 507.807 47.1828C509.233 43.7676 508.799 35.8436 508.913 33.6256C509.028 31.4076 511.23 26.9727 510.048 23.9809C508.866 20.9891 504.312 14.8609 503.655 12.1699C502.997 9.47889 501.593 1.67734 501.593 1.67734C501.593 1.67734 500.585 10.8429 500.53 15.1908C500.474 19.5387 500.025 27.7585 499.276 30.459C498.526 33.1595 499.231 36.3864 497.892 39.7141C496.552 43.0417 494.764 46.4014 495.424 49.5417C495.504 50.3308 495.762 51.0917 496.178 51.7667C496.595 52.4418 497.16 53.0133 497.831 53.4382C497.831 53.4382 498.362 54.8113 497.599 55.599C496.837 56.3867 485.872 58.2577 482.537 56.3818C480.139 55.0408 478.241 52.9584 477.129 50.4478C476.988 53.2959 477.504 56.1386 478.639 58.7559C479.783 61.2121 481.435 63.3986 483.485 65.1719C483.261 65.8939 483.296 66.6716 483.584 67.3708C483.872 68.07 484.396 68.6467 485.064 69.0015C487.482 70.4344 493.633 70.7696 493.633 70.7696C493.633 70.7696 491.401 76.9727 489.467 78.3045C487.533 79.6363 484.316 77.948 481.576 80.1402C478.837 82.3325 475.919 82.0044 473.877 84.3368C471.834 86.6693 472.569 88.0846 473.164 88.0805C473.758 88.0765 475.649 86.7595 477.032 87.4892C478.415 88.219 479.063 89.5768 481.055 90.3604C482.347 90.8965 483.706 91.2531 485.094 91.42C485.094 91.42 480.78 96.5067 477.578 97.0066C485.451 98.6924 489.696 92.041 491.936 92.9389C494.176 93.8367 493.008 98.8588 489.102 102.204C485.195 105.549 473.008 110.863 467.164 110.902C461.32 110.942 460.839 110.64 459.559 112.084C458.278 113.527 460.028 114.82 463.643 115.389C467.258 115.959 467.339 117.132 470.488 117.372C471.936 117.576 473.408 117.521 474.837 117.212C474.837 117.212 465.276 122.639 468.325 125.226C471.375 127.814 473.088 124.02 476.176 123.927C479.265 123.834 481.007 124.097 481.859 125.657C482.711 127.216 487.968 124.166 490.656 120.83C493.344 117.493 490.884 126.248 489.867 128.081C488.851 129.914 483.404 134.849 478.343 138.883C473.281 142.916 464.15 147.673 456.658 148.507C449.166 149.34 445.258 148.381 444.56 150.037C443.861 151.694 445.367 155.394 450.405 156.273C455.444 157.152 461.352 155.866 462.461 156.844C463.57 157.822 460.013 165.352 456.727 166.171C453.441 166.991 451.57 166.989 451.137 169.339C450.704 171.69 455.513 172.904 458.412 172.623C461.31 172.343 468.11 168.051 468.11 168.051C468.11 168.051 466.026 174.673 467.074 177.275C462.327 180.64 447.499 197.942 447.499 197.942C444.406 196.28 441.037 195.193 437.556 194.734C430.703 193.534 431.202 190.429 431.202 190.429C431.202 190.429 432.343 187.668 437.176 188.157C442.008 188.646 450.804 181.529 451.492 178.452C452.181 175.375 449.528 175.466 449.528 175.466C449.657 174.644 449.608 173.805 449.384 173.004C449.16 172.203 448.766 171.459 448.229 170.823C447.693 170.188 447.025 169.675 446.272 169.32C445.52 168.965 444.699 168.776 443.867 168.765C437.235 168.158 435.929 166.008 431.133 162.504C426.336 159 425.819 159.642 425.819 159.642C425.819 159.642 428.501 155.508 430.426 154.973C432.351 154.438 436.689 154.728 439.882 150.924C443.074 147.12 444.804 145.659 445.961 145.188C447.117 144.716 447.038 141.717 442.692 138.283C438.345 134.849 438.318 135.11 436.37 132.456C435.243 130.902 433.782 129.62 432.094 128.703C432.094 128.703 433.405 125.462 432.785 123.945C432.165 122.427 429.587 120.865 429.66 118.908C429.733 116.952 429.305 111.853 426.569 108.51C425.623 107.418 424.907 106.148 424.464 104.774C424.02 103.4 423.859 101.951 423.988 100.513C424.093 98.8896 423.946 94.543 421.902 92.7598C419.859 90.9766 421.613 86.8346 419.889 87.0637C418.165 87.2927 419.282 91.4153 419.077 93.0832C418.871 94.7512 417.633 94.006 417.347 98.5438C417.06 103.082 418.188 106.61 416.524 109.143C414.859 111.676 411.406 115.452 410.323 120.169C409.24 124.887 412.399 126.561 412.399 126.561C412.399 126.561 413.853 127.029 413.626 129.784C413.399 132.539 416.887 135.559 417.699 135.553C417.081 138.34 415.759 140.015 412.873 140.035C409.987 140.054 407.84 137.924 404.627 140.917C401.415 143.909 397.524 143.312 396.938 146.591C396.353 149.87 396.887 151.649 400.893 152.057C404.768 152.247 408.652 152.06 412.491 151.5C416.317 151.17 416.695 151.255 416.85 152.645C417.005 154.035 418.346 159.083 414.908 160.875C411.469 162.666 400.558 163.986 391.466 164.178C385.992 164.293 380.521 163.8 375.155 162.708C375.155 162.708 388.366 170.662 393.971 171.61C384.384 173.573 386.696 180.557 388.37 181.386C390.044 182.215 395.452 180.034 397.964 180.48C400.476 180.927 405.792 184.021 407.99 185.238C410.395 186.23 412.914 186.918 415.488 187.289C415.147 188.35 414.528 189.299 413.695 190.04C412.484 190.961 408.222 189.164 405.53 191.994C404.713 193.003 403.687 193.823 402.521 194.396C401.356 194.97 400.08 195.283 398.781 195.314C397.197 195.205 395.606 195.41 394.101 195.917C392.597 196.425 391.207 197.225 390.014 198.272C385.571 201.577 375.516 198.892 374.078 200.611C372.64 202.331 372.048 204.668 375.232 205.792C378.416 206.915 402.553 209.694 402.553 209.694C399.884 211.62 397.464 213.871 395.35 216.394C392.476 220.007 394.686 222.876 397.977 222.724C401.268 222.571 414.912 220.189 415.369 221.229C415.826 222.27 404.959 227.647 394.991 229.019C385.023 230.39 347.286 228.037 347.286 228.037C347.286 228.037 356.953 233.29 361.083 234.914C356.376 237.844 359.589 240.851 361.744 242.155C363.9 243.46 377.935 247.06 377.935 247.06C372.637 247.466 367.503 249.082 362.93 251.784C368.093 252.792 373.403 252.786 378.563 251.766C378.102 252.243 377.739 252.807 377.496 253.425C377.254 254.042 377.135 254.702 377.148 255.366C377.161 256.029 377.305 256.684 377.571 257.292C377.838 257.9 378.222 258.45 378.702 258.909C375.988 262.768 374.89 265.297 372.05 265.664C369.21 266.031 367.064 266.132 365.192 267.898C363.319 269.665 361.076 268.361 358.592 269.769C356.108 271.177 350.866 272.27 348.149 275.636C345.432 279.002 342.536 283.702 337.028 284.001L332.103 278.802C332.787 278.278 333.628 277.997 334.49 278.004C335.608 278.17 337.253 279.028 338.838 277.539C339.337 276.942 339.701 276.243 339.903 275.491C340.106 274.739 340.142 273.952 340.01 273.184C340.01 273.184 344.988 273.672 348.069 270.594C351.151 267.515 349.387 266.237 348.747 266.039C348.108 265.84 345.337 267.699 343.59 266.856C341.844 266.013 340.933 264.396 339.511 264.203C338.088 264.009 334.846 260.843 334.846 260.843C334.846 260.843 338.713 260.15 341.538 259.74C344.363 259.33 345.653 257.162 344.801 255.675C343.949 254.188 343.483 253.887 339.871 253.824C336.26 253.762 334.06 252.414 333.393 250.346C332.725 248.279 332.422 246.426 331.125 245.521C329.828 244.617 330.084 243.949 330.431 243.816C330.778 243.683 332.289 246.035 333.924 245.546C335.559 245.057 335.206 244.277 335.712 244.085C336.563 244.115 337.41 243.952 338.189 243.608C338.967 243.264 339.658 242.748 340.208 242.098C342.178 239.824 343.076 237.586 341.944 237.42C340.811 237.254 338.692 238.978 337.349 237.799C336.006 236.62 335.575 237.202 334.54 236.369C333.504 235.535 332.913 231.887 329.689 231.3C329.547 230.847 329.497 230.37 329.541 229.897C329.585 229.424 329.722 228.965 329.944 228.545C330.245 227.978 332.024 225.299 332.008 223.126C331.993 220.952 331.349 220.072 330.637 217.947C329.926 215.822 331.178 214.451 329.872 212.329C328.566 210.208 328.682 208.193 328.073 206.197C327.464 204.201 327.305 202.188 325.884 202.241C324.463 202.294 325.916 206.733 325.805 209.488C325.694 212.242 324.607 214.292 323.474 218.097C322.341 221.901 321.484 223.69 321.885 225.078C322.105 225.627 322.5 226.088 323.007 226.391C323.515 226.694 324.109 226.822 324.696 226.755C325.041 228.332 325.041 228.288 323.719 230.036C322.397 231.784 321.324 231.792 317.783 233.482C314.242 235.172 312.476 237.648 313.009 239.05C313.541 240.452 314.464 239.736 315.917 240.161C317.37 240.586 317.379 241.76 318.727 241.663C319.487 241.632 320.225 241.402 320.868 240.997C321.271 241.533 321.453 242.203 321.377 242.87C321.301 243.536 320.972 244.148 320.459 244.579C318.63 246.374 319.139 246.588 316.123 246.608C313.106 246.629 306.548 248.122 304.044 246.907C306.559 249.789 315.435 249.874 312.079 250.954C306.378 252.775 308.132 252.763 306.122 253.559C304.112 254.355 303.07 254.58 303.037 256.116C303.005 257.653 305.207 257.319 305.717 257.663C306.227 258.008 306.672 259.483 308.269 259.602C309.865 259.722 311.613 258.797 312.947 258.788C314.806 258.948 316.677 258.713 318.438 258.099C317.819 260.712 316.754 261.864 311.821 263.506C305.531 265.773 298.81 266.591 292.158 265.899C294.81 269.678 307.857 269.025 307.857 269.025C304.632 270.88 301.082 272.105 297.398 272.631C294.163 273.087 290.985 273.881 287.916 275C289.713 276.292 291.709 277.282 293.825 277.93C296.454 278.478 298.389 277.276 300.71 277.435C303.032 277.593 304.276 279.164 307.507 278.838C309.087 278.772 310.606 278.209 311.846 277.229C311.95 277.908 312.273 278.534 312.766 279.012C313.259 279.49 313.895 279.794 314.577 279.877C308.491 286.613 300.793 290.969 296.156 291.595C291.52 292.22 286.548 290.558 282.874 291.815C286.706 295.342 291.639 297.439 296.838 297.749C298.84 297.736 305.033 297.824 305.033 297.824C305.033 297.824 291.992 299.449 291.202 302.483L239.402 302.833C239.402 302.833 237.509 303.729 239.35 303.717Z" fill="#405649"/>
<path d="M501.837 262.966C468.718 255.557 171.104 286.239 26.4365 302.506L26.4367 378.976L951 336.476L1426 367.976L1449 316.476C1429.13 273.308 543.235 272.227 501.837 262.966Z" fill="#405649"/>
<rect y="316.476" width="1452" height="62" fill="#405649"/>
<rect y="302.476" width="76" height="76" fill="#405649"/>
</svg>
