<svg width="61" height="58" viewBox="0 0 61 58" fill="none" xmlns="http://www.w3.org/2000/svg">
<ellipse cx="30.4707" cy="29" rx="29.5918" ry="29" fill="#D9D9D9"/>
<path fill-rule="evenodd" clip-rule="evenodd" d="M22.4987 10.9803C24.4078 10.8941 25.0165 10.875 29.8796 10.875C34.7427 10.875 35.3514 10.8957 37.2589 10.9803C39.1664 11.0648 40.4685 11.3631 41.6078 11.7953C42.8007 12.2371 43.8831 12.9278 44.7782 13.821C45.6897 14.6966 46.3928 15.7557 46.842 16.9264C47.2847 18.0429 47.5874 19.3189 47.6753 21.1851C47.7632 23.0592 47.7827 23.6557 47.7827 28.42C47.7827 33.1859 47.7615 33.7824 47.6753 35.6533C47.589 37.5195 47.2847 38.7955 46.842 39.912C46.3927 41.0829 45.6885 42.1437 44.7782 43.0206C43.8831 43.9138 42.8007 44.6029 41.6078 45.0431C40.4685 45.4769 39.1664 45.7736 37.2622 45.8597C35.3514 45.9459 34.7427 45.965 29.8796 45.965C25.0165 45.965 24.4078 45.9443 22.4987 45.8597C20.5944 45.7752 19.2924 45.4769 18.1531 45.0431C16.9584 44.6028 15.8759 43.9126 14.981 43.0206C14.0702 42.1444 13.3654 41.0841 12.9157 39.9136C12.4746 38.7971 12.1719 37.5211 12.084 35.6549C11.9961 33.7808 11.9766 33.1843 11.9766 28.42C11.9766 23.6541 11.9977 23.0576 12.084 21.1883C12.1702 19.3189 12.4746 18.0429 12.9157 16.9264C13.366 15.7558 14.0714 14.6955 14.9826 13.8194C15.8762 12.927 16.9576 12.2362 18.1515 11.7953C19.2908 11.3631 20.5928 11.0664 22.4971 10.9803H22.4987ZM37.1141 14.1384C35.2261 14.0538 34.6597 14.0363 29.8796 14.0363C25.0995 14.0363 24.5331 14.0538 22.6452 14.1384C20.8988 14.2165 19.9516 14.502 19.3201 14.7429C18.4851 15.0619 17.8878 15.4399 17.2612 16.054C16.6672 16.6203 16.2101 17.3097 15.9234 18.0716C15.6776 18.6905 15.3863 19.6188 15.3065 21.3302C15.2203 23.1804 15.2024 23.7355 15.2024 28.42C15.2024 33.1045 15.2203 33.6596 15.3065 35.5098C15.3863 37.2212 15.6776 38.1495 15.9234 38.7684C16.2098 39.5292 16.6672 40.2198 17.2612 40.786C17.839 41.3682 18.5437 41.8164 19.3201 42.0971C19.9516 42.338 20.8988 42.6235 22.6452 42.7016C24.5331 42.7862 25.0979 42.8037 29.8796 42.8037C34.6614 42.8037 35.2261 42.7862 37.1141 42.7016C38.8604 42.6235 39.8077 42.338 40.4392 42.0971C41.2741 41.7781 41.8714 41.4001 42.498 40.786C43.0921 40.2198 43.5494 39.5292 43.8359 38.7684C44.0816 38.1495 44.373 37.2212 44.4527 35.5098C44.539 33.6596 44.5569 33.1045 44.5569 28.42C44.5569 23.7355 44.539 23.1804 44.4527 21.3302C44.373 19.6188 44.0816 18.6905 43.8359 18.0716C43.5104 17.2534 43.1246 16.668 42.498 16.054C41.9201 15.4719 41.2167 15.0239 40.4392 14.7429C39.8077 14.502 38.8604 14.2165 37.1141 14.1384ZM27.5929 33.8286C28.87 34.3496 30.292 34.4199 31.6161 34.0276C32.9402 33.6352 34.0842 32.8045 34.8528 31.6774C35.6213 30.5502 35.9668 29.1966 35.83 27.8476C35.6933 26.4986 35.0829 25.2379 34.1031 24.281C33.4785 23.6693 32.7233 23.2009 31.8918 22.9095C31.0603 22.6182 30.1733 22.5111 29.2945 22.596C28.4157 22.681 27.5671 22.9558 26.8097 23.4007C26.0524 23.8457 25.4051 24.4496 24.9145 25.1692C24.4238 25.8887 24.1021 26.7058 23.9725 27.5618C23.8428 28.4178 23.9084 29.2913 24.1645 30.1195C24.4207 30.9477 24.861 31.7099 25.4539 32.3512C26.0467 32.9926 26.7772 33.4972 27.5929 33.8286ZM23.3727 22.0432C24.2272 21.2058 25.2416 20.5415 26.3581 20.0883C27.4746 19.6351 28.6712 19.4018 29.8796 19.4018C31.0881 19.4018 32.2847 19.6351 33.4012 20.0883C34.5176 20.5415 35.5321 21.2058 36.3866 22.0432C37.2411 22.8806 37.9189 23.8748 38.3814 24.9689C38.8438 26.063 39.0818 27.2357 39.0818 28.42C39.0818 29.6043 38.8438 30.777 38.3814 31.8711C37.9189 32.9652 37.2411 33.9594 36.3866 34.7968C34.6608 36.488 32.3202 37.4382 29.8796 37.4382C27.439 37.4382 25.0984 36.488 23.3727 34.7968C21.6469 33.1056 20.6774 30.8118 20.6774 28.42C20.6774 26.0282 21.6469 23.7344 23.3727 22.0432ZM41.1227 20.7449C41.3345 20.5491 41.504 20.3137 41.6213 20.0526C41.7385 19.7915 41.8011 19.51 41.8054 19.2247C41.8096 18.9395 41.7554 18.6563 41.646 18.3919C41.5365 18.1276 41.3741 17.8874 41.1683 17.6857C40.9624 17.484 40.7174 17.3248 40.4476 17.2175C40.1779 17.1103 39.8889 17.0572 39.5978 17.0613C39.3068 17.0655 39.0195 17.1268 38.7531 17.2418C38.4866 17.3567 38.2464 17.5228 38.0467 17.7303C37.6582 18.1339 37.4455 18.67 37.4538 19.2247C37.462 19.7795 37.6906 20.3092 38.0909 20.7015C38.4912 21.0939 39.0318 21.3178 39.5978 21.3259C40.1639 21.334 40.7109 21.1256 41.1227 20.7449Z" fill="#405649"/>
</svg>
