<svg width="360" height="279" viewBox="0 0 360 279" fill="none" xmlns="http://www.w3.org/2000/svg">
<path d="M-39 0.155121C-39 0.155121 98.3091 100.759 367 131.712C367 225.542 366.885 278.159 366.885 278.159L-26.1578 252.628L-39 0.155121Z" fill="url(#paint0_linear_1148_372)"/>
<path d="M199 278.159C199 278.159 73.0575 274.524 27 265.955C27 265.955 27.5199 259.464 41.5719 262.062C55.6233 264.656 60.5676 248.038 80.3437 254.014C100.12 259.984 112.089 274.264 135.768 268.033C159.448 261.8 161.79 274.264 199 278.159" fill="url(#paint1_linear_1148_372)"/>
<path d="M164 149.925C164 149.925 7.5296 136.487 -63 105.992C-59.0816 93.5882 -39.4903 108.835 -25.6459 99.7926C-11.8013 90.7452 12.7535 82.7342 40.4429 109.353C68.1324 135.97 86.6788 120.465 99.7395 135.195C112.801 149.925 139.707 136.745 164 149.925" fill="url(#paint2_linear_1148_372)"/>
<path d="M152 71.6138C152 71.6138 391.426 51.3216 508 5.39566V0.155104H358.414C355.699 2.36237 352.962 4.76697 350.205 7.38265C305.787 49.5181 276.035 24.972 255.084 48.2929C234.132 71.6138 190.971 50.748 152 71.6138Z" fill="url(#paint3_linear_1148_372)"/>
<defs>
<linearGradient id="paint0_linear_1148_372" x1="164" y1="278.159" x2="164" y2="0.155121" gradientUnits="userSpaceOnUse">
<stop stop-color="#EBE7E2" stop-opacity="0"/>
<stop offset="1" stop-color="#EBE7E2"/>
</linearGradient>
<linearGradient id="paint1_linear_1148_372" x1="113" y1="278.159" x2="113" y2="252.708" gradientUnits="userSpaceOnUse">
<stop stop-color="white" stop-opacity="0"/>
<stop offset="1" stop-color="white"/>
</linearGradient>
<linearGradient id="paint2_linear_1148_372" x1="51" y1="149.925" x2="67.3689" y2="103.694" gradientUnits="userSpaceOnUse">
<stop stop-color="white" stop-opacity="0"/>
<stop offset="1" stop-color="white"/>
</linearGradient>
<linearGradient id="paint3_linear_1148_372" x1="330" y1="71.6138" x2="330" y2="0.155106" gradientUnits="userSpaceOnUse">
<stop stop-color="#E0DBD5"/>
<stop offset="1" stop-color="#EDEAE7" stop-opacity="0.52"/>
</linearGradient>
</defs>
</svg>
