<svg width="61" height="58" viewBox="0 0 61 58" fill="none" xmlns="http://www.w3.org/2000/svg">
<ellipse cx="30.5293" cy="29" rx="29.5918" ry="29" fill="#D9D9D9"/>
<path d="M29.9369 11.5999C40.7056 11.5999 49.4675 18.5668 49.4675 27.132C49.4675 30.5604 48.1125 33.6467 45.2806 36.6876C41.1841 41.3099 32.0218 46.9395 29.9369 47.8008C27.9106 48.6381 28.1449 47.3294 28.2377 46.8127L28.245 46.7696L28.5233 45.1307C28.5893 44.6427 28.6576 43.8842 28.4599 43.401C28.2401 42.8674 27.3759 42.5899 26.7412 42.4559C17.3543 41.2429 10.4062 34.8095 10.4062 27.132C10.4062 18.5668 19.1706 11.5999 29.9369 11.5999ZM22.6666 29.9886H18.9436V23.3662C18.9436 23.2676 18.9038 23.173 18.8329 23.1031C18.762 23.0332 18.6657 22.9936 18.5652 22.9929H17.1931C17.1431 22.9929 17.0936 23.0026 17.0474 23.0213C17.0012 23.0401 16.9592 23.0676 16.9238 23.1023C16.8885 23.1369 16.8604 23.1781 16.8413 23.2233C16.8221 23.2686 16.8123 23.3172 16.8123 23.3662V31.7064C16.8123 31.8045 16.8538 31.8978 16.9197 31.9624V31.9648L16.9246 31.9696L16.9295 31.9744C17.0003 32.0411 17.0949 32.078 17.1931 32.0773H22.6666C22.8765 32.0773 23.045 31.9098 23.045 31.704V30.3642C23.0453 30.3152 23.0358 30.2666 23.0169 30.2212C22.9981 30.1758 22.9703 30.1345 22.9352 30.0996C22.9 30.0647 22.8582 30.037 22.8122 30.0179C22.7661 29.9989 22.7166 29.9889 22.6666 29.9886ZM24.5977 22.9929C24.4967 22.9929 24.3998 23.0323 24.3284 23.1023C24.257 23.1722 24.2168 23.2672 24.2168 23.3662V31.7064C24.2168 31.9122 24.3877 32.0773 24.5977 32.0773H25.9697C26.1797 32.0773 26.3481 31.9098 26.3481 31.7064V23.3662C26.3481 23.2676 26.3083 23.173 26.2374 23.1031C26.1665 23.0332 26.0703 22.9936 25.9697 22.9929H24.5977ZM34.0285 22.9929C33.9275 22.9929 33.8306 23.0323 33.7592 23.1023C33.6878 23.1722 33.6477 23.2672 33.6477 23.3662V28.3186L29.7489 23.1604C29.739 23.1479 29.7284 23.1359 29.7171 23.1245V23.1221C29.7094 23.1138 29.7013 23.1058 29.6927 23.0982L29.6854 23.091C29.677 23.0832 29.6681 23.076 29.6586 23.0695H29.6561L29.6439 23.0599L29.6366 23.0551C29.6328 23.0524 29.6287 23.0499 29.6244 23.048L29.6048 23.036H29.6L29.5926 23.0312L29.5682 23.0216L29.5585 23.0169C29.5505 23.014 29.5423 23.0116 29.534 23.0097H29.5292L29.5218 23.0073L29.4999 23.0025H29.4852L29.4779 23.0001H29.4681L29.4632 22.9977H28.0619C27.9613 22.9977 27.8648 23.0367 27.7935 23.1062C27.7221 23.1757 27.6817 23.27 27.6811 23.3686V31.7088C27.6811 31.9146 27.852 32.0797 28.0619 32.0797H29.4291C29.6415 32.0797 29.8124 31.9122 29.8124 31.7088V26.7563L33.7185 31.9241C33.7445 31.9597 33.7767 31.9905 33.8137 32.0151L33.8161 32.0174L33.8405 32.0318L33.8503 32.0366C33.8566 32.0402 33.8631 32.0434 33.8698 32.0462L33.8869 32.0533L33.8991 32.0581C33.9072 32.0608 33.9153 32.0632 33.9235 32.0653H33.9309C33.9626 32.0742 33.9955 32.0791 34.0285 32.0797H35.3957C35.6081 32.0797 35.779 31.9122 35.779 31.7088V23.3662C35.779 23.2672 35.7388 23.1722 35.6674 23.1023C35.596 23.0323 35.4991 22.9929 35.3981 22.9929H34.0285ZM43.3422 24.7084V23.3686C43.3425 23.3195 43.333 23.271 43.3141 23.2255C43.2953 23.1801 43.2675 23.1388 43.2324 23.1039C43.1972 23.0691 43.1554 23.0413 43.1093 23.0223C43.0633 23.0032 43.0138 22.9933 42.9638 22.9929H37.4903C37.3918 22.9931 37.2972 23.0308 37.2267 23.0982H37.2242L37.2218 23.103L37.2169 23.1102C37.1487 23.1787 37.1102 23.2704 37.1095 23.3662V31.7064C37.1095 31.8045 37.151 31.8978 37.2169 31.9624L37.2218 31.9696L37.2267 31.9744C37.2976 32.0409 37.3921 32.0778 37.4903 32.0773H42.9638C43.1737 32.0773 43.3422 31.9098 43.3422 31.704V30.3642C43.3425 30.3152 43.333 30.2666 43.3141 30.2212C43.2953 30.1758 43.2675 30.1345 43.2324 30.0996C43.1972 30.0647 43.1554 30.037 43.1093 30.0179C43.0633 29.9989 43.0138 29.9889 42.9638 29.9886H39.2383V28.5794H42.9613C43.1713 28.5794 43.3397 28.412 43.3397 28.2062V26.8664C43.3401 26.8174 43.3305 26.7688 43.3117 26.7234C43.2929 26.678 43.2651 26.6367 43.2299 26.6018C43.1948 26.5669 43.153 26.5391 43.1069 26.5201C43.0608 26.5011 43.0114 26.4911 42.9613 26.4908H39.2383V25.0816H42.9613C43.1713 25.0816 43.3397 24.9141 43.3397 24.7084H43.3422Z" fill="#405649"/>
</svg>
