<svg width="388" height="129" viewBox="0 0 388 129" fill="none" xmlns="http://www.w3.org/2000/svg">
<path fill-rule="evenodd" clip-rule="evenodd" d="M0 120.107L3.18886 115.88C7.44067 110.807 13.8184 101.508 21.2591 103.199C28.6997 104.889 36.1404 117.57 42.5181 114.189C49.9588 110.807 57.3994 92.2083 63.7771 83.7542C71.2178 74.4548 78.6585 74.4548 85.0362 80.3726C92.4769 86.2904 99.9175 98.9715 107.358 100.662C113.736 101.508 121.177 93.0537 128.617 97.2807C134.995 101.508 142.436 120.107 149.876 126.024C156.254 132.788 163.695 126.024 171.135 125.179C178.576 123.488 184.954 126.024 192.394 114.189C199.835 101.508 206.213 74.4548 213.653 74.4548C221.094 74.4548 228.535 101.508 234.913 110.807C242.353 120.107 249.794 110.807 256.172 101.508C263.612 92.2083 271.053 83.7542 277.431 89.6721C284.871 95.5899 292.312 117.57 299.753 125.179C306.13 132.788 313.571 126.024 321.012 114.189C327.389 101.508 334.83 83.7542 342.271 83.7542C348.648 83.7542 356.089 101.508 363.53 103.199C370.97 104.889 377.348 89.6721 381.6 82.0634L388 74.4548V45.375V22.5V0H0V120.107Z" fill="url(#paint0_linear_1484_781)"/>
<defs>
<linearGradient id="paint0_linear_1484_781" x1="193.783" y1="166.342" x2="193.783" y2="43.1617" gradientUnits="userSpaceOnUse">
<stop stop-color="#405649"/>
<stop offset="1" stop-color="#405649"/>
</linearGradient>
</defs>
</svg>
