<svg width="360" height="129" viewBox="0 0 360 129" fill="none" xmlns="http://www.w3.org/2000/svg">
<path fill-rule="evenodd" clip-rule="evenodd" d="M0 120.107L2.95873 115.88C6.90371 110.807 12.8212 101.508 19.7249 103.199C26.6286 104.889 33.5323 117.57 39.4498 114.189C46.3535 110.807 53.2572 92.2083 59.1747 83.7542C66.0784 74.4548 72.9821 74.4548 78.8996 80.3726C85.8033 86.2904 92.707 98.9715 99.6107 100.662C105.528 101.508 112.432 93.0537 119.336 97.2807C125.253 101.508 132.157 120.107 139.06 126.024C144.978 132.788 151.882 126.024 158.785 125.179C165.689 123.488 171.607 126.024 178.51 114.189C185.414 101.508 191.331 74.4548 198.235 74.4548C205.139 74.4548 212.043 101.508 217.96 110.807C224.864 120.107 231.767 110.807 237.685 101.508C244.589 92.2083 251.492 83.7542 257.41 89.6721C264.314 95.5899 271.217 117.57 278.121 125.179C284.038 132.788 290.942 126.024 297.846 114.189C303.763 101.508 310.667 83.7542 317.571 83.7542C323.488 83.7542 330.392 101.508 337.296 103.199C344.199 104.889 350.117 89.6721 354.062 82.0634L360 74.4548V45.375V22.5V0H0V120.107Z" fill="#E0DBD5"/>
</svg>
