<svg width="60" height="58" viewBox="0 0 60 58" fill="none" xmlns="http://www.w3.org/2000/svg">
<ellipse cx="29.5918" cy="29" rx="29.5918" ry="29" fill="#D9D9D9"/>
<g clip-path="url(#clip0_1456_394)">
<path d="M49.9129 17.518C48.5127 18.1261 47.0086 18.5369 45.4273 18.7226C47.0589 17.7658 48.2796 16.26 48.8615 14.4861C47.3286 15.3784 45.6509 16.0065 43.9013 16.343C42.7248 15.112 41.1665 14.296 39.4682 14.0218C37.77 13.7476 36.0269 14.0305 34.5096 14.8267C32.9923 15.6228 31.7856 16.8876 31.0769 18.4247C30.3682 19.9617 30.1972 21.6851 30.5903 23.3272C27.4842 23.1744 24.4457 22.3832 21.6718 21.005C18.8979 19.6269 16.4507 17.6925 14.489 15.3275C13.8183 16.4614 13.4326 17.776 13.4326 19.1762C13.4318 20.4366 13.7486 21.6777 14.3547 22.7894C14.9608 23.9011 15.8375 24.849 16.9071 25.549C15.6667 25.5103 14.4536 25.1819 13.3689 24.5909V24.6895C13.3687 26.4573 13.9927 28.1707 15.1349 29.539C16.2771 30.9073 17.8672 31.8461 19.6353 32.1963C18.4846 32.5015 17.2782 32.5464 16.1072 32.3277C16.6061 33.8488 17.5778 35.179 18.8864 36.1319C20.195 37.0849 21.7749 37.613 23.4049 37.6423C20.6378 39.7711 17.2205 40.9258 13.7026 40.9207C13.0794 40.9209 12.4568 40.8852 11.8379 40.8139C15.4087 43.0639 19.5655 44.2581 23.8107 44.2534C38.1815 44.2534 46.0377 32.589 46.0377 22.4727C46.0377 22.144 46.0293 21.8121 46.0142 21.4834C47.5423 20.4004 48.8614 19.0593 49.9096 17.523L49.9129 17.518Z" fill="#405649"/>
</g>
<defs>
<clipPath id="clip0_1456_394">
<rect width="40.2449" height="39.44" fill="white" transform="translate(9.4707 9.28003)"/>
</clipPath>
</defs>
</svg>
