<svg width="60" height="58" viewBox="0 0 60 58" fill="none" xmlns="http://www.w3.org/2000/svg">
<ellipse cx="30.4082" cy="29" rx="29.5918" ry="29" fill="#D9D9D9"/>
<path d="M49.835 19.4141C49.6051 18.5749 49.1542 17.8095 48.5276 17.1947C47.901 16.5798 47.1206 16.1371 46.2646 15.9107C43.1134 15.0801 30.4816 15.0801 30.4816 15.0801C30.4816 15.0801 17.8498 15.0801 14.6986 15.9062C13.8422 16.1319 13.0614 16.5744 12.4347 17.1894C11.8079 17.8043 11.3574 18.5701 11.1282 19.4097C10.2852 22.5023 10.2852 28.9525 10.2852 28.9525C10.2852 28.9525 10.2852 35.4027 11.1282 38.4909C11.5925 40.1962 12.963 41.5393 14.6986 41.9943C17.8498 42.8249 30.4816 42.8249 30.4816 42.8249C30.4816 42.8249 43.1134 42.8249 46.2646 41.9943C48.0047 41.5393 49.3707 40.1962 49.835 38.4909C50.678 35.4027 50.678 28.9525 50.678 28.9525C50.678 28.9525 50.678 22.5023 49.835 19.4141ZM26.4693 34.8726V23.0324L36.9282 28.9083L26.4693 34.8726Z" fill="#405649"/>
</svg>
