<svg width="206" height="47" viewBox="0 0 206 47" fill="none" xmlns="http://www.w3.org/2000/svg">
<path d="M15.1768 26.8965L14.2719 26.4707L14.1768 26.6729V26.8965H15.1768ZM15.1768 45V46H16.1768V45H15.1768ZM1.61426 45H0.614258V46H1.61426V45ZM1.61426 2.19336V1.19336H0.614258V2.19336H1.61426ZM15.1768 2.19336H16.1768V1.19336H15.1768V2.19336ZM15.1768 21.0537H14.1768L16.0663 21.5106L15.1768 21.0537ZM24.8643 2.19336V1.19336H24.2537L23.9747 1.73646L24.8643 2.19336ZM40.6973 2.19336L41.5558 2.70618L42.4594 1.19336H40.6973V2.19336ZM28.4365 22.7188L27.578 22.2059L27.2839 22.6983L27.5604 23.2009L28.4365 22.7188ZM40.6973 45V46H42.3889L41.5734 44.5179L40.6973 45ZM24.8643 45L23.9464 45.3969L24.2072 46H24.8643V45ZM16.1455 24.8379L17.0634 24.441L16.184 22.4075L15.2407 24.4121L16.1455 24.8379ZM14.1768 26.8965V45H16.1768V26.8965H14.1768ZM15.1768 44H1.61426V46H15.1768V44ZM2.61426 45V2.19336H0.614258V45H2.61426ZM1.61426 3.19336H15.1768V1.19336H1.61426V3.19336ZM14.1768 2.19336V21.0537H16.1768V2.19336H14.1768ZM16.0663 21.5106L25.7538 2.65026L23.9747 1.73646L14.2872 20.5968L16.0663 21.5106ZM24.8643 3.19336H40.6973V1.19336H24.8643V3.19336ZM39.8388 1.68054L27.578 22.2059L29.295 23.2316L41.5558 2.70618L39.8388 1.68054ZM27.5604 23.2009L39.8212 45.4821L41.5734 44.5179L29.3126 22.2366L27.5604 23.2009ZM40.6973 44H24.8643V46H40.6973V44ZM25.7821 44.6031L17.0634 24.441L15.2277 25.2348L23.9464 45.3969L25.7821 44.6031ZM15.2407 24.4121L14.2719 26.4707L16.0816 27.3223L17.0503 25.2637L15.2407 24.4121ZM44.4814 2.19336V1.19336H43.4814V2.19336H44.4814ZM63.0088 2.34473L62.9414 3.34245L62.9485 3.34293L62.9555 3.34331L63.0088 2.34473ZM67.5498 2.88965L67.3663 3.87275L67.379 3.87496L67.5498 2.88965ZM71.9395 4.04004L71.6031 4.98186L71.6151 4.98599L71.9395 4.04004ZM75.6934 5.97754L75.0981 6.7811L75.1065 6.78727L75.1149 6.79327L75.6934 5.97754ZM78.3271 8.91406L77.4516 9.39714L77.4566 9.40617L77.4617 9.4151L78.3271 8.91406ZM78.9932 15.877L79.9658 16.1095L79.9669 16.1048L78.9932 15.877ZM77.7822 18.4502L76.9798 17.8535L76.9748 17.8602L76.9699 17.867L77.7822 18.4502ZM75.4209 20.5088L74.9192 19.6437L74.9116 19.6482L75.4209 20.5088ZM71.6064 21.75L71.4525 20.7619L71.547 22.7482L71.6064 21.75ZM76.1172 22.9307L75.6537 23.8168L75.6618 23.821L75.67 23.8251L76.1172 22.9307ZM81.5361 28.8037L80.6004 29.1565L80.604 29.1658L80.6077 29.1751L81.5361 28.8037ZM81.2939 37.0684L82.2118 37.4653L82.2137 37.4608L81.2939 37.0684ZM78.0244 41.0947L78.6362 41.8858L78.6376 41.8846L78.0244 41.0947ZM72 43.9404L72.2717 44.9029L72.2788 44.9008L72 43.9404ZM44.4814 45H43.4814V46H44.4814V45ZM58.0439 37.25H57.0439V38.25H58.0439V37.25ZM67.3984 35.918L66.6754 35.2271L66.6751 35.2275L67.3984 35.918ZM68.2461 30.2266L67.3399 30.6494L67.3456 30.6617L67.3517 30.6738L68.2461 30.2266ZM66.6416 28.7432L66.1853 29.633L66.1944 29.6377L66.2036 29.6422L66.6416 28.7432ZM63.3721 27.8652L63.2266 28.8546L63.2346 28.8558L63.2427 28.8568L63.3721 27.8652ZM58.0439 27.5625V26.5625H57.0439V27.5625H58.0439ZM64.8857 19.4189L65.202 20.3676L65.2128 20.364L65.2236 20.3601L64.8857 19.4189ZM68.2158 16.7852L67.3402 16.3021L67.3338 16.3138L67.3276 16.3257L68.2158 16.7852ZM68.125 12.5771L67.2724 13.0997L68.125 12.5771ZM58.0439 10.125V9.125H57.0439V10.125H58.0439ZM58.0439 19.8125H57.0439V20.8125H58.0439V19.8125ZM44.4814 3.19336H58.8916V1.19336H44.4814V3.19336ZM58.8916 3.19336C60.1166 3.19336 61.4661 3.24277 62.9414 3.34245L63.0762 1.347C61.5645 1.24486 60.1692 1.19336 58.8916 1.19336V3.19336ZM62.9555 3.34331C64.4248 3.42167 65.895 3.59802 67.3663 3.87267L67.7333 1.90663C66.1773 1.61617 64.6201 1.42924 63.062 1.34615L62.9555 3.34331ZM67.379 3.87496C68.8377 4.1278 70.2455 4.49691 71.6031 4.98178L72.2758 3.0983C70.8079 2.57406 69.2892 2.17624 67.7206 1.90434L67.379 3.87496ZM71.6151 4.98599C72.9406 5.44042 74.0986 6.04073 75.0981 6.7811L76.2886 5.17398C75.1084 4.29977 73.7639 3.60841 72.2638 3.09409L71.6151 4.98599ZM75.1149 6.79327C76.1044 7.49489 76.8798 8.36082 77.4516 9.39714L79.2027 8.43099C78.4828 7.12616 77.5024 6.03441 76.2718 5.16181L75.1149 6.79327ZM77.4617 9.4151C78.0235 10.3855 78.3262 11.5777 78.3262 13.0312H80.3262C80.3262 11.296 79.9628 9.74346 79.1926 8.41303L77.4617 9.4151ZM78.3262 13.0312C78.3262 13.901 78.2245 14.7732 78.0195 15.6491L79.9669 16.1048C80.2059 15.0836 80.3262 14.0586 80.3262 13.0312H78.3262ZM78.0206 15.6444C77.8309 16.4375 77.4866 17.1719 76.9798 17.8535L78.5847 19.0469C79.2485 18.1542 79.7114 17.1732 79.9657 16.1095L78.0206 15.6444ZM76.9699 17.867C76.5023 18.5183 75.8305 19.1152 74.9192 19.6438L75.9226 21.3738C77.0295 20.7318 77.9319 19.9563 78.5946 19.0334L76.9699 17.867ZM74.9116 19.6482C74.0641 20.1498 72.9243 20.5326 71.4525 20.7619L71.7604 22.7381C73.3967 22.4831 74.7998 22.0384 75.9302 21.3694L74.9116 19.6482ZM71.547 22.7482C73.1219 22.842 74.4842 23.2051 75.6537 23.8168L76.5807 22.0446C75.1264 21.2839 73.4816 20.8598 71.6659 20.7518L71.547 22.7482ZM75.67 23.8251C76.9009 24.4406 77.9175 25.2049 78.7342 26.1123L80.2208 24.7744C79.2211 23.6636 77.9975 22.7528 76.5644 22.0362L75.67 23.8251ZM78.7342 26.1123C79.5619 27.0319 80.1815 28.0456 80.6004 29.1565L82.4718 28.4509C81.9623 27.0996 81.2096 25.873 80.2208 24.7744L78.7342 26.1123ZM80.6077 29.1751C81.0493 30.2792 81.2627 31.3543 81.2627 32.4062H83.2627C83.2627 31.0767 82.9917 29.7501 82.4646 28.4323L80.6077 29.1751ZM81.2627 32.4062C81.2627 33.8614 80.9688 35.2822 80.3742 36.6759L82.2137 37.4608C82.9107 35.8271 83.2627 34.1399 83.2627 32.4062H81.2627ZM80.3761 36.6714C79.8089 37.9831 78.8377 39.1974 77.4112 40.3048L78.6376 41.8846C80.2788 40.6106 81.4873 39.1406 82.2118 37.4653L80.3761 36.6714ZM77.4127 40.3037C76.0272 41.3751 74.144 42.2767 71.7212 42.9801L72.2788 44.9008C74.8612 44.1511 76.9943 43.1555 78.6362 41.8858L77.4127 40.3037ZM71.7284 42.978C69.343 43.6513 66.3332 44 62.6758 44V46C66.4454 46 69.6518 45.6423 72.2716 44.9028L71.7284 42.978ZM62.6758 44H44.4814V46H62.6758V44ZM45.4814 45V2.19336H43.4814V45H45.4814ZM58.0439 38.25H63.5234V36.25H58.0439V38.25ZM63.5234 38.25C65.4172 38.25 67.0184 37.7643 68.1218 36.6084L66.6751 35.2275C66.0831 35.8477 65.101 36.25 63.5234 36.25V38.25ZM68.1214 36.6088C69.1923 35.4881 69.7002 34.0575 69.7002 32.4062H67.7002C67.7002 33.6209 67.3402 34.5314 66.6754 35.2271L68.1214 36.6088ZM69.7002 32.4062C69.7002 31.4416 69.528 30.5542 69.1405 29.7793L67.3517 30.6738C67.5697 31.1098 67.7002 31.6756 67.7002 32.4062H69.7002ZM69.1523 29.8037C68.7463 28.9337 68.0082 28.2966 67.0796 27.8442L66.2036 29.6422C66.8492 29.9567 67.1808 30.3085 67.3399 30.6494L69.1523 29.8037ZM67.0979 27.8533C66.1664 27.3756 64.9491 27.0625 63.5014 26.8736L63.2427 28.8568C64.5802 29.0313 65.5426 29.3034 66.1853 29.633L67.0979 27.8533ZM63.5176 26.8759C62.0779 26.6642 60.2482 26.5625 58.0439 26.5625V28.5625C60.1991 28.5625 61.9215 28.6627 63.2266 28.8546L63.5176 26.8759ZM57.0439 27.5625V37.25H59.0439V27.5625H57.0439ZM62.2822 20.8125C63.3231 20.8125 64.2995 20.6685 65.202 20.3676L64.5695 18.4703C63.8978 18.6942 63.1385 18.8125 62.2822 18.8125V20.8125ZM65.2236 20.3601C66.0956 20.0471 66.8699 19.6356 67.5319 19.1154L66.2962 17.5428C65.8281 17.9106 65.2501 18.2257 64.5479 18.4778L65.2236 20.3601ZM67.5319 19.1154C68.1991 18.5911 68.7298 17.9681 69.104 17.2446L67.3276 16.3257C67.0964 16.7728 66.7592 17.179 66.2962 17.5428L67.5319 19.1154ZM69.0914 17.2682C69.4902 16.5455 69.7002 15.7749 69.7002 14.9688H67.7002C67.7002 15.4139 67.5873 15.8543 67.3402 16.3021L69.0914 17.2682ZM69.7002 14.9688C69.7002 13.8731 69.4837 12.8803 68.9776 12.0546L67.2724 13.0997C67.5333 13.5253 67.7002 14.1269 67.7002 14.9688H69.7002ZM68.9776 12.0546C68.461 11.2118 67.661 10.5984 66.6722 10.1746L65.8844 12.0129C66.591 12.3157 67.022 12.6912 67.2724 13.0997L68.9776 12.0546ZM66.6722 10.1746C65.6997 9.75781 64.4919 9.48958 63.0824 9.34233L62.8746 11.3315C64.1696 11.4668 65.1616 11.7031 65.8844 12.0129L66.6722 10.1746ZM63.0824 9.34233C61.6846 9.19629 60.0029 9.125 58.0439 9.125V11.125C59.96 11.125 61.568 11.195 62.8746 11.3315L63.0824 9.34233ZM57.0439 10.125V19.8125H59.0439V10.125H57.0439ZM58.0439 20.8125H62.2822V18.8125H58.0439V20.8125ZM91.4053 2.19336V1.19336H90.4053V2.19336H91.4053ZM103.999 2.19336L104.841 1.65431L104.546 1.19336H103.999V2.19336ZM114.655 18.8438L113.813 19.3828L114.655 20.6989L115.498 19.3828L114.655 18.8438ZM125.312 2.19336V1.19336H124.764L124.469 1.65431L125.312 2.19336ZM138.208 2.19336H139.208V1.19336H138.208V2.19336ZM138.208 45V46H139.208V45H138.208ZM124.343 45H123.343V46H124.343V45ZM124.343 21.75H125.343V18.089L123.482 21.2416L124.343 21.75ZM114.353 38.6729V39.6729H114.923L115.214 39.1812L114.353 38.6729ZM111.416 38.6729L110.562 39.1936L110.855 39.6729H111.416V38.6729ZM101.093 21.75L101.946 21.2292L100.093 18.1905V21.75H101.093ZM101.093 45V46H102.093V45H101.093ZM91.4053 45H90.4053V46H91.4053V45ZM91.4053 3.19336H103.999V1.19336H91.4053V3.19336ZM103.157 2.73241L113.813 19.3828L115.498 18.3047L104.841 1.65431L103.157 2.73241ZM115.498 19.3828L126.154 2.73241L124.469 1.65431L113.813 18.3047L115.498 19.3828ZM125.312 3.19336H138.208V1.19336H125.312V3.19336ZM137.208 2.19336V45H139.208V2.19336H137.208ZM138.208 44H124.343V46H138.208V44ZM125.343 45V21.75H123.343V45H125.343ZM123.482 21.2416L113.491 38.1645L115.214 39.1812L125.204 22.2584L123.482 21.2416ZM114.353 37.6729H111.416V39.6729H114.353V37.6729ZM112.27 38.1521L101.946 21.2292L100.239 22.2708L110.562 39.1936L112.27 38.1521ZM100.093 21.75V45H102.093V21.75H100.093ZM101.093 44H91.4053V46H101.093V44ZM92.4053 45V2.19336H90.4053V45H92.4053ZM179.107 13.3037L178.705 14.2194L180.036 14.8035L180.106 13.352L179.107 13.3037ZM176.201 12.2139L175.869 13.1572L175.88 13.1608L175.89 13.1643L176.201 12.2139ZM172.75 11.1846L172.504 12.1537L172.507 12.1547L172.75 11.1846ZM169.117 10.458L168.955 11.4448L168.963 11.4461L168.971 11.4473L169.117 10.458ZM160.126 14.7871L159.367 15.4379L159.383 15.4573L159.401 15.4759L160.126 14.7871ZM161.73 15.9375L161.263 16.8213L161.273 16.8267L161.283 16.8319L161.73 15.9375ZM164.183 16.9668L163.842 17.9072L163.854 17.9115L163.866 17.9155L164.183 16.9668ZM167.392 17.9961L167.692 17.0423L167.688 17.041L167.392 17.9961ZM169.602 18.6924L169.301 19.6462L169.31 19.6491L169.602 18.6924ZM174.597 20.751L174.116 21.628L174.125 21.633L174.597 20.751ZM178.32 23.5664L177.587 24.2458L177.593 24.2529L177.6 24.2598L178.32 23.5664ZM180.5 37.7041L179.568 37.3422L179.566 37.3481L180.5 37.7041ZM172.084 44.8789L171.792 43.9226L171.789 43.9233L172.084 44.8789ZM156.19 45.2119L156.026 46.1983L156.027 46.1985L156.19 45.2119ZM148.107 42.8809H147.107V43.5533L147.73 43.807L148.107 42.8809ZM148.107 32.8906L148.563 32.0004L147.107 31.2557V32.8906H148.107ZM155.676 35.8271L155.428 36.7959L155.437 36.7982L155.676 35.8271ZM167.21 35.7969L166.643 34.9733L166.634 34.9794L167.21 35.7969ZM168.058 31.498L167.226 32.0527L167.239 32.0729L167.253 32.0924L168.058 31.498ZM166.453 30.166L165.967 31.0402L165.978 31.0457L166.453 30.166ZM163.577 28.9551L163.242 29.8972L163.249 29.8997L163.256 29.9021L163.577 28.9551ZM159.248 27.5322L159.544 26.5769L159.533 26.5738L159.248 27.5322ZM154.525 25.625L154.054 26.5067L154.059 26.5094L154.525 25.625ZM150.802 22.8701L150.081 23.5638L150.088 23.5705L150.802 22.8701ZM148.319 19.0859L147.394 19.4641L147.398 19.4752L148.319 19.0859ZM151.498 4.94824L152.127 5.72578L152.134 5.72017L151.498 4.94824ZM156.705 2.31445L156.422 1.35538L156.419 1.35612L156.705 2.31445ZM171.842 1.98145L171.692 2.97016L171.694 2.97049L171.842 1.98145ZM179.562 3.91895L180.56 3.96728L180.595 3.24161L179.916 2.98395L179.562 3.91895ZM179.509 12.3881C178.645 12.0086 177.645 11.6341 176.512 11.2635L175.89 13.1643C176.978 13.5202 177.915 13.8723 178.705 14.2194L179.509 12.3881ZM176.533 11.2706C175.412 10.876 174.231 10.5241 172.993 10.2144L172.507 12.1547C173.691 12.4505 174.811 12.7848 175.869 13.1572L176.533 11.2706ZM172.996 10.2154C171.772 9.90414 170.528 9.65528 169.263 9.46872L168.971 11.4473C170.169 11.624 171.346 11.8595 172.504 12.1537L172.996 10.2154ZM169.279 9.47118C168.002 9.26182 166.787 9.15527 165.636 9.15527V11.1553C166.664 11.1553 167.77 11.2506 168.955 11.4448L169.279 9.47118ZM165.636 9.15527C163.674 9.15527 162.028 9.40262 160.773 9.97088L161.598 11.7928C162.482 11.3923 163.804 11.1553 165.636 11.1553V9.15527ZM160.773 9.97088C160.1 10.2755 159.536 10.7134 159.145 11.3106C158.754 11.9092 158.581 12.5995 158.581 13.334H160.581C160.581 12.9181 160.676 12.6245 160.819 12.4057C160.963 12.1856 161.201 11.9726 161.598 11.7928L160.773 9.97088ZM158.581 13.334C158.581 14.1239 158.852 14.8377 159.367 15.4379L160.885 14.1363C160.673 13.8889 160.581 13.6339 160.581 13.334H158.581ZM159.401 15.4759C159.882 15.9822 160.515 16.4258 161.263 16.8213L162.198 15.0537C161.573 14.7227 161.137 14.3993 160.851 14.0984L159.401 15.4759ZM161.283 16.8319C162.013 17.1968 162.868 17.5547 163.842 17.9072L164.523 16.0264C163.6 15.6927 162.82 15.3644 162.178 15.0431L161.283 16.8319ZM163.866 17.9155C164.843 18.241 165.919 18.5862 167.095 18.9512L167.688 17.041C166.523 16.6794 165.46 16.3385 164.499 16.0181L163.866 17.9155ZM167.091 18.9499L169.301 19.6462L169.902 17.7386L167.692 17.0423L167.091 18.9499ZM169.31 19.6491C171.111 20.1972 172.711 20.8583 174.116 21.628L175.077 19.874C173.535 19.0291 171.805 18.3178 169.893 17.7357L169.31 19.6491ZM174.125 21.633C175.513 22.3741 176.662 23.2471 177.587 24.2458L179.054 22.887C177.961 21.706 176.627 20.7021 175.068 19.869L174.125 21.633ZM177.6 24.2598C178.537 25.234 179.253 26.3531 179.75 27.6242L181.613 26.8954C181.02 25.3813 180.162 24.0381 179.041 22.873L177.6 24.2598ZM179.75 27.6242C180.242 28.8811 180.499 30.3384 180.499 32.0127H182.499C182.499 30.1349 182.211 28.4236 181.613 26.8954L179.75 27.6242ZM180.499 32.0127C180.499 33.9836 180.184 35.7561 179.568 37.3422L181.432 38.066C182.148 36.2211 182.499 34.1993 182.499 32.0127H180.499ZM179.566 37.3481C178.979 38.8869 178.057 40.2039 176.786 41.3089L178.099 42.8181C179.613 41.5011 180.729 39.9119 181.434 38.0601L179.566 37.3481ZM176.786 41.3089C175.521 42.4088 173.868 43.2881 171.792 43.9226L172.376 45.8353C174.659 45.1376 176.578 44.14 178.099 42.8181L176.786 41.3089ZM171.789 43.9233C169.752 44.5517 167.253 44.8779 164.273 44.8779V46.8779C167.388 46.8779 170.097 46.5382 172.379 45.8345L171.789 43.9233ZM164.273 44.8779C161.624 44.8779 158.984 44.6605 156.354 44.2253L156.027 46.1985C158.765 46.6514 161.514 46.8779 164.273 46.8779V44.8779ZM156.355 44.2255C153.77 43.7947 151.147 43.0393 148.485 41.9548L147.73 43.807C150.517 44.9424 153.283 45.7411 156.026 46.1983L156.355 44.2255ZM149.107 42.8809V32.8906H147.107V42.8809H149.107ZM147.652 33.7809C150.311 35.1414 152.903 36.1492 155.428 36.7959L155.924 34.8584C153.564 34.2538 151.111 33.3039 148.563 32.0004L147.652 33.7809ZM155.437 36.7982C157.972 37.4217 160.474 37.7354 162.941 37.7354V35.7354C160.645 35.7354 158.304 35.4436 155.915 34.8561L155.437 36.7982ZM162.941 37.7354C164.961 37.7354 166.641 37.4212 167.786 36.6144L166.634 34.9794C166.003 35.4239 164.837 35.7354 162.941 35.7354V37.7354ZM167.777 36.6204C168.958 35.8067 169.572 34.6298 169.572 33.1934H167.572C167.572 33.977 167.278 34.5358 166.643 34.9734L167.777 36.6204ZM169.572 33.1934C169.572 32.3476 169.351 31.5655 168.862 30.9037L167.253 32.0924C167.45 32.3589 167.572 32.7071 167.572 33.1934H169.572ZM168.89 30.9433C168.444 30.2752 167.758 29.7345 166.929 29.2863L165.978 31.0457C166.642 31.4048 167.025 31.7522 167.226 32.0527L168.89 30.9433ZM166.939 29.2919C166.14 28.8482 165.12 28.4222 163.898 28.008L163.256 29.9021C164.416 30.2952 165.313 30.6765 165.967 31.0402L166.939 29.2919ZM163.912 28.013C162.705 27.583 161.247 27.1043 159.544 26.5769L158.952 28.4875C160.639 29.0096 162.068 29.4795 163.242 29.8972L163.912 28.013ZM159.533 26.5738C157.896 26.0865 156.383 25.4747 154.992 24.7406L154.059 26.5094C155.574 27.3091 157.209 27.9688 158.963 28.4907L159.533 26.5738ZM154.997 24.7433C153.646 24.0202 152.488 23.1612 151.516 22.1698L150.088 23.5705C151.214 24.7183 152.539 25.6959 154.054 26.5067L154.997 24.7433ZM151.522 22.1765C150.56 21.1774 149.8 20.02 149.24 18.6967L147.398 19.4752C148.05 21.0178 148.945 22.3831 150.081 23.5638L151.522 22.1765ZM149.245 18.7078C148.717 17.4151 148.441 15.9123 148.441 14.1816H146.441C146.441 16.1242 146.751 17.8909 147.394 19.4641L149.245 18.7078ZM148.441 14.1816C148.441 12.4036 148.753 10.8023 149.361 9.36425L147.519 8.58497C146.796 10.2954 146.441 12.1654 146.441 14.1816H148.441ZM149.361 9.36425C149.961 7.9464 150.878 6.73595 152.127 5.72575L150.869 4.17073C149.373 5.38058 148.252 6.85438 147.519 8.58497L149.361 9.36425ZM152.134 5.72017C153.382 4.69208 154.991 3.86889 156.991 3.27279L156.419 1.35612C154.221 2.01132 152.359 2.94399 150.862 4.17631L152.134 5.72017ZM156.988 3.27353C158.992 2.68201 161.404 2.37598 164.243 2.37598V0.375977C161.269 0.375977 158.657 0.695589 156.422 1.35538L156.988 3.27353ZM164.243 2.37598C165.365 2.37598 166.559 2.42517 167.828 2.52431L167.984 0.530382C166.67 0.427693 165.423 0.375977 164.243 0.375977V2.37598ZM167.828 2.52431C169.095 2.62326 170.383 2.77181 171.692 2.97016L171.992 0.99273C170.637 0.787434 169.301 0.633246 167.984 0.530382L167.828 2.52431ZM171.694 2.97049C173.016 3.16778 174.318 3.42417 175.599 3.73957L176.077 1.79754C174.735 1.46711 173.372 1.19876 171.989 0.992401L171.694 2.97049ZM175.599 3.73957C176.875 4.05358 178.077 4.42534 179.207 4.85394L179.916 2.98395C178.705 2.52453 177.425 2.12936 176.077 1.79754L175.599 3.73957ZM178.563 3.87061L178.109 13.2554L180.106 13.352L180.56 3.96728L178.563 3.87061ZM190.793 2.19336V1.19336H189.793V2.19336H190.793ZM204.355 2.19336H205.355V1.19336H204.355V2.19336ZM204.355 45V46H205.355V45H204.355ZM190.793 45H189.793V46H190.793V45ZM190.793 3.19336H204.355V1.19336H190.793V3.19336ZM203.355 2.19336V45H205.355V2.19336H203.355ZM204.355 44H190.793V46H204.355V44ZM191.793 45V2.19336H189.793V45H191.793Z" fill="white" fill-opacity="0.5"/>
</svg>
